<?xml version="1.0" encoding="utf-8"?>
<!-- Generator: Adobe Illustrator 22.1.0, SVG Export Plug-In . SVG Version: 6.00 Build 0)  -->
<svg version="1.1" id="Layer_1" xmlns="http://www.w3.org/2000/svg" xmlns:xlink="http://www.w3.org/1999/xlink" x="0px" y="0px"
	 viewBox="0 0 321.3 221.8" style="enable-background:new 0 0 321.3 221.8;" xml:space="preserve">
<style type="text/css">
	.st0{fill:#2A2353;}
	.st1{fill:#59559D;}
	.st2{fill:#332D60;}
	.st3{fill:#47427E;}
	.st4{fill:#F6E1CC;}
	.st5{opacity:0.9;fill:#DE9E6C;}
	.st6{opacity:0.5;fill:#DE9E6C;}
	.st7{fill:#7D5DA7;}
	.st8{fill:#F6E7CF;}
	.st9{opacity:0.4;fill:#F6E1CC;}
</style>
<g>
	<g>
		<g>
			<path class="st0" d="M314.7,34.8l-8-2.5l-146.1,51v82.1c-0.3,0-0.6,0-0.9,0c-0.3,0-0.6,0-0.9,0V83.3l-146.1-51l-8,2.5l3.7,175.4
				c0,0-0.7,4.3,4,3.9c4.7-0.4,54.4-19.1,132.6-8.1c3.8,4.1,9.1,6.5,14.8,6.5c5.7,0,11-2.5,14.8-6.5c78.1-11.1,127.8,7.7,132.6,8.1
				c4.8,0.4,4-3.9,4-3.9L314.7,34.8z"/>
			<path class="st1" d="M314.7,32.3l-8-2.5l-146.1,51v82.1c-0.3,0-0.6,0-0.9,0c-0.3,0-0.6,0-0.9,0V80.8l-146.1-51l-8,2.5l3.7,175.4
				c0,0-0.7,4.3,4,3.9c4.7-0.4,54.4-19.1,132.6-8.1c3.8,4.1,9.1,6.5,14.8,6.5c5.7,0,11-2.5,14.8-6.5c78.1-11.1,127.8,7.7,132.6,8.1
				c4.8,0.4,4-3.9,4-3.9L314.7,32.3z"/>
			<g>
				<path class="st1" d="M150.5,204.6c-1.9-1-3.9-1.9-6-2.7c0,0.1,0,0.2-0.1,0.3c-0.1,0.4-0.1,0.8-0.2,1.2c0.2,0,0.4,0.1,0.6,0.1
					c3.6,3.8,8.5,6.3,13.8,6.5C156.1,208,153.4,206.2,150.5,204.6z"/>
				<path class="st1" d="M314.7,32.3l-8-2.5l-146.1,51v82.1c-0.3,0-0.6,0-0.9,0c-0.3,0-0.6,0-0.9,0V80.8l-146.1-51l-0.9,0.3
					c-0.6,15.6-0.4,31.3,0,46.9c0.7,28.8,2.2,57.5,1.5,86.3c-0.4,14.4-1,28.7-0.6,43.1c0,0.3,0,2.9,0.3,2.8c0.8-0.3,1.5-0.6,2.3-1
					c1.2-0.7,2.4-1.5,3.6-2.2c2.5-1.5,5.3-2.7,8.1-3.6c6.2-1.9,12.7-2.4,19.1-3.4c14-2.2,28.1-3.4,42.2-3.5c7.1,0,14.1,0.4,21.2,0.6
					c6.4,0.2,12.8,0.7,19.2,1.7c5.3,0.8,10.7,1.9,15.7,3.8c0.3-1.8,0.8-3.7,1.7-5.3c0.1-0.1,0.2,0,0.2,0.1c-0.9,1.6-1.4,3.5-1.7,5.3
					c0.8,0.3,1.6,0.6,2.3,1c4.3,1.9,8.4,4.5,12.1,7.5c0.1,0,0.2,0,0.3,0c4.2-2.5,8.7-4.6,13.2-6.5c0.8-0.4,1.7-0.7,2.5-1
					c0-1.7-0.1-3.4-0.3-5.1c0-0.1,0.2-0.2,0.2,0c0.3,1.7,0.3,3.4,0.3,5.1c1.3-0.5,2.7-1,4-1.5c2.4-0.9,5-1.4,7.5-1.8
					c4.9-0.9,9.9-1.4,14.8-1.8c20.7-1.5,41.5-2.3,62.1,0.2c10.1,1.2,20.1,3.3,29.8,6.3c4.8,1.5,9.6,3.3,14.2,5.4
					c0.9,0.4,1.8,0.8,2.7,1.2c0.9-1.2,0.6-2.8,0.6-2.8L314.7,32.3z"/>
				<path class="st1" d="M175.1,202.7c-1.6,0.6-3.2,1.3-4.8,2c-3.6,1.6-7.1,3.4-10.5,5.3c5.7,0,10.9-2.5,14.7-6.5
					c0.2,0,0.4-0.1,0.6-0.1C175.1,203.2,175.1,203,175.1,202.7z"/>
			</g>
			<path class="st2" d="M174.7,75.9l-14.1,4.9v82.1c-0.3,0-0.6,0-0.9,0c-0.3,0-0.6,0-0.9,0V80.8L144.9,76v127.6
				c3.8,4,9,6.5,14.7,6.5c5.7,0,11-2.5,14.8-6.5c0.1,0,0.1,0,0.2,0V75.9z"/>
			<path class="st3" d="M166.8,78.6v130.1c2.9-1.1,5.5-2.9,7.7-5.2c0.1,0,0.1,0,0.2,0V75.9L166.8,78.6z"/>
			<path class="st3" d="M152.5,78.6l-7.6-2.6v127.6c2.2,2.2,4.7,4,7.6,5.1V78.6z"/>
			<path class="st3" d="M167.6,206.4c-4.2,1.5-8.7,1.8-13.1,0.7c-3.4-0.8-6.8-2.2-9.6-4.4v0.9c3.8,4,9,6.5,14.7,6.5
				c5.7,0,11-2.5,14.8-6.5c0.1,0,0.1,0,0.2,0v-1C172.6,204.2,170.1,205.5,167.6,206.4z"/>
		</g>
		<path class="st4" d="M308.2,184.1c0.2-0.4,0.4-1,0.8-1.4l2.7-136.2c-43.5-20.8-116.8-18.1-152,7.3C124.9,27.6,52.1,25.4,8,46.5
			l2.6,136.4c0.3,0.3,0.6,0.8,0.7,0.9c0.3,0.5,0.7,1.1,0.9,1.8c0.4,1.3,0.6,2.6,0.8,4c0.3,2.7,0.5,5.5,0.5,8.3
			c-0.1,4.1-0.6,8.1-2,11.9c3-2.4,33.4-25.4,92.7-18c18.9,2.3,31.5,6,40.7,9.6c0.4-1.9,1.1-3.6,1.6-5.5c0.3-1.2,0.6-2.4,1.1-3.5
			c0.5-1.1,1.2-2.1,2-3c1.6-1.8,3.6-3.5,5.8-4.5c2.1-0.9,4.3-0.9,6.5-0.5c2.2,0.4,4.6,1.1,6.3,2.6c1,0.8,1.8,1.8,2.5,2.8
			c0.7,0.9,1.5,1.9,2.1,2.9c1.1,2,1.7,4.2,2,6.5c0.1,0.7,0.2,1.4,0.3,2.1c9.1-3.5,21.8-7.2,40.6-9.5c60.2-7.5,90.7,16.3,92.7,17.9
			c-1.4-4.7-2-9.6-2-14.4c0-2.6,0.1-5.3,0.8-7.9C307.4,186.2,307.8,185.1,308.2,184.1z"/>
		<path class="st5" d="M308.2,184.1c0.2-0.4,0.4-1,0.8-1.4l2.7-136.2c-43.5-20.8-116.8-18.1-152,7.3C124.9,27.6,52.1,25.4,8,46.5
			l2.6,136.4c0.3,0.3,0.6,0.8,0.7,0.9c0.3,0.5,0.7,1.1,0.9,1.8c0.4,1.3,0.6,2.6,0.8,4c0.3,2.7,0.5,5.5,0.5,8.3
			c-0.1,4.1-0.6,8.1-2,11.9c3-2.4,33.4-25.4,92.7-18c18.9,2.3,31.5,6,40.7,9.6c0.4-1.9,1.1-3.6,1.6-5.5c0.3-1.2,0.6-2.4,1.1-3.5
			c0.5-1.1,1.2-2.1,2-3c1.6-1.8,3.6-3.5,5.8-4.5c2.1-0.9,4.3-0.9,6.5-0.5c2.2,0.4,4.6,1.1,6.3,2.6c1,0.8,1.8,1.8,2.5,2.8
			c0.7,0.9,1.5,1.9,2.1,2.9c1.1,2,1.7,4.2,2,6.5c0.1,0.7,0.2,1.4,0.3,2.1c9.1-3.5,21.8-7.2,40.6-9.5c60.2-7.5,90.7,16.3,92.7,17.9
			c-1.4-4.7-2-9.6-2-14.4c0-2.6,0.1-5.3,0.8-7.9C307.4,186.2,307.8,185.1,308.2,184.1z"/>
		<path class="st6" d="M307.1,187.3c0.3-1.1,0.6-2.2,1.1-3.2c0.1-0.3,0.3-0.6,0.4-0.9c-1.8,1-3.6,2.2-5.6,2.5c0.9,1,2.3,1.4,3.2,2.5
			c0,0.1,0,0.2-0.1,0.2c-2.8,0-5.6-1-8.5-0.4c1.3,0.9,2.8,1.5,4.1,2.4c1.2,0.8,2.3,1.8,2.6,3.2c0,0.1,0,0.1-0.1,0.1
			c-1.8-0.5-3.6-1.1-5.4-1.6c-15.6-4.5-31.7-8.6-48.1-8.2c0,0,0.1,0,0.1,0c12.4,3.2,26.7,2.4,37.4,10.5c0.1,0.1,0,0.2-0.1,0.2
			c-1.8-0.5-3.6-1-5.4-1.5c-3.9-1.2-7.8-2.5-11.7-3.5c-3.9-1.1-7.9-1.8-11.9-2.3c-8.1-1.1-16.3-1.4-24.5-1.3c-8,0.1-16.1,0.6-24,1.8
			c-7.8,1.1-15.5,2.8-23.1,5.1c-0.1,0-0.2-0.1-0.1-0.2c3-2.9,7-4.3,10.7-5.8c4-1.6,7.9-3.4,12.1-4.3c-7,0.5-13.7,3.1-20.6,4.4
			c-0.1,0-0.2-0.1-0.1-0.2c0,0,0,0,0,0h0c1.2-0.5,2.5-1,3.8-1.5c7.4-2.9,15-5.3,22.7-7c7.7-1.6,15.5-2.4,23.4-2.4
			c8.2-0.1,16.3,0.3,24.4,1.4c2,0.3,3.9,0.6,5.9,0.9c1.7,0.2,3.4,0.4,5.1,0.7c1.6,0.3,3.2,0.6,4.8,1c-11.1-4.2-23.1-5.9-34.9-6.9
			c-8-0.7-15.9-1-23.9-0.4c-8.3,0.6-16.5,1.8-24.7,3.4c-0.1,0-0.2-0.1-0.1-0.2c2.7-1.9,5.8-3.1,9-3.9c3.4-0.9,6.9-1.7,10.4-2.3
			c3.9-0.7,7.7-1.2,11.7-1.4c3.4-0.2,6.9,0.4,10.2-0.5c-2.9-0.7-5.8-0.9-8.8-0.8c-7.1,0.2-14.1,1.7-21.1,2.9
			c-8,1.3-15.8,3.7-23.3,6.7c-0.1,0-0.2-0.1-0.1-0.2c1.3-0.8,2.6-1.5,3.9-2.2c12.2-6.4,26-9.6,39.7-10.6c6.9-0.5,13.9-0.4,20.8,0.2
			c7,0.7,14,1.9,20.8,3.4c13.7,3,27.4,7.3,39.6,14.4l0.8-40.5H9.9l0.8,42.3c0,0,0,0,0.1,0.1c1.1-0.8,2.3-1.5,3.5-2.2
			c12.5-7.5,27-10.9,41.3-12.9c13.9-1.9,28-2.5,42-1.2c13.7,1.3,27.7,4.5,39.6,11.6c0.1,0.1,0,0.2-0.1,0.2c-6.5-2-13.2-3.7-19.9-4.4
			c-4.9-0.5-9.9-0.7-14.8-1.1c6.3,1.1,12.4,2.8,18.6,4.5c7,1.9,14.3,3.8,20.5,7.9c0.1,0.1,0,0.2-0.1,0.2c-2.9-1.7-6.2-2.7-9.5-3.3
			c-3.4-0.7-6.8-1.3-10.1-1.9c-8.7-1.7-17.4-3.4-26.2-4.2c-7.6-0.7-15.3-0.9-23-0.7c-14.8,0.5-29.9,2.8-43.2,9.6
			c2.7-0.5,5.4-1.2,8.1-2c4-1.1,8-2.4,12.1-3.2c4.1-0.8,8.3-1.2,12.4-1.5c8.4-0.5,16.9-0.5,25.3-0.4c15.6,0.3,31.5,2.5,45.8,9
			c0.1,0,0,0.2-0.1,0.2c-13.2-3.7-26.9-6.2-40.6-7c-15-0.9-30.8-1-45.1,4.4c8.9-1.6,17.9-2,26.9-1.8c4.1,0.1,8.3,0.3,12.4,0.4
			c3.8,0.1,7.5,0.3,11.3,0.6c7.4,0.6,14.8,1.8,21.6,4.7c0.1,0,0,0.2,0,0.2c-0.4-0.1-0.9-0.1-1.3-0.2c-8.5-1.1-17-2.2-25.5-2.7
			c-8.4-0.5-16.9-0.3-25.3,0.7c-16.2,2-31.9,6.9-47,13c-0.1,0-0.2-0.1-0.1-0.2c4.3-3.1,9-5.7,13.9-7.8c-5.3,1.1-10.1,3.9-15.4,4.8
			c-0.1,0-0.2-0.1-0.1-0.2c2.6-2.1,5.8-3.4,8.1-5.9c-3.2,0.4-6.3,1.8-9.5,1.4c-0.1,0-0.1-0.1-0.1-0.1c0.6-1.6,1.7-3,2.3-4.6
			c-1.5,0.5-3.1,0.8-4.6,1.3c-0.6,0.2-1.2,0.4-1.8,0.6c0,0.3,0.1,0.6,0.1,0.9c0.3,2.7,0.5,5.5,0.5,8.3c-0.1,4.1-0.6,8.1-2,11.9
			c3-2.4,33.4-25.4,92.7-18c18.9,2.3,31.5,6,40.7,9.6c0.4-1.9,1.1-3.6,1.6-5.5c0.3-1.2,0.6-2.4,1.1-3.5c0.5-1.1,1.2-2.1,2-3
			c1.6-1.8,3.6-3.5,5.8-4.5c2.1-0.9,4.3-0.9,6.5-0.5c2.2,0.4,4.6,1.1,6.3,2.6c1,0.8,1.8,1.8,2.5,2.8c0.7,0.9,1.5,1.9,2.1,2.9
			c1.1,2,1.7,4.2,2,6.5c0.1,0.7,0.2,1.4,0.3,2.1c9.1-3.5,21.8-7.2,40.6-9.5c60.2-7.5,90.7,16.3,92.7,17.9c-1.4-4.7-2-9.6-2-14.4
			C306.4,192.5,306.5,189.9,307.1,187.3z"/>
		<path class="st7" d="M145.2,202.2c0.4,0.1,0.7,0.1,1-0.1c1.1-9.5,6.9-16.7,13.9-16.7c7,0,12.8,7.2,13.9,16.6
			c0.7,0.3,1.7-0.4,2.2-1.2c-1.6-10.4-8.2-18.2-16.1-18.2c-8,0-14.6,7.9-16.2,18.5C144.2,201.6,144.7,202,145.2,202.2z"/>
		<g>
			<path class="st4" d="M31.1,195.2c0,0,58.2-22.4,112.6,2.4C143.6,197.6,103.4,176.1,31.1,195.2z"/>
			<path class="st4" d="M22,193.9c0,0,39.7-18.7,84.1-11.1C106.1,182.8,61.7,178.9,22,193.9z"/>
			<path class="st4" d="M50.6,178.9c0,0,53-12.9,95.2,10.9C145.8,189.8,109.6,171.7,50.6,178.9z"/>
			<path class="st4" d="M15.7,182.3c0,0,35.3-22.5,88.3-12.9C104,169.3,55.3,163.4,15.7,182.3z"/>
			<path class="st4" d="M112.7,169.5c0,0,24.9,5.5,39.5,14.8C152.3,184.3,124.9,172.5,112.7,169.5z"/>
			<path class="st4" d="M88.9,171c0,0,34.9,0,60.4,16.3C149.3,187.3,126.8,175.1,88.9,171z"/>
			<path class="st4" d="M48.8,176.2c0,0-24.6,5.2-33.3,11.6C15.5,187.8,34.4,181,48.8,176.2z"/>
		</g>
		<g>
			<path class="st4" d="M290,195.2c0,0-58.2-22.4-112.6,2.4C177.4,197.6,217.7,176.1,290,195.2z"/>
			<path class="st4" d="M299.1,193.9c0,0-39.7-18.7-84.1-11.1C215,182.8,259.3,178.9,299.1,193.9z"/>
			<path class="st4" d="M270.4,178.9c0,0-53-12.9-95.2,10.9C175.3,189.8,211.5,171.7,270.4,178.9z"/>
			<path class="st4" d="M305.3,182.3c0,0-35.3-22.5-88.3-12.9C217,169.3,265.8,163.4,305.3,182.3z"/>
			<path class="st4" d="M208.3,169.5c0,0-24.9,5.5-39.5,14.8C168.8,184.3,196.1,172.5,208.3,169.5z"/>
			<path class="st4" d="M232.2,171c0,0-34.9,0-60.4,16.3C171.8,187.3,194.3,175.1,232.2,171z"/>
			<path class="st4" d="M272.3,176.2c0,0,24.6,5.2,33.3,11.6C305.5,187.8,286.7,181,272.3,176.2z"/>
		</g>
	</g>
	<g>
		<g>
			<path class="st8" d="M8,19.5C52.1-1.6,125.2,0.6,159.8,26.9v154.2c-9.6-4.6-23.6-12.4-55.7-16.4c-62.5-7.8-93.5,18.1-93.5,18.1
				L8,19.5z"/>
			<path class="st4" d="M8,19.5l2.6,163.3c0,0,31-25.9,93.5-18.1c32.1,4,46.2,11.8,55.7,16.4V26.9C125.2,0.6,52.1-1.6,8,19.5z
				 M148.5,165.9c-5.6-2.5-11.5-4.4-17.6-5.7c-19.2-4.2-39.1-3.6-58.6-2.2c-10.4,0.7-20.8,2-30.9,4.6c-2.3,0.6-4.7,1.1-6.9,2
				c-2.2,0.8-4.4,1.8-6.6,2.9c-3.9,1.9-7.8,3.9-12,4.8c-0.1,0-0.2-0.1-0.1-0.2c5.1-4.8,10.9-8.7,16.8-12.5c-5.2,1.7-10.3,3.6-15.2,6
				c-0.1,0-0.2,0-0.1-0.1c2.3-4.5,0.3-24.9,0-29.9c0-0.2,0-0.4,0-0.6c-0.2-5.4-0.6-10.7-0.9-16.1c-0.3-5.4-0.5-10.9-0.7-16.3
				c-0.4-10.9-3.1-57.9-2.9-63c0.1-3.6,0.2-7.9,3.1-10.5c2.5-2.3,5.9-3.4,8.9-5.1c-3,0.1-9,0.2-8.9,0.2c1.4-1.1,15.7-10.2,22-11.7
				c3.5-0.9,7.1-1.6,10.6-2.5c4.5-1.1,39.3-2.3,44.4-1.2c5.1,1.1,10.2,2.5,15.4,3.4c3.9,0.7,7.8,1.4,11.7,2.4c3.9,1,7.9,2.2,11.5,4
				c3.4,1.6,7,3.7,9.5,6.6c2.5,2.9,3.3,6.8,3.5,10.5c0.1,2,0.1,4,0.1,6c0,0.1,0,0.3,0,0.4c0,2.4,0,82.8-0.3,88.2
				c-0.1,2.6-0.2,5.2-0.4,7.7c-0.1,1.4-0.3,2.9-0.7,4.3c-0.5,1.7-1.6,2.9-3.3,3.5c-2.5,0.9-5.1,1.4-7.6,2.3
				c4.9,1.5,10.4,2.9,13.5,7.4c0,0.1,0,0.2-0.1,0.1c-3.3-0.9-6.7-1.3-10.1-1.1c-0.4,0-0.8,0.1-1.3,0.1c-0.3,0-1,0.3-1.3,0.1
				c0.5,0.3,1.1,0.6,1.6,0.8c1.1,0.5,2.1,1,3.2,1.6c4.1,2,8.6,4.4,10.9,8.6C148.7,165.9,148.6,165.9,148.5,165.9z"/>
			<path class="st4" d="M144.1,17.6c0.7,0.5,1.4,1,2.1,1.6c2.9,2.3,5.2,5.1,6.5,8.6c1.3,3.6,1.6,7.5,1.8,11.3
				c0.2,4.6,0.3,9.1,0.4,13.7c0.3,21.3-1,103.2-1.1,107.8c-0.1,3.5-0.4,9.1-4.1,10.8c-2.1,1-4.4,0.5-6.5-0.3
				c-3.8-1.4-16.5-4.6-19-4.7c-2.7-0.2-5.4-0.3-8-0.4c-1.3-0.1-2.5-0.1-3.8-0.2c26.4,4.2,38.8,11,47.5,15.2V26.9
				C155.2,23.4,149.9,20.3,144.1,17.6z"/>
			<path class="st9" d="M101.6,15.8c-2.7-0.5-5.4-1.2-8.1-1.7c-2.9-0.6-5.8-1-8.7-1.4c-5.9-0.8-11.8-1.1-17.7-0.8
				c-0.4,0-0.7,0-1.1,0.1c-0.5,0.1-1,0.1-1.5,0.1c-2.1,0.2-4.2,0.5-6.3,0.9c-2.9,0.5-5.7,1.1-8.6,1.7c-2.3,0.6-4.6,1.2-6.8,1.9
				c-0.1,0.1-0.2,0.1-0.3,0.2c-1.3,0.7-2.6,1.3-4,1.7c-0.2,0.1-0.4,0.2-0.5,0.4c-0.8,0.3-1.7,0.6-2.5,1c-1,0.4-2.1,0.9-3.1,1.3
				c-1.2,0.8-2.4,1.6-3.5,2.4c-0.7,0.5-1.5,1-2.2,1.4c0,0.1,0.1,0.2,0.3,0.2c0.5,0,1-0.3,1.6-0.5c0.7-0.3,1.4-0.3,2.1-0.5
				c1.8-0.4,3.6-0.9,5.5-0.9c0.6,0,1.3-0.2,1.9-0.3C38.5,23,39.3,23,40,23c0.2,0,0.5,0,0.8,0c-1.5,0.3-3,0.7-4.5,1.2
				c-2.5,0.9-5,1.9-7.3,3.2c-1.8,1-3.7,2.1-4.8,3.9c-1.2,2-0.8,4.6-1,6.8c0,0.3,0,0.5-0.1,0.8c0,1.4,0.1,2.8,0.3,4.2
				c0.3,2.5,0.8,5.1,1.2,7.6c0.4,2.3,0.6,4.6,0.7,6.9c0.6,8.6,1.5,17.3,2,25.9c0.6,8.8,0.9,17.6,1.2,26.4c0.2,8.8,0.5,17.7,0.7,26.5
				c0.1,4.2,0,8.5-0.8,12.7c-0.4,2.1-1,4.1-1.4,6.1c-0.3,1.1-0.5,2.2-0.6,3.4c0,0.3-0.1,0.5-0.1,0.8c0.4,0.4,1,0.4,1.6,0.2
				c0.5-0.1,0.9-0.4,1.5-0.5c0.6,0,1.3-0.2,1.9-0.4c1.5-0.4,3-0.6,4.5-0.9c0.9-0.1,1.8-0.3,2.8-0.5c-1.8,0.8-3.6,1.9-5.1,3.4
				c-0.1,0.1-0.6,0.8-0.4,1c-0.5,0.6-1,1.1-1.5,1.7c-0.1,0.1-0.7,0.9-0.2,1c0,0,0.1,0,0.1,0c0.3-0.2,0.7-0.4,1-0.6
				c4-2.2,8.5-3.3,12.9-4.1c0.8-0.2,1.7-0.3,2.5-0.4c1.2-0.3,2.4-0.7,3.6-0.9c2-0.4,4-0.6,6-0.8c1.9-0.2,3.9-0.4,5.8-0.6
				c1.2-0.1,2.5-0.3,3.7-0.3c0.5-0.1,1.1-0.1,1.6-0.2c1.9-0.2,3.7-0.3,5.6-0.5c0.2-0.3,0.4-0.6,0.1-0.8c-1.4-0.9-3.3-0.8-4.9-0.8
				c-1.1,0-2.3-0.3-3.4-0.3c-1.2-0.1-2.5-0.1-3.7-0.1c-2.3,0-4.6-0.2-6.9-0.3c-2.1-0.1-4.1,0-6.2-0.3c0.4-0.2,0.9-0.4,1.3-0.6
				c0.8-0.4,1.5-1,2.1-1.8c1-1.4,0.2-2.5-1.1-3.2c-1.2-0.6-2.6-1-4-1.2c-1.6-0.2-3.5-0.3-4.8-1.5c-0.7-0.7-0.9-1.9-1.1-2.9
				c-0.1-0.7-0.1-1.4-0.1-2c0-0.8-0.2-1.6-0.3-2.4c-0.4-2.9-0.6-5.8-1-8.7c-0.3-3-0.4-6-0.4-9.1c0-3-0.1-5.9-0.4-8.9
				c-0.5-6.2-1.1-12.4-1.4-18.6C37.9,86.5,38,80.4,38,74.3c0-3,0-6.1,0-9.1c0-3-0.4-6-0.4-9.1c0-6.1,0.2-12.2-0.2-18.3
				c-0.1-1.3-0.4-2.8,0.1-4c0.4-0.9,1.5-1.5,2.3-2c2.4-1.4,4.8-2.8,7.2-4.1c1.5-0.8,3-1.5,4.5-2.1c1.4-0.5,2.8-0.8,4.2-1.3
				c1-0.4,2-0.7,3.1-0.9c0.9-0.2,1.7-0.6,2.2-1.4c0.1-0.2,0.3-0.6,0.1-0.7c-0.9-0.8-2-0.8-3.1-1.2c-1.2-0.4-2.5-0.4-3.7-0.4
				c-1.2,0-2.4,0-3.6,0.2C50,20,49.4,20.1,48.6,20c0,0-0.1,0-0.1,0c3.2-1.6,6.6-2.7,10.1-3.3c2.5-0.5,4.8-1.2,7.3-1.6
				c2.5-0.4,5.1-0.7,7.7-0.8c2.5-0.1,5-0.1,7.5-0.1c2.5,0,5.1,0,7.6,0.2c2.4,0.2,4.8,0.6,7.1,0.8c1.9,0.2,3.8,0.5,5.7,0.8
				c0.3,0.1,0.5,0.1,0.8,0.2c0.1,0,0.2-0.1,0.3-0.1C102.3,16,101.9,15.9,101.6,15.8z"/>
		</g>
		<g>
			<path class="st8" d="M159.9,26.9v154.2c9.6-4.6,23.6-12.4,55.7-16.4c62.5-7.8,93.5,18.1,93.5,18.1l2.6-163.3
				C267.6-1.6,194.5,0.6,159.9,26.9z"/>
			<path class="st4" d="M159.9,26.9v154.2c9.6-4.6,23.6-12.4,55.7-16.4c62.5-7.8,93.5,18.1,93.5,18.1l2.6-163.3
				C267.6-1.6,194.5,0.6,159.9,26.9z M304.3,136.1c-0.2,3.8-0.4,7.6-0.5,11.3c-0.1,3-0.2,6-0.7,8.9c-0.5,2.6-1.2,5.4-3.1,7.4
				c-2.2,2.3-5.4,2.8-8.5,2.6c-4.1-0.3-8.1-1.7-12-3c-4.3-1.4-8.6-2.3-13-3.1c-10.1-1.8-20.3-3-30.6-3.3
				c-10.3-0.3-20.5,0.3-30.7,1.7c-4.9,0.7-9.8,1.3-14.6,2.4c-2.3,0.5-4.6,1.1-7,1.6c-2.7,1.1-5.4,2.2-8.2,2.9c-0.1,0-0.1,0-0.1-0.1
				c1-4.7,5.2-8.3,8.9-11.2c-2.9,0.6-5.8,1.6-8.5,3c-0.1,0-0.2-0.1-0.1-0.1c2.8-2.8,5.8-5.7,9.5-7.1c-4.2,0.8-8.1,1.9-11.6,4.5
				c-0.1,0-0.1,0-0.1-0.1c-0.3-10.5,0.1-20.9,0-31.4c-0.2-20.6-1.3-41.1-0.8-61.7c0.2-7.8-0.3-25.6-0.3-26.6c0-3.4,0.1-7.2,2.1-10
				c7.7-10.8,40.4-16.2,44.9-16.7c5-0.6,10.1-0.9,15.1-0.8c9.9,0,19.8,1.1,29.5,2.7c7.2,1.2,14.5,2.3,21.5,4.6
				c5.7,1.9,12.4,4.6,15.8,9.9c0,0.1,0,0.1-0.1,0.1c-2.6,0.2-5.2,0-7.8,0.5c2.3,1.6,5.2,2.3,7.3,4.3c0.1,0.1,0,0.2-0.1,0.2
				c-7.2-1.6-14.6-1.1-21.9-0.9c4.3,0.8,8.6,1.2,12.8,2.3c3.2,0.8,6.5,2,9,4.1c1.2,1,2.4,2.2,2.9,3.7c0.6,1.6,0.6,3.3,0.6,5
				c-0.1,10.1,0,20.2,0.4,30.2C305.2,94.6,305.2,115.4,304.3,136.1z"/>
			<path class="st4" d="M164.5,178.5c-1.6-1.9-2.2-4.5-2.5-7c-0.6-5.1-3-124,1.7-139.4c1-3.3,2.1-6.6,4.1-9.4
				c0.5-0.6,0.9-1.3,1.4-1.9c-3.4,1.9-6.5,3.9-9.4,6.1v154.2c1.5-0.7,3.1-1.5,4.8-2.3C164.6,178.7,164.6,178.6,164.5,178.5z"/>
			<path class="st9" d="M276.4,16c-0.6-0.7-1.4-1-2.3-1.2c-1.1-0.3-2.1-0.9-3.1-1.2c-2.6-0.9-5.3-1.8-8-2.5
				c-18.5-4.7-38.3-1.3-56.3,3.7c-2.3,0.6-4.5,1.5-6.7,2.4c-2.5,0.9-4.9,1.8-7.4,2.8c-2.4,1-4.6,2.2-6.9,3.5
				c-1.5,0.9-3.5,1.8-4.5,3.4c-0.1,0.2-0.3,0.6,0,0.7c1,0.4,2.4-0.2,3.3-0.5c2-0.6,4.1-0.8,6.1-1.1c2-0.3,4.2-0.3,6.3-0.3
				c1,0,1.9,0,2.9,0c0.2,0,0.5,0,0.8,0c-0.1,0-0.1,0-0.2,0.1c-0.5,0.2-1,0.4-1.4,0.6c-1.2,0.5-2.5,1-3.7,1.6c-1.9,1-4.2,1.9-5.8,3.4
				c-1.1,1.1-1.7,2.6-0.4,3.7c1.2,1,3.7,1.5,2.9,3.6c-0.9,2.4-1,5.1-1,7.6c0,2.9-0.3,5.8-0.4,8.8c-0.1,2.9,0,5.8-0.1,8.8
				c-0.1,2.9-0.2,5.9-0.2,8.8c0,2.9,0.2,5.8,0.3,8.7c0.1,3-0.1,5.9,0,8.9c0.2,3,0.1,6,0.1,9c0,2.9,0.2,5.7,0.3,8.6
				c0.2,2.9-0.2,5.7-0.2,8.6c0,3-0.1,6.1,0,9.1c0.1,5.9-0.2,11.8-0.2,17.7c0,1.4-0.1,2.9-0.1,4.3c0,1.3,0.2,2.6,1.8,2.5
				c0.8,0,1.6-0.2,2.4-0.4c1-0.3,2-0.8,3.1-1c0.6-0.1,1.3-0.4,2-0.5c-1.3,0.7-2.6,1.5-3.8,2.4c-0.7,0.5-1.5,0.9-2.2,1.4
				c-0.7,0.5-1.4,1-2.1,1.6c-1.2,1-2.5,2.1-3.9,2.9c-0.3,0.2-1.4,1.6-0.5,1.5c0.5-0.1,0.9-0.3,1.3-0.6c0.7-0.2,1.5-0.3,2.2-0.6
				c1.1-0.4,2.2-0.8,3.3-1.1c8.4-2.5,17.9-3.4,26.8-3.5c2.1,0,4.1-0.3,6.2-0.3c2.2,0,4.3-0.2,6.5-0.3c2.3-0.1,4.6,0,6.9,0
				c0.4,0,1.6-1.1,1.1-1.5c-0.7-0.5-1.5-0.8-2.3-1.1c-0.9-0.3-1.7-0.7-2.6-0.9c-2.2-0.5-4.4-1-6.7-1.2c-2.4-0.2-4.8-0.4-7.1-0.7
				c-1.1-0.1-2.2-0.2-3.2-0.3c-0.6-0.1-1.3-0.1-2-0.2c0.1,0,0.1-0.1,0.2-0.1c0.3-0.1,0.7-0.3,1-0.4c1.1-0.5,2.3-1.1,3.4-1.7
				c0.7-0.4,1.6-0.5,2.2-1.1c0.4-0.4,1.2-1.5,0.6-2.1c-0.6-0.5-1.5-0.6-2.2-0.7c-1.3-0.2-2.6-0.4-3.9-0.5c-1.3-0.1-2.5-0.3-3.8-0.6
				c-1.2-0.2-1.9-1.3-2.5-2.2c-1.3-2.1-2.1-4.2-2.4-6.6c-0.3-2.5-0.2-4.9-0.1-7.4c0.1-2.8-0.2-5.6-0.2-8.3c0-2.8,0.3-5.5,0.3-8.3
				c0-2.8,0-5.6,0-8.4c0.1-2.9,0.2-5.7,0.2-8.6V70.2c0-6.1-0.1-12.2,0.3-18.3c0.2-3,0.5-6,0.7-9.1c0.1-1.4,0.1-2.8,0.1-4.3
				c0-1.4,0.2-2.9,0.3-4.3c0.1-2.1,0.2-4.3,1.5-6c1.3-1.7,3.2-2.9,5-3.8c4-2.2,8.4-3.4,12.5-5.1c0.3-0.1,1.2-1.4,0.6-1.4
				c-2.7,0-5.4,0-8.1,0.2c-2.9,0.2-5.7,0.7-8.5,1.4c-1.4,0.3-2.8,0.7-4.2,1c-0.7,0.2-1.3,0.3-2,0.5c-0.7,0.2-1.5,0.2-2.2,0.5
				c-0.3,0.1-0.6,0.2-0.8,0.2c0.6-0.4,1.3-0.8,2-1.1c1.6-0.8,3.2-1.6,4.8-2.3c2.6-1.2,5.2-1.9,8-2.7c2.8-0.8,5.8-1.2,8.7-1.5
				c2.9-0.3,5.8-0.8,8.7-1c3.2-0.2,6.3,0.2,9.5,0.6c1.6,0.2,3.2,0.4,4.7,0.7c1.7,0.2,3.3,0.3,5,0.5c3.2,0.3,6.4,0.8,9.6,1.1
				c1.5,0.1,3.1,0.3,4.6,0.4c0.7,0.1,1.4,0.5,2.2,0.5c0.7,0.1,1.3,0.5,2,0.6C276,17.3,276.8,16.4,276.4,16z"/>
		</g>
	</g>
</g>
</svg>
