<?xml version="1.0" encoding="utf-8"?>
<!-- Generator: Adobe Illustrator 22.1.0, SVG Export Plug-In . SVG Version: 6.00 Build 0)  -->
<svg version="1.1" id="Layer_1" xmlns="http://www.w3.org/2000/svg" xmlns:xlink="http://www.w3.org/1999/xlink" x="0px" y="0px"
	 viewBox="0 0 321.3 359.4" style="enable-background:new 0 0 321.3 359.4;" xml:space="preserve">
<style type="text/css">
	.st0{fill:#2A2353;}
	.st1{fill:#59559D;}
	.st2{fill:#332D60;}
	.st3{fill:#47427E;}
	.st4{fill:#F6E1CC;}
	.st5{opacity:0.9;fill:#DE9E6C;}
	.st6{opacity:0.5;fill:#DE9E6C;}
	.st7{fill:#7D5DA7;}
	.st8{fill:#F6E7CF;}
	.st9{opacity:0.4;fill:#F6E1CC;}
</style>
<g>
	<g>
		<g>
			<path class="st0" d="M84.8,25.6l-2.5,8l51,146.1h82.1c0,0.3,0,0.6,0,0.9c0,0.3,0,0.6,0,0.9h-82.1l-51,146.1l2.5,8l175.4-3.7
				c0,0,4.3,0.7,3.9-4c-0.4-4.7-19.1-54.4-8.1-132.6c4.1-3.8,6.5-9.1,6.5-14.8c0-5.7-2.5-11-6.5-14.8C245,87.7,263.7,38,264.1,33.3
				c0.4-4.8-3.9-4-3.9-4L84.8,25.6z"/>
			<path class="st1" d="M82.3,25.6l-2.5,8l51,146.1h82.1c0,0.3,0,0.6,0,0.9c0,0.3,0,0.6,0,0.9h-82.1l-51,146.1l2.5,8l175.4-3.7
				c0,0,4.3,0.7,3.9-4c-0.4-4.7-19.1-54.4-8.1-132.6c4.1-3.8,6.5-9.1,6.5-14.8c0-5.7-2.5-11-6.5-14.8
				c-11.1-78.1,7.7-127.8,8.1-132.6c0.4-4.8-3.9-4-3.9-4L82.3,25.6z"/>
			<g>
				<path class="st1" d="M254.6,189.8c-1,1.9-1.9,3.9-2.7,6c0.1,0,0.2,0,0.3,0.1c0.4,0.1,0.8,0.1,1.2,0.2c0-0.2,0.1-0.4,0.1-0.6
					c3.8-3.6,6.3-8.5,6.5-13.8C258,184.2,256.2,186.9,254.6,189.8z"/>
				<path class="st1" d="M82.3,25.6l-2.5,8l51,146.1h82.1c0,0.3,0,0.6,0,0.9c0,0.3,0,0.6,0,0.9h-82.1l-51,146.1l0.3,0.9
					c15.6,0.6,31.3,0.4,46.9,0c28.8-0.7,57.5-2.2,86.3-1.5c14.4,0.4,28.7,1,43.1,0.6c0.3,0,2.9,0,2.8-0.3c-0.3-0.8-0.6-1.5-1-2.3
					c-0.7-1.2-1.5-2.4-2.2-3.6c-1.5-2.5-2.7-5.3-3.6-8.1c-1.9-6.2-2.4-12.7-3.4-19.1c-2.2-14-3.4-28.1-3.5-42.2
					c0-7.1,0.4-14.1,0.6-21.2c0.2-6.4,0.7-12.8,1.7-19.2c0.8-5.3,1.9-10.7,3.8-15.7c-1.8-0.3-3.7-0.8-5.3-1.7
					c-0.1-0.1,0-0.2,0.1-0.2c1.6,0.9,3.5,1.4,5.3,1.7c0.3-0.8,0.6-1.6,1-2.3c1.9-4.3,4.5-8.4,7.5-12.1c0-0.1,0-0.2,0-0.3
					c-2.5-4.2-4.6-8.7-6.5-13.2c-0.4-0.8-0.7-1.7-1-2.5c-1.7,0-3.4,0.1-5.1,0.3c-0.1,0-0.2-0.2,0-0.2c1.7-0.3,3.4-0.3,5.1-0.3
					c-0.5-1.3-1-2.7-1.5-4c-0.9-2.4-1.4-5-1.8-7.5c-0.9-4.9-1.4-9.9-1.8-14.8c-1.5-20.7-2.3-41.5,0.2-62.1
					c1.2-10.1,3.3-20.1,6.3-29.8c1.5-4.8,3.3-9.6,5.4-14.2c0.4-0.9,0.8-1.8,1.2-2.7c-1.2-0.9-2.8-0.6-2.8-0.6L82.3,25.6z"/>
				<path class="st1" d="M252.7,165.3c0.6,1.6,1.3,3.2,2,4.8c1.6,3.6,3.4,7.1,5.3,10.5c0-5.7-2.5-10.9-6.5-14.7
					c0-0.2-0.1-0.4-0.1-0.6C253.2,165.3,253,165.3,252.7,165.3z"/>
			</g>
			<path class="st2" d="M125.9,165.7l4.9,14.1h82.1c0,0.3,0,0.6,0,0.9c0,0.3,0,0.6,0,0.9h-82.1l-4.8,13.9h127.6
				c4-3.8,6.5-9,6.5-14.7c0-5.7-2.5-11-6.5-14.8c0-0.1,0-0.1,0-0.2H125.9z"/>
			<path class="st3" d="M128.6,173.5h130.1c-1.1-2.9-2.9-5.5-5.2-7.7c0-0.1,0-0.1,0-0.2H125.9L128.6,173.5z"/>
			<path class="st3" d="M128.6,187.8l-2.6,7.6h127.6c2.2-2.2,4-4.7,5.1-7.6H128.6z"/>
			<path class="st3" d="M256.3,172.7c1.5,4.2,1.8,8.7,0.7,13.1c-0.8,3.4-2.2,6.8-4.4,9.6h0.9c4-3.8,6.5-9,6.5-14.7
				c0-5.7-2.5-11-6.5-14.8c0-0.1,0-0.1,0-0.2h-1C254.1,167.8,255.5,170.2,256.3,172.7z"/>
		</g>
		<path class="st4" d="M234,32.1c-0.4-0.2-1-0.4-1.4-0.8L96.4,28.7c-20.8,43.5-18.1,116.8,7.3,152c-26.1,34.7-28.3,107.6-7.3,151.6
			l136.4-2.6c0.3-0.3,0.8-0.6,0.9-0.7c0.5-0.3,1.1-0.7,1.8-0.9c1.3-0.4,2.6-0.6,4-0.8c2.7-0.3,5.5-0.5,8.3-0.5
			c4.1,0.1,8.1,0.6,11.9,2c-2.4-3-25.4-33.4-18-92.7c2.3-18.9,6-31.5,9.6-40.7c-1.9-0.4-3.6-1.1-5.5-1.6c-1.2-0.3-2.4-0.6-3.5-1.1
			c-1.1-0.5-2.1-1.2-3-2c-1.8-1.6-3.5-3.6-4.5-5.8c-0.9-2.1-0.9-4.3-0.5-6.5c0.4-2.2,1.1-4.6,2.6-6.3c0.8-1,1.8-1.8,2.8-2.5
			c0.9-0.7,1.9-1.5,2.9-2.1c2-1.1,4.2-1.7,6.5-2c0.7-0.1,1.4-0.2,2.1-0.3c-3.5-9.1-7.2-21.8-9.5-40.6c-7.5-60.2,16.3-90.7,17.9-92.7
			c-4.7,1.4-9.6,2-14.4,2c-2.6,0-5.3-0.1-7.9-0.8C236.1,32.9,235.1,32.6,234,32.1z"/>
		<path class="st5" d="M234,32.1c-0.4-0.2-1-0.4-1.4-0.8L96.4,28.7c-20.8,43.5-18.1,116.8,7.3,152c-26.1,34.7-28.3,107.6-7.3,151.6
			l136.4-2.6c0.3-0.3,0.8-0.6,0.9-0.7c0.5-0.3,1.1-0.7,1.8-0.9c1.3-0.4,2.6-0.6,4-0.8c2.7-0.3,5.5-0.5,8.3-0.5
			c4.1,0.1,8.1,0.6,11.9,2c-2.4-3-25.4-33.4-18-92.7c2.3-18.9,6-31.5,9.6-40.7c-1.9-0.4-3.6-1.1-5.5-1.6c-1.2-0.3-2.4-0.6-3.5-1.1
			c-1.1-0.5-2.1-1.2-3-2c-1.8-1.6-3.5-3.6-4.5-5.8c-0.9-2.1-0.9-4.3-0.5-6.5c0.4-2.2,1.1-4.6,2.6-6.3c0.8-1,1.8-1.8,2.8-2.5
			c0.9-0.7,1.9-1.5,2.9-2.1c2-1.1,4.2-1.7,6.5-2c0.7-0.1,1.4-0.2,2.1-0.3c-3.5-9.1-7.2-21.8-9.5-40.6c-7.5-60.2,16.3-90.7,17.9-92.7
			c-4.7,1.4-9.6,2-14.4,2c-2.6,0-5.3-0.1-7.9-0.8C236.1,32.9,235.1,32.6,234,32.1z"/>
		<path class="st6" d="M237.2,33.2c-1.1-0.3-2.2-0.6-3.2-1.1c-0.3-0.1-0.6-0.3-0.9-0.4c1,1.8,2.2,3.6,2.5,5.6c1-0.9,1.4-2.3,2.5-3.2
			c0.1,0,0.2,0,0.2,0.1c0,2.8-1,5.6-0.4,8.5c0.9-1.3,1.5-2.8,2.4-4.1c0.8-1.2,1.8-2.3,3.2-2.6c0.1,0,0.1,0,0.1,0.1
			c-0.5,1.8-1.1,3.6-1.6,5.4c-4.5,15.6-8.6,31.7-8.2,48.1c0,0,0-0.1,0-0.1C237,77,236.2,62.7,244.3,52c0.1-0.1,0.2,0,0.2,0.1
			c-0.5,1.8-1,3.6-1.5,5.4c-1.2,3.9-2.5,7.8-3.5,11.7c-1.1,3.9-1.8,7.9-2.3,11.9c-1.1,8.1-1.4,16.3-1.3,24.5c0.1,8,0.6,16.1,1.8,24
			c1.1,7.8,2.8,15.5,5.1,23.1c0,0.1-0.1,0.2-0.2,0.1c-2.9-3-4.3-7-5.8-10.7c-1.6-4-3.4-7.9-4.3-12.1c0.5,7,3.1,13.7,4.4,20.6
			c0,0.1-0.1,0.2-0.2,0.1c0,0,0,0,0,0v0c-0.5-1.2-1-2.5-1.5-3.8c-2.9-7.4-5.3-15-7-22.7c-1.6-7.7-2.4-15.5-2.4-23.4
			c-0.1-8.2,0.3-16.3,1.4-24.4c0.3-2,0.6-3.9,0.9-5.9c0.2-1.7,0.4-3.4,0.7-5.1c0.3-1.6,0.6-3.2,1-4.8c-4.2,11.1-5.9,23.1-6.9,34.9
			c-0.7,8-1,15.9-0.4,23.9c0.6,8.3,1.8,16.5,3.4,24.7c0,0.1-0.1,0.2-0.2,0.1c-1.9-2.7-3.1-5.8-3.9-9c-0.9-3.4-1.7-6.9-2.3-10.4
			c-0.7-3.9-1.2-7.7-1.4-11.7c-0.2-3.4,0.4-6.9-0.5-10.2c-0.7,2.9-0.9,5.8-0.8,8.8c0.2,7.1,1.7,14.1,2.9,21.1
			c1.3,8,3.7,15.8,6.7,23.3c0,0.1-0.1,0.2-0.2,0.1c-0.8-1.3-1.5-2.6-2.2-3.9c-6.4-12.2-9.6-26-10.6-39.7c-0.5-6.9-0.4-13.9,0.2-20.8
			c0.7-7,1.9-14,3.4-20.8c3-13.7,7.3-27.4,14.4-39.6l-40.5-0.8v300l42.3-0.8c0,0,0,0,0.1-0.1c-0.8-1.1-1.5-2.3-2.2-3.5
			c-7.5-12.5-10.9-27-12.9-41.3c-1.9-13.9-2.5-28-1.2-42c1.3-13.7,4.5-27.7,11.6-39.6c0.1-0.1,0.2,0,0.2,0.1
			c-2,6.5-3.7,13.2-4.4,19.9c-0.5,4.9-0.7,9.9-1.1,14.8c1.1-6.3,2.8-12.4,4.5-18.6c1.9-7,3.8-14.3,7.9-20.5c0.1-0.1,0.2,0,0.2,0.1
			c-1.7,2.9-2.7,6.2-3.3,9.5c-0.7,3.4-1.3,6.8-1.9,10.1c-1.7,8.7-3.4,17.4-4.2,26.2c-0.7,7.6-0.9,15.3-0.7,23
			c0.5,14.8,2.8,29.9,9.6,43.2c-0.5-2.7-1.2-5.4-2-8.1c-1.1-4-2.4-8-3.2-12.1c-0.8-4.1-1.2-8.3-1.5-12.4c-0.5-8.4-0.5-16.9-0.4-25.3
			c0.3-15.6,2.5-31.5,9-45.8c0-0.1,0.2,0,0.2,0.1c-3.7,13.2-6.2,26.9-7,40.6c-0.9,15-1,30.8,4.4,45.1c-1.6-8.9-2-17.9-1.8-26.9
			c0.1-4.1,0.3-8.3,0.4-12.4c0.1-3.8,0.3-7.5,0.6-11.3c0.6-7.4,1.8-14.8,4.7-21.6c0-0.1,0.2,0,0.2,0c-0.1,0.4-0.1,0.9-0.2,1.3
			c-1.1,8.5-2.2,17-2.7,25.5c-0.5,8.4-0.3,16.9,0.7,25.3c2,16.2,6.9,31.9,13,47c0,0.1-0.1,0.2-0.2,0.1c-3.1-4.3-5.7-9-7.8-13.9
			c1.1,5.3,3.9,10.1,4.8,15.4c0,0.1-0.1,0.2-0.2,0.1c-2.1-2.6-3.4-5.8-5.9-8.1c0.4,3.2,1.8,6.3,1.4,9.5c0,0.1-0.1,0.1-0.1,0.1
			c-1.6-0.6-3-1.7-4.6-2.3c0.5,1.5,0.8,3.1,1.3,4.6c0.2,0.6,0.4,1.2,0.6,1.8c0.3,0,0.6-0.1,0.9-0.1c2.7-0.3,5.5-0.5,8.3-0.5
			c4.1,0.1,8.1,0.6,11.9,2c-2.4-3-25.4-33.4-18-92.7c2.3-18.9,6-31.5,9.6-40.7c-1.9-0.4-3.6-1.1-5.5-1.6c-1.2-0.3-2.4-0.6-3.5-1.1
			c-1.1-0.5-2.1-1.2-3-2c-1.8-1.6-3.5-3.6-4.5-5.8c-0.9-2.1-0.9-4.3-0.5-6.5c0.4-2.2,1.1-4.6,2.6-6.3c0.8-1,1.8-1.8,2.8-2.5
			c0.9-0.7,1.9-1.5,2.9-2.1c2-1.1,4.2-1.7,6.5-2c0.7-0.1,1.4-0.2,2.1-0.3c-3.5-9.1-7.2-21.8-9.5-40.6c-7.5-60.2,16.3-90.7,17.9-92.7
			c-4.7,1.4-9.6,2-14.4,2C242.5,33.9,239.8,33.8,237.2,33.2z"/>
		<path class="st7" d="M252.2,195.1c0.1-0.4,0.1-0.7-0.1-1c-9.5-1.1-16.7-6.9-16.7-13.9c0-7,7.2-12.8,16.6-13.9
			c0.3-0.7-0.4-1.7-1.2-2.2c-10.4,1.6-18.2,8.2-18.2,16.1c0,8,7.9,14.6,18.5,16.2C251.6,196.1,252,195.7,252.2,195.1z"/>
		<g>
			<path class="st4" d="M245.2,309.3c0,0-22.4-58.2,2.4-112.6C247.6,196.7,226,236.9,245.2,309.3z"/>
			<path class="st4" d="M243.9,318.3c0,0-18.7-39.7-11.1-84.1C232.8,234.3,228.9,278.6,243.9,318.3z"/>
			<path class="st4" d="M228.9,289.7c0,0-12.9-53,10.9-95.2C239.8,194.5,221.7,230.7,228.9,289.7z"/>
			<path class="st4" d="M232.2,324.6c0,0-22.5-35.3-12.9-88.3C219.3,236.3,213.4,285.1,232.2,324.6z"/>
			<path class="st4" d="M219.5,227.6c0,0,5.5-24.9,14.8-39.5C234.3,188.1,222.4,215.4,219.5,227.6z"/>
			<path class="st4" d="M221,251.4c0,0,0-34.9,16.3-60.4C237.2,191,225,213.6,221,251.4z"/>
			<path class="st4" d="M226.1,291.5c0,0,5.2,24.6,11.6,33.3C237.8,324.8,230.9,305.9,226.1,291.5z"/>
		</g>
		<g>
			<path class="st4" d="M245.2,50.3c0,0-22.4,58.2,2.4,112.6C247.6,162.9,226,122.7,245.2,50.3z"/>
			<path class="st4" d="M243.9,41.3c0,0-18.7,39.7-11.1,84.1C232.8,125.3,228.9,81,243.9,41.3z"/>
			<path class="st4" d="M228.9,69.9c0,0-12.9,53,10.9,95.2C239.8,165.1,221.7,128.9,228.9,69.9z"/>
			<path class="st4" d="M232.2,35c0,0-22.5,35.3-12.9,88.3C219.3,123.3,213.4,74.5,232.2,35z"/>
			<path class="st4" d="M219.5,132c0,0,5.5,24.9,14.8,39.5C234.3,171.5,222.4,144.2,219.5,132z"/>
			<path class="st4" d="M221,108.2c0,0,0,34.9,16.3,60.4C237.2,168.6,225,146,221,108.2z"/>
			<path class="st4" d="M226.1,68.1c0,0,5.2-24.6,11.6-33.3C237.8,34.8,230.9,53.7,226.1,68.1z"/>
		</g>
	</g>
	<g>
		<g>
			<path class="st8" d="M69.5,332.3c-21.1-44.1-18.8-117.1,7.4-151.8H231c-4.6,9.6-12.4,23.6-16.4,55.7
				c-7.8,62.5,18.1,93.5,18.1,93.5L69.5,332.3z"/>
			<path class="st4" d="M69.5,332.3l163.3-2.6c0,0-25.9-31-18.1-93.5c4-32.1,11.8-46.2,16.4-55.7H76.8
				C50.6,215.2,48.4,288.2,69.5,332.3z M215.9,191.8c-2.5,5.6-4.4,11.5-5.7,17.6c-4.2,19.2-3.6,39.1-2.2,58.6
				c0.7,10.4,2,20.8,4.6,30.9c0.6,2.3,1.1,4.7,2,6.9c0.8,2.2,1.8,4.4,2.9,6.6c1.9,3.9,3.9,7.8,4.8,12c0,0.1-0.1,0.2-0.2,0.1
				c-4.8-5.1-8.7-10.9-12.5-16.8c1.7,5.2,3.6,10.3,6,15.2c0,0.1,0,0.2-0.1,0.1c-4.5-2.3-24.9-0.3-29.9,0c-0.2,0-0.4,0-0.6,0
				c-5.4,0.2-10.7,0.6-16.1,0.9c-5.4,0.3-10.9,0.5-16.3,0.7c-10.9,0.4-57.9,3.1-63,2.9c-3.6-0.1-7.9-0.2-10.5-3.1
				c-2.3-2.5-3.4-5.9-5.1-8.9c0.1,3,0.2,9,0.2,8.9c-1.1-1.4-10.2-15.7-11.7-22c-0.9-3.5-1.6-7.1-2.5-10.6
				c-1.1-4.5-2.3-39.3-1.2-44.4c1.1-5.1,2.5-10.2,3.4-15.4c0.7-3.9,1.4-7.8,2.4-11.7c1-3.9,2.2-7.9,4-11.5c1.6-3.4,3.7-7,6.6-9.5
				c2.9-2.5,6.8-3.3,10.5-3.5c2-0.1,4-0.1,6-0.1c0.1,0,0.3,0,0.4,0c2.4,0,82.8,0,88.2,0.3c2.6,0.1,5.2,0.2,7.7,0.4
				c1.4,0.1,2.9,0.3,4.3,0.7c1.7,0.5,2.9,1.6,3.5,3.3c0.9,2.5,1.4,5.1,2.3,7.6c1.5-4.9,2.9-10.4,7.4-13.5c0.1,0,0.2,0,0.1,0.1
				c-0.9,3.3-1.3,6.7-1.1,10.1c0,0.4,0.1,0.8,0.1,1.3c0,0.3,0.3,1,0.1,1.3c0.3-0.5,0.6-1.1,0.8-1.6c0.5-1.1,1-2.1,1.6-3.2
				c2-4.1,4.4-8.6,8.6-10.9C215.8,191.6,215.9,191.7,215.9,191.8z"/>
			<path class="st4" d="M67.6,196.3c0.5-0.7,1-1.4,1.6-2.1c2.3-2.9,5.1-5.2,8.6-6.5c3.6-1.3,7.5-1.6,11.3-1.8
				c4.6-0.2,9.1-0.3,13.7-0.4c21.3-0.3,103.2,1,107.8,1.1c3.5,0.1,9.1,0.4,10.8,4.1c1,2.1,0.5,4.4-0.3,6.5c-1.4,3.8-4.6,16.5-4.7,19
				c-0.2,2.7-0.3,5.4-0.4,8c-0.1,1.3-0.1,2.5-0.2,3.8c4.2-26.4,11-38.8,15.2-47.5H76.8C73.3,185.1,70.3,190.4,67.6,196.3z"/>
			<path class="st9" d="M65.8,238.8c-0.5,2.7-1.2,5.4-1.7,8.1c-0.6,2.9-1,5.8-1.4,8.7c-0.8,5.9-1.1,11.8-0.8,17.7
				c0,0.4,0,0.7,0.1,1.1c0.1,0.5,0.1,1,0.1,1.5c0.2,2.1,0.5,4.2,0.9,6.3c0.5,2.9,1.1,5.7,1.7,8.6c0.6,2.3,1.2,4.6,1.9,6.8
				c0.1,0.1,0.1,0.2,0.2,0.3c0.7,1.3,1.3,2.6,1.7,4c0.1,0.2,0.2,0.4,0.4,0.5c0.3,0.8,0.6,1.7,1,2.5c0.4,1,0.9,2.1,1.3,3.1
				c0.8,1.2,1.6,2.4,2.4,3.5c0.5,0.7,1,1.5,1.4,2.2c0.1,0,0.2-0.1,0.2-0.3c0-0.5-0.3-1-0.5-1.6c-0.3-0.7-0.3-1.4-0.5-2.1
				c-0.4-1.8-0.9-3.6-0.9-5.5c0-0.6-0.2-1.3-0.3-1.9c-0.1-0.8-0.1-1.6-0.1-2.3c0-0.2,0-0.5,0-0.8c0.3,1.5,0.7,3,1.2,4.5
				c0.9,2.5,1.9,5,3.2,7.3c1,1.8,2.1,3.7,3.9,4.8c2,1.2,4.6,0.8,6.8,1c0.3,0,0.5,0,0.8,0.1c1.4,0,2.8-0.1,4.2-0.3
				c2.5-0.3,5.1-0.8,7.6-1.2c2.3-0.4,4.6-0.6,6.9-0.7c8.6-0.6,17.3-1.5,25.9-2c8.8-0.6,17.6-0.9,26.4-1.2c8.8-0.2,17.7-0.5,26.5-0.7
				c4.2-0.1,8.5,0,12.7,0.8c2.1,0.4,4.1,1,6.1,1.4c1.1,0.3,2.2,0.5,3.4,0.6c0.3,0,0.5,0.1,0.8,0.1c0.4-0.4,0.4-1,0.2-1.6
				c-0.1-0.5-0.4-0.9-0.5-1.5c0-0.6-0.2-1.3-0.4-1.9c-0.4-1.5-0.6-3-0.9-4.5c-0.1-0.9-0.3-1.8-0.5-2.8c0.8,1.8,1.9,3.6,3.4,5.1
				c0.1,0.1,0.8,0.6,1,0.4c0.6,0.5,1.1,1,1.7,1.5c0.1,0.1,0.9,0.7,1,0.2c0,0,0-0.1,0-0.1c-0.2-0.3-0.4-0.7-0.6-1
				c-2.2-4-3.3-8.5-4.1-12.9c-0.2-0.8-0.3-1.7-0.4-2.5c-0.3-1.2-0.7-2.4-0.9-3.6c-0.4-2-0.6-4-0.8-6c-0.2-1.9-0.4-3.9-0.6-5.8
				c-0.1-1.2-0.3-2.5-0.3-3.7c-0.1-0.5-0.1-1.1-0.2-1.6c-0.2-1.9-0.3-3.7-0.5-5.6c-0.3-0.2-0.6-0.4-0.8-0.1
				c-0.9,1.4-0.8,3.3-0.8,4.9c0,1.1-0.3,2.3-0.3,3.4c-0.1,1.2-0.1,2.5-0.1,3.7c0,2.3-0.2,4.6-0.3,6.9c-0.1,2.1,0,4.1-0.3,6.2
				c-0.2-0.4-0.4-0.9-0.6-1.3c-0.4-0.8-1-1.5-1.8-2.1c-1.4-1-2.5-0.2-3.2,1.1c-0.6,1.2-1,2.6-1.2,4c-0.2,1.6-0.3,3.5-1.5,4.8
				c-0.7,0.7-1.9,0.9-2.9,1.1c-0.7,0.1-1.4,0.1-2,0.1c-0.8,0-1.6,0.2-2.4,0.3c-2.9,0.4-5.8,0.6-8.7,1c-3,0.3-6,0.4-9.1,0.4
				c-3,0-5.9,0.1-8.9,0.4c-6.2,0.5-12.4,1.1-18.6,1.4c-6.1,0.3-12.2,0.2-18.3,0.2c-3,0-6.1,0-9.1,0c-3,0-6,0.4-9.1,0.4
				c-6.1,0-12.2-0.2-18.3,0.2c-1.3,0.1-2.8,0.4-4-0.1c-0.9-0.4-1.5-1.5-2-2.3c-1.4-2.4-2.8-4.8-4.1-7.2c-0.8-1.5-1.5-3-2.1-4.5
				c-0.5-1.4-0.8-2.8-1.3-4.2c-0.4-1-0.7-2-0.9-3.1c-0.2-0.9-0.6-1.7-1.4-2.2c-0.2-0.1-0.6-0.3-0.7-0.1c-0.8,0.9-0.8,2-1.2,3.1
				c-0.4,1.2-0.4,2.5-0.4,3.7c0,1.2,0,2.4,0.2,3.6c0.1,0.8,0.2,1.4,0.1,2.2c0,0,0,0.1,0,0.1c-1.6-3.2-2.7-6.6-3.3-10.1
				c-0.5-2.5-1.2-4.8-1.6-7.3c-0.4-2.5-0.7-5.1-0.8-7.7c-0.1-2.5-0.1-5-0.1-7.5c0-2.5,0-5.1,0.2-7.6c0.2-2.4,0.6-4.8,0.8-7.1
				c0.2-1.9,0.5-3.8,0.8-5.7c0.1-0.3,0.1-0.5,0.2-0.8c0-0.1-0.1-0.2-0.1-0.3C65.9,238,65.9,238.4,65.8,238.8z"/>
		</g>
		<g>
			<path class="st8" d="M76.8,180.5H231c-4.6-9.6-12.4-23.6-16.4-55.7c-7.8-62.5,18.1-93.5,18.1-93.5L69.5,28.7
				C48.4,72.8,50.6,145.8,76.8,180.5z"/>
			<path class="st4" d="M76.8,180.5H231c-4.6-9.6-12.4-23.6-16.4-55.7c-7.8-62.5,18.1-93.5,18.1-93.5L69.5,28.7
				C48.4,72.8,50.6,145.8,76.8,180.5z M186.1,36c3.8,0.2,7.6,0.4,11.3,0.5c3,0.1,6,0.2,8.9,0.7c2.6,0.5,5.4,1.2,7.4,3.1
				c2.3,2.2,2.8,5.4,2.6,8.5c-0.3,4.1-1.7,8.1-3,12c-1.4,4.3-2.3,8.6-3.1,13c-1.8,10.1-3,20.3-3.3,30.6c-0.3,10.3,0.3,20.5,1.7,30.7
				c0.7,4.9,1.3,9.8,2.4,14.6c0.5,2.3,1.1,4.6,1.6,7c1.1,2.7,2.2,5.4,2.9,8.2c0,0.1,0,0.1-0.1,0.1c-4.7-1-8.3-5.2-11.2-8.9
				c0.6,2.9,1.6,5.8,3,8.5c0,0.1-0.1,0.2-0.1,0.1c-2.8-2.8-5.7-5.8-7.1-9.5c0.8,4.2,1.9,8.1,4.5,11.6c0,0.1,0,0.1-0.1,0.1
				c-10.5,0.3-20.9-0.1-31.4,0c-20.6,0.2-41.1,1.3-61.7,0.8c-7.8-0.2-25.6,0.3-26.6,0.3c-3.4,0-7.2-0.1-10-2.1
				C63.9,158.1,58.5,125.4,58,121c-0.6-5-0.9-10.1-0.8-15.1c0-9.9,1.1-19.8,2.7-29.5c1.2-7.2,2.3-14.5,4.6-21.5
				c1.9-5.7,4.6-12.4,9.9-15.8c0.1,0,0.1,0,0.1,0.1c0.2,2.6,0,5.2,0.5,7.8c1.6-2.3,2.3-5.2,4.3-7.3c0.1-0.1,0.2,0,0.2,0.1
				c-1.6,7.2-1.1,14.6-0.9,21.9c0.8-4.3,1.2-8.6,2.3-12.8c0.8-3.2,2-6.5,4.1-9c1-1.2,2.2-2.4,3.7-2.9c1.6-0.6,3.3-0.6,5-0.6
				c10.1,0.1,20.2,0,30.2-0.4C144.6,35.1,165.4,35.2,186.1,36z"/>
			<path class="st4" d="M228.5,175.8c-1.9,1.6-4.5,2.2-7,2.5c-5.1,0.6-124,3-139.4-1.7c-3.3-1-6.6-2.1-9.4-4.1
				c-0.6-0.5-1.3-0.9-1.9-1.4c1.9,3.4,3.9,6.5,6.1,9.4H231c-0.7-1.5-1.5-3.1-2.3-4.8C228.6,175.7,228.6,175.8,228.5,175.8z"/>
			<path class="st9" d="M66,63.9c-0.7,0.6-1,1.4-1.2,2.3c-0.3,1.1-0.9,2.1-1.2,3.1c-0.9,2.6-1.8,5.3-2.5,8
				c-4.7,18.5-1.3,38.3,3.7,56.3c0.6,2.3,1.5,4.5,2.4,6.7c0.9,2.5,1.8,4.9,2.8,7.4c1,2.4,2.2,4.6,3.5,6.9c0.9,1.5,1.8,3.5,3.4,4.5
				c0.2,0.1,0.6,0.3,0.7,0c0.4-1-0.2-2.4-0.5-3.3c-0.6-2-0.8-4.1-1.1-6.1c-0.3-2-0.3-4.2-0.3-6.3c0-1,0-1.9,0-2.9c0-0.2,0-0.5,0-0.8
				c0,0.1,0,0.1,0.1,0.2c0.2,0.5,0.4,1,0.6,1.4c0.5,1.2,1,2.5,1.6,3.7c1,1.9,1.9,4.2,3.4,5.8c1.1,1.1,2.6,1.7,3.7,0.4
				c1-1.2,1.5-3.7,3.6-2.9c2.4,0.9,5.1,1,7.6,1c2.9,0,5.8,0.3,8.8,0.4c2.9,0.1,5.8,0,8.8,0.1c2.9,0.1,5.9,0.2,8.8,0.2
				c2.9,0,5.8-0.2,8.7-0.3c3-0.1,5.9,0.1,8.9,0c3-0.2,6-0.1,9-0.1c2.9,0,5.7-0.2,8.6-0.3c2.9-0.2,5.7,0.2,8.6,0.2c3,0,6.1,0.1,9.1,0
				c5.9-0.1,11.8,0.2,17.7,0.2c1.4,0,2.9,0.1,4.3,0.1c1.3,0,2.6-0.2,2.5-1.8c0-0.8-0.2-1.6-0.4-2.4c-0.3-1-0.8-2-1-3.1
				c-0.1-0.6-0.4-1.3-0.5-2c0.7,1.3,1.5,2.6,2.4,3.8c0.5,0.7,0.9,1.5,1.4,2.2c0.5,0.7,1,1.4,1.6,2.1c1,1.2,2.1,2.5,2.9,3.9
				c0.2,0.3,1.6,1.4,1.5,0.5c-0.1-0.5-0.3-0.9-0.6-1.3c-0.2-0.7-0.3-1.5-0.6-2.2c-0.4-1.1-0.8-2.2-1.1-3.3
				c-2.5-8.4-3.4-17.9-3.5-26.8c0-2.1-0.3-4.1-0.3-6.2c0-2.2-0.2-4.3-0.3-6.5c-0.1-2.3,0-4.6,0-6.9c0-0.4-1.1-1.6-1.5-1.1
				c-0.5,0.7-0.8,1.5-1.1,2.3c-0.3,0.9-0.7,1.7-0.9,2.6c-0.5,2.2-1,4.4-1.2,6.7c-0.2,2.4-0.4,4.8-0.7,7.1c-0.1,1.1-0.2,2.2-0.3,3.2
				c-0.1,0.6-0.1,1.3-0.2,2c0-0.1-0.1-0.1-0.1-0.2c-0.1-0.3-0.3-0.7-0.4-1c-0.5-1.1-1.1-2.3-1.7-3.4c-0.4-0.7-0.5-1.6-1.1-2.2
				c-0.4-0.4-1.5-1.2-2.1-0.6c-0.5,0.6-0.6,1.5-0.7,2.2c-0.2,1.3-0.4,2.6-0.5,3.9c-0.1,1.3-0.3,2.5-0.6,3.8
				c-0.2,1.2-1.3,1.9-2.2,2.5c-2.1,1.3-4.2,2.1-6.6,2.4c-2.5,0.3-4.9,0.2-7.4,0.1c-2.8-0.1-5.6,0.2-8.3,0.2c-2.8,0-5.5-0.3-8.3-0.3
				c-2.8,0-5.6,0-8.4,0c-2.9-0.1-5.7-0.2-8.6-0.2h-18.5c-6.1,0-12.2,0.1-18.3-0.3c-3-0.2-6-0.5-9.1-0.7c-1.4-0.1-2.8-0.1-4.3-0.1
				c-1.4,0-2.9-0.2-4.3-0.3c-2.1-0.1-4.3-0.2-6-1.5c-1.7-1.3-2.9-3.2-3.8-5c-2.2-4-3.4-8.4-5.1-12.5c-0.1-0.3-1.4-1.2-1.4-0.6
				c0,2.7,0,5.4,0.2,8.1c0.2,2.9,0.7,5.7,1.4,8.5c0.3,1.4,0.7,2.8,1,4.2c0.2,0.7,0.3,1.3,0.5,2c0.2,0.7,0.2,1.5,0.5,2.2
				c0.1,0.3,0.2,0.6,0.2,0.8c-0.4-0.6-0.8-1.3-1.1-2c-0.8-1.6-1.6-3.2-2.3-4.8c-1.2-2.6-1.9-5.2-2.7-8c-0.8-2.8-1.2-5.8-1.5-8.7
				c-0.3-2.9-0.8-5.8-1-8.7c-0.2-3.2,0.2-6.3,0.6-9.5c0.2-1.6,0.4-3.2,0.7-4.7c0.2-1.7,0.3-3.3,0.5-5c0.3-3.2,0.8-6.4,1.1-9.6
				c0.1-1.5,0.3-3.1,0.4-4.6c0.1-0.7,0.5-1.4,0.5-2.2c0.1-0.7,0.5-1.3,0.6-2C67.3,64.4,66.4,63.6,66,63.9z"/>
		</g>
	</g>
</g>
</svg>
