<?xml version="1.0" encoding="utf-8"?>
<!-- Generator: Adobe Illustrator 22.1.0, SVG Export Plug-In . SVG Version: 6.00 Build 0)  -->
<svg version="1.1" id="Capa_1" xmlns="http://www.w3.org/2000/svg" xmlns:xlink="http://www.w3.org/1999/xlink" x="0px" y="0px"
	 viewBox="0 0 400 454" style="enable-background:new 0 0 400 454;" xml:space="preserve">
<style type="text/css">
	.st0{fill:none;stroke:#C1BDBD;stroke-width:3;stroke-linecap:round;stroke-dasharray:10,10;}
	.st1{fill:#7100A7;}
	.st2{fill:#FFFFFF;}
	.st3{fill:none;stroke:#FFFFFF;stroke-width:2.4437;}
	.st4{fill:#EC3E5E;}
	.st5{fill:#908B92;}
</style>
<path class="st0" d="M284.2,79.1c44.2,0,79.4,35.3,79.4,78.8c0,43.5-35.3,78.8-78.8,78.8H119.2h0.2c-43.2,0.4-78.1,35.5-78.1,78.8
	c0,43.3,34.9,78.5,78.1,78.8h165.4l-0.4,0c44.2,0,43.9,0,43.9,0"/>
<path class="st1" d="M256.9,133.1c26.8,0,48.5-21.7,48.5-48.5s-21.7-48.5-48.5-48.5s-48.5,21.7-48.5,48.5S230.1,133.1,256.9,133.1z"
	/>
<path class="st2" d="M263.4,98.1h-5.8V75.8l-6.9,2.1v-4.7l12.1-4.3h0.6V98.1z"/>
<path class="st3" d="M294.3,84.6c0,20.7-16.8,37.5-37.5,37.5s-37.5-16.8-37.5-37.5s16.8-37.5,37.5-37.5S294.3,63.9,294.3,84.6z"/>
<path class="st4" d="M70.9,298.1c26.8,0,48.5-21.7,48.5-48.5s-21.7-48.5-48.5-48.5s-48.5,21.7-48.5,48.5S44.1,298.1,70.9,298.1z"/>
<path class="st3" d="M108.3,249.6c0,20.7-16.8,37.5-37.5,37.5c-20.7,0-37.5-16.8-37.5-37.5s16.8-37.5,37.5-37.5
	C91.5,212.1,108.3,228.9,108.3,249.6z"/>
<path class="st5" d="M70.9,298.1c26.8,0,48.5-21.7,48.5-48.5s-21.7-48.5-48.5-48.5s-48.5,21.7-48.5,48.5S44.1,298.1,70.9,298.1z"/>
<path class="st3" d="M108.3,249.6c0,20.7-16.8,37.5-37.5,37.5c-20.7,0-37.5-16.8-37.5-37.5s16.8-37.5,37.5-37.5
	C91.5,212.1,108.3,228.9,108.3,249.6z"/>
<path class="st2" d="M80.3,263.1h-20v-4l9.4-10.1c1.3-1.4,2.2-2.6,2.9-3.7c0.6-1.1,0.9-2.1,0.9-3c0-1.3-0.3-2.3-1-3
	c-0.7-0.7-1.6-1.1-2.8-1.1c-1.3,0-2.3,0.5-3.1,1.4c-0.7,0.9-1.1,2.1-1.1,3.5h-5.8c0-1.8,0.4-3.4,1.3-4.9c0.9-1.5,2.1-2.6,3.6-3.4
	c1.5-0.8,3.3-1.3,5.3-1.3c3,0,5.3,0.7,7,2.2c1.7,1.4,2.5,3.5,2.5,6.1c0,1.4-0.4,2.9-1.1,4.4c-0.7,1.5-2,3.2-3.8,5.2l-6.6,7h12.5
	V263.1z"/>
<path class="st5" d="M321.9,439.1c26.8,0,48.5-21.7,48.5-48.5s-21.7-48.5-48.5-48.5s-48.5,21.7-48.5,48.5S295.1,439.1,321.9,439.1z"
	/>
<path class="st2" d="M320.2,392.9h3.1c1.5,0,2.6-0.4,3.3-1.1c0.7-0.7,1.1-1.7,1.1-2.9c0-1.2-0.4-2.1-1.1-2.7c-0.7-0.7-1.7-1-2.9-1
	c-1.1,0-2,0.3-2.8,0.9c-0.7,0.6-1.1,1.4-1.1,2.4H314c0-1.5,0.4-2.9,1.2-4.1c0.8-1.2,2-2.2,3.4-2.8c1.5-0.7,3.1-1,4.9-1
	c3.1,0,5.5,0.7,7.2,2.2c1.7,1.5,2.6,3.5,2.6,6.1c0,1.3-0.4,2.6-1.2,3.7c-0.8,1.1-1.9,2-3.2,2.6c1.6,0.6,2.9,1.5,3.7,2.6
	c0.8,1.2,1.2,2.6,1.2,4.2c0,2.6-0.9,4.7-2.8,6.2c-1.9,1.6-4.4,2.3-7.5,2.3c-2.9,0-5.3-0.8-7.1-2.3c-1.8-1.5-2.8-3.6-2.8-6.1h5.8
	c0,1.1,0.4,2,1.2,2.7c0.8,0.7,1.8,1,3,1c1.4,0,2.4-0.4,3.2-1.1c0.8-0.7,1.2-1.7,1.2-2.9c0-2.9-1.6-4.4-4.8-4.4h-3.1V392.9z"/>
<path class="st3" d="M359.3,390.6c0,20.7-16.8,37.5-37.5,37.5s-37.5-16.8-37.5-37.5s16.8-37.5,37.5-37.5S359.3,369.9,359.3,390.6z"
	/>
</svg>
