<?xml version="1.0" encoding="utf-8"?>
<!-- Generator: Adobe Illustrator 22.1.0, SVG Export Plug-In . SVG Version: 6.00 Build 0)  -->
<svg version="1.1" id="Capa_1" xmlns="http://www.w3.org/2000/svg" xmlns:xlink="http://www.w3.org/1999/xlink" x="0px" y="0px"
	 viewBox="0 0 201 215" style="enable-background:new 0 0 201 215;" xml:space="preserve">
<style type="text/css">
	.st0{fill:#EAB64F;}
	.st1{fill:#5E5E54;}
	.st2{fill:#65E380;}
	.st3{fill:#D38E97;}
	.st4{fill:#F6E291;}
	.st5{fill:#E7B7B5;}
	.st6{fill:#924561;}
	.st7{fill:#FFFFFF;}
	.st8{fill:#D3D5D6;}
	.st9{fill:#D97C45;}
	.st10{fill:#6C3D1C;}
	.st11{fill:#A14545;}
</style>
<g>
	<g>
		<g>
			<g>
				<path class="st0" d="M77,55.2c2.1,0.3-0.2-1.9-2.8-2.5c-1.4-0.4,0.1-1.7,3.3-2c-0.3-1.3-0.5-2.6-0.6-3.9
					c-0.2-2.3-0.5-4.9,0.9-6.9c3.1-4.3,12.7,1,13-6.6c0.1-2.9-2.2-5.4-5.1-5.1c-1.8,0.2-7.6,4.7-8.7,1.7c-0.7-1.8,1.5-4.4,2.6-5.5
					c2.7-2.7,6.6-4.3,8-8.1c2.3-6.4-5.8-11.7-9.8-5.5c-1.5,2.3-1.5,5.4-3.1,7.7c-2.2,3.3-5.8,1.9-7.8-1c-1.6-2.3-3.1-4.4-5.3-6.2
					c-1.9-1.5-4.5-3.1-7-2.4c-4.8,1.3-4,7.3-1,9.8c1.6,1.3,3.9,1.6,5.5,3c1.2,1,2,3.2-0.3,3.4c-2.7,0.1-5.5-1.1-8.1-0.2
					c-3.4,1.1-3.4,6.1-0.2,7.5c5.1,2.2,10-3.5,15-1.4c4.1,1.8,2.7,8.6,2.8,12c0.2,5.6,1.3,10,1.9,12.1C72.4,54.8,74.6,54.9,77,55.2z
					"/>
			</g>
			<g>
				<path class="st0" d="M90.8,33.2c0.1-2.9-2.2-5.4-5.1-5.1c-1.8,0.2-7.6,4.7-8.7,1.7c-0.7-1.8,1.5-4.4,2.6-5.5
					c2.7-2.7,6.6-4.3,8-8.1c2.3-6.4-5.8-11.7-9.8-5.5c-0.2,0.3-0.3,0.6-0.5,0.9c1.9-3.8,7.2-3.9,8.9-0.9c1.9,3.3-0.9,6.7-5.5,9.5
					c-4.7,2.8-7.3,6.4-6,9.9c1.3,3.5,5.3,2.5,7.8,0.2c2.5-2.3,6.7-2.2,7.1,0.8c0.3,2.9-0.6,4.3-9,4.3c-7.3,0-3.9,9.1-7.1,10.2
					c-2,0.7-3.8-1-3-9.9c0.8-8.9-5.6-10.3-11-8c-5.4,2.3-9.8,3.9-10.3,0.7c-0.5-3.2,3-4,8.7-2.9c5.6,1.1,7.4-3.1,3.5-5.1
					c-4.9-2.5-9.9-5.2-8-8.8C55.5,7.9,60,10,60,10c-1.6-1-3.5-1.7-5.3-1.2c-4.8,1.3-4,7.3-1,9.8c1.6,1.3,3.9,1.6,5.5,3
					c1.2,1,2,3.2-0.3,3.4c-2.7,0.1-5.5-1.1-8.1-0.2c-3.4,1.1-3.4,6.1-0.2,7.5c5.1,2.2,10-3.5,15-1.4c4.1,1.8,2.7,8.6,2.8,12
					c0.2,5.6,1.3,10,1.9,12.1c2-0.1,4.1,0,6.6,0.3c2.1,0.3-0.2-1.9-2.8-2.5c-1.4-0.4,0.1-1.7,3.3-2c-0.3-1.3-0.5-2.6-0.6-3.9
					c-0.2-2.3-0.5-4.9,0.9-6.9C80.9,35.5,90.5,40.8,90.8,33.2z"/>
			</g>
			<path class="st1" d="M66.3,18.4c0,0-0.1-0.2-0.2-0.5c-0.2-0.3-0.3-0.8-0.6-1.3c-0.5-1-1.4-2.4-2.4-3.6c-0.5-0.6-1.1-1.2-1.6-1.6
				c-0.6-0.5-1.1-0.9-1.7-1.2c-1.1-0.6-1.9-0.7-2-0.5c0,0.2,0.6,0.5,1.6,1.1c0.5,0.3,1,0.7,1.6,1.1c0.5,0.5,1.1,1,1.6,1.5
				c1.1,1.1,2,2.3,2.7,3.3c0.3,0.5,0.6,0.9,0.8,1.2C66.2,18.2,66.3,18.4,66.3,18.4z"/>
			<path class="st1" d="M75.1,19.9C75.1,19.9,75.2,19.9,75.1,19.9c0.2-0.2,0.2-0.3,0.3-0.4c0.2-0.3,0.4-0.7,0.6-1.2
				c0.5-1,0.9-2.4,1.4-3.8c0.5-1.4,1.1-2.7,1.7-3.4c0.6-0.8,1.3-1,1.2-1.2c0-0.1-0.2-0.1-0.6,0c-0.3,0.1-0.8,0.4-1.2,0.8
				c-0.8,0.9-1.4,2.3-1.8,3.7c-0.4,1.4-0.7,2.9-1,3.9c-0.2,0.5-0.3,0.9-0.5,1.2c-0.1,0.1-0.1,0.2-0.2,0.3
				C75.2,19.9,75.1,19.9,75.1,19.9z"/>
		</g>
		<g>
			<g>
				<path class="st0" d="M116.3,54.2c3.2-1.5,8-1.6,11.7-1.1c0.1-0.6,0.1-1.1,0.2-1.6c0.3-2,1-4.3,1.6-6.3c0.5-1.8,1.7-3.7,3.7-4.1
					c2.4-0.5,4.8,0.3,7.2,0.3c2.8,0,5.8-1.5,7.1-4.1c0.8-1.6,0.8-4.1-0.8-5.3c-3.2-2.2-7.5,1.5-10.9,0.2c-0.9-0.3-1.6-1.5-1.3-2.4
					c0.7-1.8,3.3-2.3,4.9-2.8c1.6-0.5,3.3-0.7,4.8-1.3c2.2-0.9,4.5-1,6.2-3c1-1.2,1.4-2.7,1-4.2c-0.4-1.5-2.1-3.8-3.7-4.3
					c-6.1-2-11.4,8.8-17,5.3c-2.2-1.4-2.7-5.5-4.1-7.5c-1.7-2.4-4.6-4.1-7.5-2.4c-2.4,1.5-3.5,4.7-2.3,7.3c1.2,2.6,4.7,4.6,5.7,7.3
					c0.7,2,1.2,5.6-0.1,7.5c-1.4,1.9-4.5-1.4-6.3-1.4c-5.6,0.1-5.6,7.1-0.3,7.6c3.3,0.3,5,1.3,4.5,4.8c-0.2,1.5-0.7,3.1-1.4,4.5
					c0.8,0.1,1.7,0.2,2.6,0.3C124.3,48.2,116.3,54.2,116.3,54.2z"/>
			</g>
			<g>
				<path class="st0" d="M151.6,18.5c-0.4-1.5-2.1-3.8-3.7-4.3c-2.6-0.8-5.1,0.6-7.4,2.3c0,0,4.9-2.9,7.8-1.5
					c2.8,1.4,2.3,6.7-3.6,7.9c-6,1.3-11.6,3.1-12.5,7c-0.9,3.9,3.8,4.8,8.1,2.8c4.3-1.9,8-0.4,7.3,2.5c-0.7,2.9-1.9,3.7-8.9,3.1
					c-6.9-0.5-7.2,1.5-10,6.4c-2.7,4.7-7.5,3.2-6.3-0.9c1.2-3.8,0.7-6.7-2.8-7.1c-3.4-0.3-7.5-1.8-6.2-4.3c1.3-2.5,4.3-1.7,6.4-0.2
					c2.1,1.5,4.9,3,6.3-1.5c1.4-4.5-1-8.2-5.4-13.4c-4.3-5,0.7-8.4,1-8.6c-0.8,0-1.6,0.2-2.4,0.7c-2.4,1.5-3.5,4.7-2.3,7.3
					c1.2,2.6,4.7,4.6,5.7,7.3c0.7,2,1.2,5.6-0.1,7.5c-1.4,1.9-4.5-1.4-6.3-1.4c-5.6,0.1-5.6,7.1-0.3,7.6c3.3,0.3,5,1.3,4.5,4.8
					c-0.2,1.5-0.7,3.1-1.4,4.5c0.8,0.1,1.7,0.2,2.6,0.3c2.5,0.5-5.5,6.4-5.5,6.4c3.2-1.5,8-1.6,11.7-1.1c0.1-0.6,0.1-1.1,0.2-1.6
					c0.3-2,1-4.3,1.6-6.3c0.5-1.8,1.7-3.7,3.7-4.1c2.4-0.5,4.8,0.3,7.2,0.3c2.8,0,5.8-1.5,7.1-4.1c0.8-1.6,0.8-4.1-0.8-5.3
					c-3.2-2.2-7.5,1.5-10.9,0.2c-0.9-0.3-1.6-1.5-1.3-2.4c0.7-1.8,3.3-2.3,4.9-2.8c1.6-0.5,3.3-0.7,4.8-1.3c2.2-0.9,4.5-1,6.2-3
					C151.6,21.6,152,20,151.6,18.5z"/>
			</g>
			<path class="st1" d="M131.4,20.9c0,0-0.1,0-0.2-0.1c-0.1,0-0.3-0.1-0.4-0.2c-0.1-0.1-0.2-0.1-0.3-0.2c-0.1-0.1-0.2-0.2-0.3-0.3
				c-0.1-0.1-0.1-0.1-0.2-0.2c0-0.1-0.1-0.1-0.1-0.2c-0.1-0.1-0.2-0.3-0.3-0.4c-0.8-1.2-1.5-3-2.1-4.9c-0.3-0.9-0.7-1.9-1.3-2.7
				c-0.6-0.8-1.3-1.4-2-1.8c-0.7-0.4-1.4-0.4-1.8-0.4c-0.5,0-0.7,0.2-0.7,0.3c0,0.2,1,0.1,2.2,0.8c0.6,0.3,1.2,0.9,1.7,1.6
				c0.5,0.7,0.9,1.6,1.3,2.5c0.7,1.8,1.6,3.6,2.5,4.8c0.5,0.6,0.9,1,1.4,1.2c0.2,0.1,0.4,0.1,0.5,0.2
				C131.4,20.9,131.4,20.9,131.4,20.9z"/>
			<path class="st1" d="M134.1,21c0,0,0.1,0,0.2,0c0.1,0,0.1,0,0.2,0c0.1,0,0.2,0,0.3,0c0.4,0,1-0.2,1.6-0.6
				c1.2-0.7,2.7-1.8,4.3-2.8c0.8-0.5,1.6-0.9,2.4-1.3c0.8-0.3,1.5-0.5,2.2-0.6c1.3-0.2,2.2,0,2.3-0.2c0-0.1-0.2-0.2-0.6-0.4
				c-0.4-0.1-1-0.2-1.8-0.1c-0.7,0.1-1.6,0.3-2.4,0.7c-0.8,0.4-1.6,0.9-2.4,1.4c-1.5,1.1-2.9,2.3-4.1,3.1c-0.6,0.4-1.1,0.6-1.5,0.7
				c-0.1,0-0.2,0-0.3,0c-0.1,0-0.1,0-0.2,0C134.2,21,134.1,21,134.1,21z"/>
		</g>
	</g>
	<g>
		<g>
			<path class="st2" d="M49.2,160.5c0,0,0.1,21.8,5.5,37.4c1.9,4.9,16.8,4.5,24,3.5c7.2-1,5.8-5.3,5.6-11.7c-0.1-6.4,0.4-22,0.4-22
				L49.2,160.5z"/>
			<path class="st3" d="M68.8,178.1c-3.1,1.6-6,2.4-9.4,1.1c-2.6-1-4.3-3.3-5.6-5.6c-0.1-0.1-0.3,0.2-0.2,0.3c1.1,3.6,3,6.1,6.6,7.5
				c2.8,1.1,6.4-0.1,8.6-1.9C69.2,179.2,69.8,177.6,68.8,178.1z"/>
			<g>
				<path class="st0" d="M71.4,202.1c0.4-0.5,0.7-1,0.8-1.6c0.5-2,0-4.8-2.1-5.8c-3.7-1.7-5.9,1.9-6.1,5.3c-0.1,2.1,0.7,3.7,2.9,3.9
					C68.6,203.9,70.4,203.3,71.4,202.1z"/>
				<path class="st4" d="M69.7,199.5c0.2-0.3,0.4-0.6,0.5-1c0.3-1.2,0-3-1.3-3.5c-2.3-1-3.6,1.2-3.8,3.3c-0.1,1.3,0.4,2.3,1.8,2.4
					C68,200.6,69.1,200.3,69.7,199.5z"/>
				<path class="st0" d="M55.8,202.9c0,0,0.1-6.7,2.6-7.8c2.5-1.1,6.5,0.9,6.2,3.5c-0.2,2.6-0.5,4.8-4,5.5
					C57.1,204.9,55.9,204.2,55.8,202.9z"/>
				<path class="st4" d="M57,199.9c0,0,0.1-3.7,1.5-4.4c1.4-0.6,3.6,0.5,3.5,2c-0.1,1.5-0.3,2.7-2.3,3.1
					C57.8,201,57.1,200.7,57,199.9z"/>
				<path class="st0" d="M48.8,202c0,0,0.4-6.5,3.6-6.5c3.2,0,3.8,2.7,3.5,5.2c-0.3,2.5-0.8,3.3-3.6,3.6
					C49.5,204.7,48.8,203.9,48.8,202z"/>
				<path class="st4" d="M49.7,200.2c0,0,0.2-3.9,2.2-3.9c2,0,2.3,1.7,2.2,3.2c-0.2,1.5-0.5,2-2.2,2.2
					C50.2,201.9,49.7,201.4,49.7,200.2z"/>
			</g>
			<g>
				<path class="st3" d="M84.3,189.7c-0.1-6.4,0.4-22,0.4-22l-35.5-7.2c0,0,0,1.9,0.2,4.9c3,1.7,9.5,4.9,20.1,7.1
					c12.4,3.2,14.4,10.3,14.3,26.3C85,196.7,84.4,193.6,84.3,189.7z"/>
			</g>
		</g>
		<g>
			<path class="st2" d="M152.4,160.5c0,0-0.1,21.8-5.5,37.4c-1.9,4.9-16.8,4.5-24,3.5c-7.2-1-5.8-5.3-5.6-11.7
				c0.1-6.4-0.4-22-0.4-22L152.4,160.5z"/>
			<path class="st3" d="M132.8,178.1c3.1,1.6,6,2.4,9.4,1.1c2.6-1,4.3-3.3,5.6-5.6c0.1-0.1,0.3,0.2,0.2,0.3c-1.1,3.6-3,6.1-6.6,7.5
				c-2.8,1.1-6.4-0.1-8.6-1.9C132.4,179.2,131.8,177.6,132.8,178.1z"/>
			<g>
				<path class="st0" d="M130.2,202.1c-0.4-0.5-0.7-1-0.8-1.6c-0.5-2,0-4.8,2.1-5.8c3.7-1.7,5.9,1.9,6.1,5.3
					c0.1,2.1-0.7,3.7-2.9,3.9C133,203.9,131.2,203.3,130.2,202.1z"/>
				<path class="st4" d="M131.9,199.5c-0.2-0.3-0.4-0.6-0.5-1c-0.3-1.2,0-3,1.3-3.5c2.3-1,3.6,1.2,3.8,3.3c0.1,1.3-0.4,2.3-1.8,2.4
					C133.6,200.6,132.5,200.3,131.9,199.5z"/>
				<path class="st0" d="M145.8,202.9c0,0-0.1-6.7-2.6-7.8c-2.5-1.1-6.5,0.9-6.2,3.5c0.2,2.6,0.5,4.8,4,5.5
					C144.5,204.9,145.7,204.2,145.8,202.9z"/>
				<path class="st4" d="M144.6,199.9c0,0-0.1-3.7-1.5-4.4c-1.4-0.6-3.6,0.5-3.5,2c0.1,1.5,0.3,2.7,2.3,3.1
					C143.8,201,144.5,200.7,144.6,199.9z"/>
				<path class="st0" d="M152.8,202c0,0-0.4-6.5-3.6-6.5c-3.2,0-3.8,2.7-3.5,5.2c0.3,2.5,0.8,3.3,3.6,3.6
					C152.1,204.7,152.8,203.9,152.8,202z"/>
				<path class="st4" d="M151.9,200.2c0,0-0.2-3.9-2.2-3.9c-2,0-2.3,1.7-2.1,3.2c0.2,1.5,0.5,2,2.2,2.2
					C151.4,201.9,151.9,201.4,151.9,200.2z"/>
			</g>
			<g>
				<path class="st3" d="M117.3,189.7c0.1-6.4-0.4-22-0.4-22l35.5-7.2c0,0,0,1.9-0.2,4.9c-3,1.7-9.5,4.9-20.1,7.1
					c-12.4,3.2-14.4,10.3-14.3,26.3C116.6,196.7,117.2,193.6,117.3,189.7z"/>
			</g>
		</g>
		<g>
			<path class="st2" d="M41.1,80.3c0,0-9.1-5.8-9.3-19.1c0.2-8.5,4.2-13,8.3-13.4c-3.6-1.1-2.7-2.8,3.1-2.6c0,0-3.3-1.2-3.3-2.2
				c0-1,20.4-4.9,24.8,14.6C57.3,60.8,43.2,73.4,41.1,80.3z"/>
			<path class="st3" d="M52.4,43.1c1.3,1,2.2,2.4,2.2,4.3c0,0.1-0.2,0.5-0.3,0.4c-2.2-1.7-5.1-0.7-7.3,0.4c-2.5,1.3-4.8,3.1-6.4,5.3
				C39.4,55.2,38.4,57,38,59c-0.4,2.2-0.1,4,0.6,6.1c0.6,1.8,1.4,3.8,0.6,5.7c-0.7,1.6-2.3,2.4-4,2.8c2.7,4.6,6,6.7,6,6.7
				c2.1-6.9,16.2-19.5,23.6-22.7C62.7,48.9,57.5,44.9,52.4,43.1z"/>
			<path class="st0" d="M45.5,75.9c-0.2,0.2-2.9-4.7-3-4.9c-1.3-2.7-2.4-5.6-2.2-8.7c0.2-5.6,2.8-12.3,9.3-12.9
				c6.3-0.5,10.2,7.2,11.1,12.5C51.3,69.7,45.5,75.9,45.5,75.9z"/>
			<path class="st0" d="M55,51.3c-2.4,1.2-4.4,2.9-5.3,5.5c-1.1,3-0.7,6.3,0.4,9.3c0.5,1.3,1,2.5,1.7,3.8c2.4-2.2,5.4-4.9,8.9-7.9
				C60,58.4,58.1,53.8,55,51.3z"/>
		</g>
		<g>
			<path class="st2" d="M160.5,80.6c0,0,9.1-5.8,9.3-19.1c-0.2-8.5-4.2-13-8.3-13.4c3.6-1.1,2.7-2.8-3.1-2.6c0,0,3.3-1.2,3.3-2.2
				c0-1-20.4-4.9-24.8,14.6C144.3,61,158.4,73.7,160.5,80.6z"/>
			<path class="st3" d="M149.2,43.4c-1.3,1-2.2,2.4-2.2,4.3c0,0.1,0.2,0.5,0.3,0.4c2.2-1.7,5.1-0.7,7.3,0.4c2.5,1.3,4.8,3.1,6.4,5.3
				c1.2,1.6,2.2,3.5,2.6,5.5c0.4,2.2,0.1,4-0.6,6.1c-0.6,1.8-1.4,3.8-0.6,5.7c0.7,1.6,2.3,2.4,4,2.8c-2.7,4.6-6,6.7-6,6.7
				c-2.1-6.9-16.2-19.5-23.6-22.7C138.9,49.1,144.1,45.1,149.2,43.4z"/>
			<path class="st0" d="M156.1,76.1c0.2,0.2,2.9-4.7,3-4.9c1.3-2.7,2.4-5.6,2.2-8.7c-0.2-5.6-2.8-12.3-9.3-12.9
				c-6.3-0.5-10.2,7.2-11.1,12.5C150.3,70,156.1,76.1,156.1,76.1z"/>
			<path class="st0" d="M146.6,51.5c2.4,1.2,4.4,2.9,5.3,5.5c1.1,3,0.7,6.3-0.4,9.3c-0.5,1.3-1,2.5-1.7,3.8
				c-2.4-2.2-5.4-4.9-8.9-7.9C141.6,58.6,143.5,54.1,146.6,51.5z"/>
		</g>
		<g>
			<g>
				<path class="st0" d="M7.5,144.4c0,0-3.6,0.5-4.2,5c-0.6,4.5,1.9,9.3,3.2,5C7.8,150.2,9.5,144.4,7.5,144.4z"/>
				<path class="st4" d="M6,146.2c0,0-2.2,0.3-2.6,3.1c-0.4,2.8,1.2,5.6,2,3.1C6.2,149.8,7.3,146.2,6,146.2z"/>
				<path class="st0" d="M9.5,146.1c0,0-2.4,4.2-1.6,9.9c0.8,5.6,3.3,0.9,4.1-2C12.8,151,12.9,142.4,9.5,146.1z"/>
				<path class="st4" d="M8.9,149.9c-0.3,0.4-0.5,1-0.6,1.3c-0.3,1.2-0.8,4.7,0.5,5.5c1,0.7,1.6-1.9,1.7-2.6
					c0.2-1.2,0.3-3.2-0.3-4.3C9.8,148.9,9.2,149.3,8.9,149.9z"/>
				<path class="st0" d="M13.2,148.5c0,0-0.8,7,0.9,10.2c1.7,3.2,3.3,0.3,4-3.9C18.9,150.5,15.1,144.2,13.2,148.5z"/>
				<path class="st4" d="M13.6,151.6c0,0-0.5,4.1,0.5,6c1,1.9,2,0.2,2.4-2.3C17,152.8,14.7,149,13.6,151.6z"/>
				<path class="st0" d="M18.5,149.1c0,0-0.5,5,1.2,8.9c1.7,3.8,4,3.6,4-1.1C23.7,148.9,19.5,145.2,18.5,149.1z"/>
				<path class="st4" d="M19.1,152.6c0,0-0.2,2.8,0.9,4.9c1,2.1,2.3,1.9,2.2-0.7C22.1,152.4,19.6,150.4,19.1,152.6z"/>
				<path class="st0" d="M22.9,149.3c0,0,4.1,6.9,6,6.9s-0.5-6.5-3.5-9.4C24.2,145.7,21.6,146.7,22.9,149.3z"/>
				<path class="st4" d="M25.6,150.7c0,0,1.9,3.6,2.8,3.7c1,0.1,0-3.3-1.5-4.9C26.4,148.9,25,149.3,25.6,150.7z"/>
			</g>
			<path class="st2" d="M45.3,78.1c0,0-17.5,4.3-30.5,27.6c-13,23.3-13.6,42-1.1,44.2c9.5,1.4,11.1,1.2,12.7-4.3
				c1.6-5.5,10.5-21.9,17.2-29.1C62.2,96.6,71.2,71.3,45.3,78.1z"/>
			<g>
				<path class="st3" d="M45.3,78.1c0,0-5,1.2-11.6,6c-3.1,5.8-7.5,17-6.4,32.2c1.9,16.4-2.9,33.1-11.1,32c-4-0.5-7.6-2.5-10.1-4.4
					c1.4,3.3,4,5.4,7.7,6.1c9.5,1.4,11.1,1.2,12.7-4.3c1.6-5.5,10.5-21.9,17.2-29.1C62.2,96.6,71.2,71.3,45.3,78.1z"/>
			</g>
			<path class="st3" d="M27.2,92.5c0,0-18.4,20-19.1,50.3C4.4,133,8.2,109.8,27.2,92.5z"/>
		</g>
		<g>
			<g>
				<path class="st0" d="M193.9,144.4c0,0,3.6,0.5,4.2,5c0.6,4.5-1.9,9.3-3.2,5C193.6,150.2,191.8,144.4,193.9,144.4z"/>
				<path class="st4" d="M195.3,146.2c0,0,2.2,0.3,2.6,3.1c0.4,2.8-1.2,5.6-2,3.1C195.1,149.8,194.1,146.2,195.3,146.2z"/>
				<path class="st0" d="M191.8,146.1c0,0,2.4,4.2,1.6,9.9c-0.8,5.6-3.3,0.9-4.1-2C188.5,151,188.4,142.4,191.8,146.1z"/>
				<path class="st4" d="M192.5,149.9c0.3,0.4,0.5,1,0.6,1.3c0.3,1.2,0.8,4.7-0.5,5.5c-1,0.7-1.6-1.9-1.7-2.6
					c-0.2-1.2-0.3-3.2,0.3-4.3C191.6,148.9,192.1,149.3,192.5,149.9z"/>
				<path class="st0" d="M188.1,148.5c0,0,0.8,7-0.9,10.2c-1.7,3.2-3.3,0.3-4-3.9C182.5,150.5,186.2,144.2,188.1,148.5z"/>
				<path class="st4" d="M187.7,151.6c0,0,0.5,4.1-0.5,6c-1,1.9-2,0.2-2.4-2.3C184.4,152.8,186.6,149,187.7,151.6z"/>
				<path class="st0" d="M182.9,149.1c0,0,0.5,5-1.2,8.9c-1.7,3.8-4,3.6-4-1.1C177.6,148.9,181.9,145.2,182.9,149.1z"/>
				<path class="st4" d="M182.2,152.6c0,0,0.2,2.8-0.9,4.9c-1,2.1-2.3,1.9-2.2-0.7C179.3,152.4,181.7,150.4,182.2,152.6z"/>
				<path class="st0" d="M178.4,149.3c0,0-4.1,6.9-6,6.9c-1.9,0,0.5-6.5,3.5-9.4C177.1,145.7,179.7,146.7,178.4,149.3z"/>
				<path class="st4" d="M175.7,150.7c0,0-1.9,3.6-2.8,3.7c-1,0.1,0-3.3,1.5-4.9C174.9,148.9,176.3,149.3,175.7,150.7z"/>
			</g>
			<path class="st2" d="M156,78.1c0,0,17.5,4.3,30.5,27.6c13,23.3,13.6,42,1.1,44.2c-9.5,1.4-11.1,1.2-12.7-4.3
				c-1.6-5.5-10.5-21.9-17.2-29.1C139.1,96.6,130.2,71.3,156,78.1z"/>
			<g>
				<path class="st3" d="M156,78.1c0,0,5,1.2,11.6,6c3.1,5.8,7.5,17,6.4,32.2c-1.9,16.4,2.9,33.1,11.1,32c4-0.5,7.6-2.5,10.1-4.4
					c-1.4,3.3-4,5.4-7.7,6.1c-9.5,1.4-11.1,1.2-12.7-4.3c-1.6-5.5-10.5-21.9-17.2-29.1C139.1,96.6,130.2,71.3,156,78.1z"/>
			</g>
			<path class="st3" d="M174,92.5c0,0,18.4,20,19.1,50.3C196.9,133,193,109.8,174,92.5z"/>
		</g>
		<path class="st2" d="M101,172.4c5.5,0,11.7-0.1,16.7-2.3c3.6,2,9,0.7,12.9-1.2c-0.3,0.4-0.4,0.8-0.2,1.1c1.6,1.9,6,0.3,7.9-0.2
			c6.2-1.6,12.9-4.1,17.3-9c-0.4,2.5-0.3,5,2.2,3.7c1.6-0.8,2.8-3.2,3.6-4.7c0.5-1,0.8-2.1,1-3.3c0.4,1.2,1.1,2.2,1.9,3.4
			c0.5,0.6,2,2.4,2.9,1.6c0.7-0.6,0.8-1.6,0.6-2.7c0.8,1,1.7,1.6,2.5,0.9c0.6-0.5,0.7-1.4,0.5-2.1c-0.6-2.2-1-4.4-1.6-6.5
			c0.3-1.2,0.2-2.4,0.2-3.6c0.1-2.4,0.1-4.9,0.4-7.3c0.4-4.4,1.6-8.8,2.4-13.2c0.7-4,0.2-7.9,0-11.9c-0.2-3.9-0.6-8.3-1.7-12.1
			c-0.1-1.6-0.3-3.3-0.8-4.8c-1.3-3.9-2-7.8-3.5-11.6c-3-7.2-7.3-12.3-12.6-18c-6.2-6.6-13.9-10.5-18.6-13
			c-5.1-2.7-10.8-5.6-16.6-6.1c1.9-1.4,5.4-4,2.3-5.5c-1.7-0.8-4.3,0-5.9,0.4c-1.7,0.5-3.3,1.2-4.7,2.3c0.6-1.8,1.4-5.1-0.1-5.3
			c-1.8-0.2-3.3,2.4-4.3,4.3c-0.1-1.8-0.5-4.9-1.8-3.8c-0.7,0.6-1.2,1.5-1.5,2.4c0-1.1-0.1-2.1-0.2-3.2c-0.1-1.4-2.1-0.6-2.7-0.4
			c-2.3,0.9-3.7,3.1-4.6,5.3c-1.1-1.8-2.8-5.2-3.9-4.4c-1,0.7-0.1,3.6,0.4,5c-0.9-0.6-3.7-1.9-4.9-2.2c-1.5-0.4-3.6-0.8-5.1,0
			c-2.3,1.1-0.1,2.8,1.5,4.2c-4,1.6-8.4,2.8-12.3,4.7c-5.5,2.6-10.9,5.1-15.8,8.7c-8.7,6.5-14.7,15.8-19.7,25.5
			c-8.8,17.1-5,37.1-3.5,55.4c0.5,5.5,0.6,11.1-0.5,16.5c0,0.2,0.1,0.4,0.3,0.4c1.1-0.2,1.5-1,1.9-1.8c-0.1,1.9-0.2,4.3,1.5,4.4
			c1.2,0.1,1.9-1,2.3-1.9c0.7-1.4,1.2-2.4,1.7-3.6c0.5,3.1,1.9,7.5,4.5,8.1c2.2,0.5,2.3-2.4,2.2-4.3c1.4,1.7,3.4,3,5.2,4
			c4.1,2.1,8.1,3.7,12.5,5c6.2,1.9,10.3,2.3,5.4-2.1c6.8,3.9,16.9,5.3,11,1.6C90,172.1,101,172.4,101,172.4z"/>
		<g>
			<path class="st5" d="M169.9,140.1c0.4-4.4,1.6-8.8,2.4-13.2c0.7-4,0.2-7.9,0-11.9c-0.2-3.9-0.6-8.3-1.7-12.1
				c-0.1-1.6-0.3-3.3-0.8-4.8c-1.3-3.9-2-7.8-3.5-11.6c-3-7.2-7.3-12.3-12.6-18c-6.2-6.6-13.9-10.5-18.6-13
				c-5.1-2.7-10.8-5.6-16.6-6.1c1.9-1.4,5.4-4,2.3-5.5c-1.7-0.8-4.3,0-5.9,0.4c-1.7,0.5-3.3,1.2-4.7,2.3c0.6-1.8,1.4-5.1-0.1-5.3
				c-1.8-0.2-3.3,2.4-4.3,4.3c-0.1-1.8-0.5-4.9-1.8-3.8c-0.7,0.6-1.2,1.5-1.5,2.4c0-1.1-0.1-2.1-0.2-3.2c-0.1-1.4-2.1-0.6-2.7-0.4
				c-2.3,0.9-3.7,3.1-4.6,5.3c-1.1-1.8-2.8-5.2-3.9-4.4c-1,0.7-0.1,3.6,0.4,5c-0.9-0.6-3.7-1.9-4.9-2.2c-1.5-0.4-3.6-0.8-5.1,0
				c-2.3,1.1-0.1,2.8,1.5,4.2c-4,1.6-8.4,2.8-12.3,4.7c-5.5,2.6-10.9,5.1-15.8,8.7c-1.3,1-2.5,2-3.7,3.1c0.4-0.3,0.8-0.5,1.1-0.8
				c21.1-15.3,42.1-12.5,42.1-12.5s-2.2-3.9-1.1-5.3c1.1-1.4,5.6,6.6,5.6,6.6s-1.4-7.9,0.3-8.5c1.7-0.7,3.1,7.3,3.1,7.3
				s-0.7-5.1,0.2-5.8c0.9-0.7,2.7,5.3,2.7,5.3s1.4-7,2.9-6.3c1.5,0.7-1.2,6.5-1.2,6.5s8.5-6.2,9.6-3.8c1,2.4-7.9,8.5-7.9,8.5
				c64,1.5,64.8,87.9,42,60.8c15.2,30.7,7.1,40.1,5.7,40.5c-1.5,0.4-1.8-7.8-1.8-7.8c-4.1,11.5-15.9,15.2-18.5,15.2
				c-2.6,0-0.7-5.5-0.7-5.5c-3.7,5.9-11.1,10-14.1,8.5c-3-1.5,2.2-5.6,2.2-5.6c-19.8,13.4-51.3-1.7-51.3-1.7s7.9,5.7,3.4,5.7
				c-4.5,0-13.3-7-13.3-7s6.5,8.3,0,5.7c-9.1-4.3-15.2-19.6-15.2-19.6c-2.2,7-4.8,7-6.5-6.1c-0.4,8.3-4.3,13.5-4.3,7.8
				c0-5.7-1.3-18.3-1.3-18.3c-2.2,2.6-3.7,0.7-4.7-2.9c0.5,5.7,1.1,11.3,1.6,16.8c0.5,5.5,0.6,11.1-0.5,16.5c0,0.2,0.1,0.4,0.3,0.4
				c1.1-0.2,1.5-1,1.9-1.8c-0.1,1.9-0.2,4.3,1.5,4.4c1.2,0.1,1.9-1,2.3-1.9c0.7-1.4,1.2-2.4,1.7-3.6c0.5,3.1,1.9,7.5,4.5,8.1
				c2.2,0.5,2.3-2.4,2.2-4.3c1.4,1.7,3.4,3,5.2,4c4.1,2.1,8.1,3.7,12.5,5c6.2,1.9,10.3,2.3,5.4-2.1c6.8,3.9,16.9,5.3,11,1.6
				c10.1,3.2,21,3.4,21,3.4c5.5,0,11.7-0.1,16.7-2.3c3.6,2,9,0.7,12.9-1.2c-0.3,0.4-0.4,0.8-0.2,1.1c1.6,1.9,6,0.3,7.9-0.2
				c6.2-1.6,12.9-4.1,17.3-9c-0.4,2.5-0.3,5,2.2,3.7c1.6-0.8,2.8-3.2,3.6-4.7c0.5-1,0.8-2.1,1-3.3c0.4,1.2,1.1,2.2,1.9,3.4
				c0.5,0.6,2,2.4,2.9,1.6c0.7-0.6,0.8-1.6,0.6-2.7c0.8,1,1.7,1.6,2.5,0.9c0.6-0.5,0.7-1.4,0.5-2.1c-0.6-2.2-1-4.4-1.6-6.5
				c0.3-1.2,0.2-2.4,0.2-3.6C169.6,145,169.7,142.6,169.9,140.1z"/>
		</g>
		<path class="st5" d="M60.9,61.6c0,0-27.7,17.7-25.9,59.2C26.8,99.7,40.5,71.6,60.9,61.6z"/>
		<g>
			<path class="st5" d="M94.4,46.8C94.4,46.8,94.3,46.9,94.4,46.8c1.7,1.7,3,3.5,3.7,5.8c0.1,0.3,0.5-0.2,0.5-0.4
				C98.2,50,96.2,48.1,94.4,46.8z"/>
			<path class="st5" d="M100.5,45.8C100.5,45.8,100.5,45.8,100.5,45.8c0.6,1.8,1,3.7,1.3,5.5c0,0.2,0.3-0.1,0.3-0.3
				C102.1,49.1,101.5,47.5,100.5,45.8z"/>
			<path class="st5" d="M103.3,46.7c0-0.1-0.2,0.1-0.1,0.1c0.8,1.6,1.3,3,1.4,4.7c0,0.3,0.4-0.2,0.4-0.3
				C105,49.4,104.3,48.1,103.3,46.7z"/>
		</g>
	</g>
	<path class="st3" d="M64,177.8c-1.4-0.6-3-0.6-4.4-1.4c-1.3-0.7-2.1-1.8-3.2-2.8c-0.2-0.1-0.4,0.3-0.4,0.4c0.3,0.7,0.5,1.4,0.9,2.1
		c0.3,0.7,1.1,1.3,1.6,1.7c1.1,1,4.2,0.7,5.6,0.5C64.4,178.4,64.5,178,64,177.8z"/>
	<path class="st3" d="M137.7,177.8c1.4-0.6,3-0.6,4.4-1.4c1.3-0.7,2.1-1.8,3.2-2.8c0.2-0.1,0.4,0.3,0.4,0.4
		c-0.3,0.7-0.5,1.4-0.9,2.1c-0.3,0.7-1.1,1.3-1.6,1.7c-1.1,1-4.2,0.7-5.6,0.5C137.3,178.4,137.2,178,137.7,177.8z"/>
	<path class="st3" d="M53.9,187.3c-0.6-2.6-1.2-5.1-1.9-7.7c-0.1-0.2-0.4,0.1-0.3,0.3c0.7,4.9,1.1,10.3,3.6,14.7
		c0.2,0.4,0.8-0.4,0.7-0.7C55.5,191.7,54.4,189.6,53.9,187.3z"/>
	<path class="st3" d="M147.2,187.3c0.6-2.6,1.2-5.1,1.9-7.7c0.1-0.2,0.4,0.1,0.3,0.3c-0.7,4.9-1.1,10.3-3.6,14.7
		c-0.2,0.4-0.8-0.4-0.7-0.7C145.6,191.7,146.6,189.6,147.2,187.3z"/>
</g>
<g>
	<path class="st5" d="M82,79.8c0,0-10.3,3.6-14.2-4.7c4.5,4.1,17.6,7.6,21.6-5.8c4-13.3,2.1-23.9-7.1-25.9
		c-9.4-2-19.2,11.7-19.3,24.8C62.8,81.5,73,88.3,82,79.8z"/>
	<path class="st5" d="M116.9,78.8c0,0,6.3,5.4,12.2,1.3c5.9-4.1,4.7-9.9,4.7-9.9s-1.6,15.3-19.6,6.8c-11.2-6.1-11.7-28.1-2.9-33.8
		c8.8-5.8,20.6,4.4,24.3,18C140.3,78.4,130.4,91.2,116.9,78.8z"/>
	<g>
		<path class="st6" d="M95.4,82.9c0,0.6-0.3,1.2-0.7,1.2c-0.4,0-0.7-0.5-0.7-1.2c0-0.6,0.3-1.2,0.7-1.2
			C95.1,81.8,95.4,82.3,95.4,82.9z"/>
		<path class="st6" d="M99.9,82.7c0,0.6-0.3,1.2-0.7,1.2c-0.4,0-0.7-0.5-0.7-1.2c0-0.6,0.3-1.2,0.7-1.2C99.6,81.5,99.9,82,99.9,82.7
			z"/>
		<path class="st6" d="M104.1,80.8c-1.2-2.9-5.2-3.7-7.9-3.4c-2.5,0.2-5.7,1.5-6.6,4.2c-1.1,3.4,3.1,5,5.7,5c0.2,0,0.6-0.6,0.3-0.6
			c-1.7-0.1-3-0.7-4.3-1.8c-3.9-3.1,2.8-5.5,5.1-5.5c1.7,0,3.3,0.4,4.8,1.3c0.8,0.5,1.4,1.3,1.9,2.1c0.9,1.4-1.3,2.2-2,2.7
			c-0.4,0.2-1,1.6-0.2,1.2C102.9,84.9,105.2,83.2,104.1,80.8z"/>
	</g>
	<g>
		<path class="st7" d="M89.6,63.1c0,0,2.4-16.2-8.1-18.2c-10.5-2-20.9,22.4-14.2,28.4C74,79.5,87.1,80.9,89.6,63.1z"/>
		<g>
			<path class="st8" d="M81.4,45c-4-0.8-7.9,2.2-10.9,6.6c1.9-1.1,4.8-1.4,8.4,0.6c6.1,3.6,11.2,8.1,8.9,17.6c0.8-1.8,1.4-4,1.8-6.7
				C89.6,63.1,91.9,46.9,81.4,45z"/>
		</g>
		<g>
			<path class="st9" d="M82.4,62.3c-0.7,2.8-2.7,4.6-4.5,4c-1.8-0.5-2.7-3.2-2.1-6c0.7-2.8,2.7-4.6,4.5-4
				C82.1,56.9,83.1,59.6,82.4,62.3z"/>
			<path class="st0" d="M81.8,62.2c-0.5,2.3-2.2,3.7-3.7,3.3c-1.5-0.4-2.3-2.6-1.7-4.9c0.5-2.3,2.2-3.7,3.7-3.3
				C81.6,57.7,82.4,59.9,81.8,62.2z"/>
			<path class="st10" d="M80.9,61.9c-0.3,1.4-1.4,2.3-2.3,2.1c-0.9-0.3-1.4-1.7-1.1-3.1c0.3-1.4,1.4-2.3,2.3-2.1
				C80.7,59.1,81.2,60.5,80.9,61.9z"/>
			<path class="st7" d="M79.3,59.5c-0.4,0.5-1,0.8-1.4,0.6c-0.4-0.2-0.4-0.9,0-1.4c0.4-0.5,1-0.8,1.4-0.6
				C79.7,58.3,79.7,58.9,79.3,59.5z"/>
			<path class="st7" d="M77.4,61.2c-0.1,0.3-0.3,0.5-0.5,0.4c-0.2-0.1-0.3-0.3-0.2-0.6c0.1-0.3,0.3-0.5,0.5-0.4
				C77.3,60.6,77.4,60.9,77.4,61.2z"/>
		</g>
		<path class="st6" d="M89.8,59.7c0.1-4.9-0.9-13.3-8.4-14.7c-2.9-0.6-5.8,0.9-8.4,3.5C79.6,50.4,85.2,54.6,89.8,59.7z"/>
	</g>
	<g>
		<path class="st5" d="M76.4,39.2l-2.6,2.6c0,0,10-1.3,15.9,4.5C88.1,41.9,80.6,38.6,76.4,39.2z"/>
		<path class="st5" d="M101.3,40.1c0,0,1.3,5.2,3.2,4.9c1.9-0.3,4.4-3.6,8.2-5.7c3.8-2.1,7.2-2.8,10.1,0.5c-1.3-4.2-2.2-5.4-6.5-5.9
			c-4.3-0.6-10.1,6.5-10.1,6.5S103.2,42.2,101.3,40.1z"/>
		<path class="st6" d="M74.5,40.7c0,0,10.1-0.5,14.9,4.5c-3-7.3-8.6-12-10.6-10.1C76.7,37,74.5,40.7,74.5,40.7z"/>
		<path class="st5" d="M89.4,40.5c-0.1-0.1-0.2,0.1-0.2,0.2c1.1,1.8,1.6,3.7,2,5.8c0,0.3,0.4-0.2,0.4-0.3
			C91.6,44.1,90.7,42,89.4,40.5z"/>
		<path class="st5" d="M97.8,39.6c-0.1-0.1-0.3,0.2-0.2,0.3c0.5,0.8,0.8,1.6,0.9,2.6c0.1,0.5,0.1,0.9,0.1,1.4c0,0.6-0.1,0.6,0.1,1
			c0.2,0.3,0.5-0.2,0.6-0.4C99.9,43,98.9,40.8,97.8,39.6z"/>
		<path class="st6" d="M89.1,39.6c-0.1-0.1-0.2,0.1-0.2,0.2c1.1,1.8,1.6,3.7,2,5.8c0,0.3,0.4-0.2,0.4-0.3
			C91.3,43.3,90.4,41.2,89.1,39.6z"/>
		<path class="st6" d="M97.5,38.8c-0.1-0.1-0.3,0.2-0.2,0.3c0.5,0.8,0.8,1.6,0.9,2.6c0.1,0.5,0.1,0.9,0.1,1.4c0,0.6-0.1,0.6,0.1,1
			c0.2,0.3,0.5-0.2,0.6-0.4C99.6,42.2,98.6,39.9,97.5,38.8z"/>
		<path class="st6" d="M99.8,37.1c0,0,3.1,4.1,4.5,2.4c1.4-1.7,8.8-9.9,11.2-9.7c2.4,0.2,5.9,4.2,7,8.9c-2.4-2.6-6.2-3.3-11.9,0.6
			c-5.7,3.9-7,6.4-8.8,2.4C100.6,39,99.8,37.1,99.8,37.1z"/>
	</g>
	<path class="st3" d="M69,96.3c0,0,11.3,11,30.4,10.2c19.1-0.8,25.3-8.9,29-14.2c1.8-2.5,12.6,4.9,13,15c0.3,6.4-1.5,10.9-9.4,8.4
		c-9.1-2.9-19.9-1.8-32.3-1.4c-12.4,0.3-22.9,1.3-27.8,4.3c-4.9,3-6,7.2-9.7-1.6C58.5,108.2,63,90.9,69,96.3z"/>
	<g>
		<path class="st7" d="M131.2,56.2c3.7,9,1.7,18.4-4.5,20.9c-6.1,2.5-14.3-0.9-18-9.9c-3.7-9-1.4-20.3,4.7-22.8
			C119.6,41.8,127.6,47.1,131.2,56.2z"/>
		<path class="st8" d="M111.1,60.1c1.6-3.2,4.4-5.9,7.4-7.8c2.5-1.5,4.3-2.2,8.1-3.6c-3.9-4.3-8.9-6.2-13.1-4.5
			c-6.1,2.5-8.4,13.8-4.7,22.8c0.3,0.8,0.7,1.6,1.1,2.3C109.4,66.2,109.6,62.9,111.1,60.1z"/>
		<g>
			<path class="st9" d="M122.3,61.2c0.7,2.7-0.2,5.3-2,5.7c-1.8,0.4-3.9-1.5-4.7-4.3c-0.7-2.7,0.2-5.3,2-5.7
				C119.5,56.5,121.5,58.4,122.3,61.2z"/>
			<path class="st0" d="M121.7,61.4c0.6,2.3-0.2,4.3-1.7,4.7c-1.5,0.3-3.2-1.2-3.8-3.5c-0.6-2.3,0.2-4.3,1.7-4.7
				C119.4,57.5,121.1,59.1,121.7,61.4z"/>
			<path class="st10" d="M120.7,61.6c0.4,1.4-0.1,2.7-1.1,2.9c-1,0.2-2-0.8-2.4-2.2c-0.4-1.4,0.1-2.7,1.1-2.9
				C119.3,59.2,120.4,60.2,120.7,61.6z"/>
			<path class="st7" d="M118.2,60.2c-0.1,0.7-0.5,1.2-0.9,1.2c-0.4,0-0.7-0.6-0.6-1.2c0.1-0.7,0.5-1.2,0.9-1.2
				C118,59,118.3,59.5,118.2,60.2z"/>
			<path class="st7" d="M117.3,62.6c0.1,0.3,0,0.6-0.2,0.6c-0.2,0-0.4-0.2-0.5-0.5c-0.1-0.3,0-0.6,0.2-0.6
				C117,62.1,117.2,62.3,117.3,62.6z"/>
		</g>
		<path class="st6" d="M120.1,50.1c1.9-0.9,3.8-1.6,5.7-2.1c-3.8-3.7-8.4-5.3-12.3-3.7c-4.7,1.9-7.1,9-6.3,16.3
			C110.2,55.9,115.3,52.4,120.1,50.1z"/>
	</g>
	<path class="st6" d="M81.6,45.8c-0.1,0-0.2,0.2-0.2,0.3c1.8,0.9,3.3,2.1,4.5,3.9c1.3,1.9,2.2,4.9,3.2,6.9c0.2,0.4,0-1.2-0.1-1.4
		C88.6,50.9,86,47,81.6,45.8z"/>
	<path class="st6" d="M114.8,44.6c0.1,0,0.3,0.2,0.2,0.2c-1.8,1.1-3.2,2.4-4.2,4.2c-1.1,2-1.8,5-2.6,7.1c-0.2,0.4-0.1-1.2-0.1-1.4
		C108.2,50.3,110.5,46.2,114.8,44.6z"/>
	<path class="st5" d="M103.1,84c-2.4,0.9-3.9,2.3-6.6,2c-2.4-0.3-4.5-1.1-6.1-2.9c-0.2-0.2-0.6,0.4-0.7,0.5
		c-0.9,3.5,3.6,4.8,6.2,5.1c2.8,0.4,6.5-1.4,7.6-4C103.6,84.4,103.6,83.8,103.1,84z"/>
	<path class="st5" d="M96.8,79.6c0.1,0.5-0.7,1.1-1.9,1.3c-1.2,0.3-2.2,0.1-2.3-0.4c-0.1-0.5,0.7-1.1,1.9-1.3
		C95.7,79,96.7,79.1,96.8,79.6z"/>
	<path class="st11" d="M69,94.6c0,0,11.3,11,30.4,10.2c19.1-0.8,25.3-8.9,29-14.2c1.8-2.5,12.6,4.9,13,15c0.3,6.4-1.5,10.9-9.4,8.4
		c-9.1-2.9-19.9-1.7-32.3-1.4c-12.4,0.3-22.9,1.3-27.8,4.3c-4.9,3-6,7.2-9.7-1.6C58.5,106.5,63,89.2,69,94.6z"/>
	<path class="st11" d="M136.3,113.1c-5.6-4.2-12-6.5-19-6.8c-4.1-0.1-8.3,0.2-12.5,0.5c-4.2,0.3-8.5,0.6-12.6,1.7
		c-9,2.2-19,5.7-26.1,12.1c1.5,0,3-2,5.7-3.7c4.9-3,15.4-4,27.8-4.3c12.4-0.3,23.2-1.4,32.3,1.4c2.6,0.8,4.5,0.9,5.9,0.4
		C137.4,113.9,136.9,113.5,136.3,113.1z"/>
	<g>
		<path class="st7" d="M85.6,103.4c0,0,0.6,8.2,2.5,14.4c1.7,5.1,5.8,5.3,8.2,4.8c2.3-0.5,3.6-1.2,3.5-4.6
			c-0.1-3.4-1.1-13.2-1.1-13.2S94.3,105.3,85.6,103.4z"/>
		<path class="st8" d="M93.8,107.2c2.3,1.3,3.9,3.5,4.8,6c0.7,2.1,1,4.3,1.2,6.5c0.1-0.5,0.1-1.1,0.1-1.8
			c-0.1-3.4-1.1-13.2-1.1-13.2s-4.5,0.5-13.2-1.5c0,0,0,0.1,0,0.2C88.2,105.1,91.2,105.7,93.8,107.2z"/>
		<path class="st7" d="M99,104.8c0,0,1,10.6,1.5,14.6c0.5,4,7.2,3.4,8.6-0.5c1.5-3.9,1.8-15.6,1.8-15.6S104.9,104.7,99,104.8z"/>
		<path class="st8" d="M101.2,113.1c0.1-2.2,0.5-4.7,2.3-6.2c2-1.6,5-1.5,7.3-2.5c0-0.7,0-1.2,0-1.2s-6,1.5-11.9,1.6
			c0,0,1,10.6,1.5,14.6c0.1,1.1,0.8,1.9,1.6,2.3C101.6,118.8,101.1,115.9,101.2,113.1z"/>
		<path class="st7" d="M75.5,99.3c0,0-0.4,4.8,0.5,6.7c0.9,1.9,5.2,3.3,6.6,1.2c1.4-2.1,2.2-4.1,2.2-4.1S79.4,101.2,75.5,99.3z"/>
		<path class="st8" d="M75.5,99.3c0,0,0,0.1,0,0.4c1.9,1.3,4.4,2.2,5.4,4.3c0.7,1.4,0.7,2.8,0.4,4.1c0.5-0.2,1-0.4,1.3-0.9
			c1.4-2.1,2.2-4.1,2.2-4.1S79.4,101.2,75.5,99.3z"/>
		<path class="st7" d="M74.9,115.4c0,0,0.4-6,2.9-6.4c2.5-0.3,5,4.8,5,4.8S77.3,114.5,74.9,115.4z"/>
		<path class="st8" d="M79.3,109.4c0.3,0.8,0.4,1.6,0.1,2.4c-0.3,0.8-0.9,1.5-1.7,2c-0.9,0.5-1.9,0.7-2.8,0.8
			c-0.1,0.5-0.1,0.9-0.1,0.9c2.4-1,7.9-1.6,7.9-1.6S81.2,110.6,79.3,109.4z"/>
		<path class="st7" d="M72.4,116.4c0,0-2.5-4.6-4.8-3.7c-2.3,1-2,7.7-2,7.7s0.8,0.5,3-1.2C70.7,117.5,72.4,116.4,72.4,116.4z"/>
		<path class="st8" d="M68.7,112.7c1,1.7,1.5,3.5,0.2,5.4c-0.8,1.1-2.1,1.8-3.4,2.3c0,0,0,0,0,0s0.8,0.5,3-1.2
			c2.2-1.8,3.9-2.8,3.9-2.8S70.7,113.2,68.7,112.7z"/>
		<path class="st7" d="M74.4,98.6c0,0-3.8,4.1-4.7,9.1c-0.9,4.2-3.1,0.1-3.7-3.5c-0.9-4.9,1.7-10.5,1.7-10.5S72.8,97.9,74.4,98.6z"
			/>
		<path class="st8" d="M67.6,93.7c0,0-0.1,0.2-0.2,0.5c1.5,1.7,3.7,2.7,3.1,5.5c-0.6,3.2-1.7,6.3-1.5,9.5c0.3-0.2,0.5-0.7,0.6-1.6
			c1-5,4.7-9.1,4.7-9.1C72.8,97.9,67.6,93.7,67.6,93.7z"/>
		<path class="st7" d="M124.1,96c0,0,3.3,3.4,4.2,6.9c0.9,3.5,2.3,2.2,3.4-1.7c1.2-3.9,0.3-10.3,0.3-10.3s-3-1.6-3.7-0.3
			C127.6,91.9,124.9,95.4,124.1,96z"/>
		<path class="st8" d="M132.1,90.9c0,0-3-1.6-3.7-0.3c-0.7,1.3-3.4,4.7-4.3,5.4c0,0,0.3,0.3,0.7,0.8c0.8-1,1.5-2.3,2.3-3.3
			c0.5-0.6,1.3-1.3,2.1-1c1.6,0.5,1.4,3.2,1.3,4.5c-0.1,2.6-0.6,5.3-1.3,7.9c0.8,0.4,1.7-1,2.4-3.6
			C132.9,97.4,132.1,90.9,132.1,90.9z"/>
		<path class="st7" d="M112.4,102.7c0,0,1,5.7,6.1,4.4c5-1.3,5.8-3.9,3.2-8.9C121.6,98.2,119.3,100.4,112.4,102.7z"/>
		<path class="st8" d="M116.9,101.6c1-0.3,2.5-0.8,3.5-0.1c1.2,0.9,1.4,2.4,1.6,3.9c1.6-1.5,1.4-3.8-0.4-7.2c0,0-2.3,2.2-9.2,4.6
			c0,0,0,0.1,0.1,0.4C114,102.7,115.5,102.1,116.9,101.6z"/>
		<path class="st7" d="M115.7,112c0,0,0.6-3.1,3.1-3.3c2.5-0.2,4.7,3.7,4.7,3.7L115.7,112z"/>
		<path class="st8" d="M120.8,109.3c0,0.8-0.1,1.6-0.9,1.9c-1,0.4-2.2,0.4-3.2,0.5c-0.3,0-0.6,0-0.9,0.1c0,0.2-0.1,0.3-0.1,0.3
			l7.8,0.4C123.6,112.4,122.4,110.3,120.8,109.3z"/>
		<path class="st7" d="M128.2,113.1c0,0,1.1-4.4,3-4.4c1.9,0,4.2,4.5,4.6,6c0,0-1.6,0-3.8-0.6C129.8,113.4,128.2,113.1,128.2,113.1z
			"/>
		<path class="st8" d="M133.4,110.2c0.1,1.1-0.2,2-1.4,2.5c-1.1,0.4-2.4,0.4-3.7,0.1c-0.1,0.2-0.1,0.4-0.1,0.4s1.6,0.3,3.8,0.9
			c2.2,0.6,3.8,0.6,3.8,0.6C135.6,113.7,134.6,111.6,133.4,110.2z"/>
	</g>
	<path class="st5" d="M68.1,92.3c0,0,24,19.5,53.8,3C112.8,104.7,85.4,110,68.1,92.3z"/>
</g>
</svg>
