<?xml version="1.0" encoding="utf-8"?>
<!-- Generator: Adobe Illustrator 22.1.0, SVG Export Plug-In . SVG Version: 6.00 Build 0)  -->
<svg version="1.1" id="Layer_1" xmlns="http://www.w3.org/2000/svg" xmlns:xlink="http://www.w3.org/1999/xlink" x="0px" y="0px"
	 viewBox="0 0 566.9 566.9" style="enable-background:new 0 0 566.9 566.9;" xml:space="preserve">
<style type="text/css">
	.st0{fill:#EDCDAC;}
	.st1{fill:#DEB58A;}
	.st2{fill:#5A7C48;}
	.st3{fill:#93AE80;}
	.st4{fill:#415B32;}
	.st5{fill:#EBF4F6;}
	.st6{fill:#DAE6E9;}
	.st7{fill:#B2B0AE;}
	.st8{fill:#8A8786;}
	.st9{fill:#D5D5D5;}
	.st10{fill:#A6A3A2;}
	.st11{fill:#EAEAE9;}
	.st12{fill:#BE7D55;}
	.st13{fill:#527241;}
	.st14{fill:#FAE655;}
	.st15{fill:#769A62;}
	.st16{fill:#A9D0E1;}
	.st17{fill:#66391F;}
	.st18{fill:#E4B6A1;}
	.st19{fill:#F1DAD0;}
	.st20{fill:#F3E0CC;}
	.st21{fill:#653311;}
	.st22{fill:#C99B6D;}
	.st23{fill:#7B4C47;}
	.st24{fill:#48291F;}
	.st25{fill:#F7F8F8;}
	.st26{fill:#CF7B6E;}
	.st27{fill:#D9948B;}
	.st28{fill:#E1AFB2;}
	.st29{fill:#DDA68A;}
	.st30{fill:#7E5138;}
	.st31{fill:#57321E;}
</style>
<g>
	<g>
		<g>
			<path class="st0" d="M227.5,386.4c0,0,3.3,17.1-18.8,44.2c2.5,2.6,8.5,4.3,8.5,4.3s23.7-18.1,22.2-52.2
				C233,383,227.5,386.4,227.5,386.4z"/>
			<path class="st1" d="M226.1,399.6c0,0,0-0.1-0.1-0.2c2.3-8.3,1.4-13,1.4-13s5.5-3.4,11.9-3.7c0.3,5.9-0.3,11.3-1.2,16.3
				C236.8,392.1,228.1,395.6,226.1,399.6z"/>
		</g>
		<g>
			<path class="st2" d="M210.4,427.1c-1.9-1.7-3.3,0.3-6.1,4c-2.6,3.5-7.2,4.5-6.9,7.2c3.2,10.8,24,24.3,32.2,18.2
				c7.7-6.7,4.3-16.5-3.8-14.2c-1.2-1.2-5-3.4-6.7-3.7c1.5-1.2,1.9-2.5,0.6-3.8C218.5,435.6,211.2,431.7,210.4,427.1z"/>
			<path class="st3" d="M233.2,449.2c0.4-2.9-1-6.4-3.4-6.4c-2.4,0,3.9,7.9-1.3,10.9C232.1,453.6,233.1,450.2,233.2,449.2z"/>
			<path class="st4" d="M210.5,427.4c0.1,0.9,0.5,1.4,1,2.2c-2.6,2.9-6.6,4-6.3,6.5c2.5,8.4,15.6,18.4,25.2,19.6
				c-0.2,0.2-0.5,0.5-0.7,0.7c-8.2,6.2-27.8-7.4-31-18.2c-0.3-2.6,3.8-2.7,6.3-6.2C207.7,428.3,208.6,425.7,210.5,427.4z"/>
			<path class="st5" d="M231,455.2c-3.9,1.9-28.1-5.9-30.7-20.7c-2-0.7-5.2,2-5,3.8c2.3,6.2,6.1,11.6,15.5,17c8.3,4.7,15.7,5.3,18,4
				C232.3,457.7,231,455.2,231,455.2z"/>
			<path class="st6" d="M200.5,435.3c0,0.2,0.1,0.3,0.1,0.5c-0.7,0.7-1.2,0.8-1.2,1.5c2.3,6.2,6.1,11.6,15.5,17
				c5.7,3.3,10.4,3.8,13.9,3.8c-0.2,0.1-0.4,0.3-0.7,0.4c-2.3,1.3-8.4,1-16.7-3.6c-7.7-4.3-12.8-10.1-15.1-16.2
				C196.1,437,198.4,434.6,200.5,435.3z"/>
			<path class="st5" d="M226.2,442.2c0.8,1.6-0.5,4.3-2.3,5.1c-2.1,0.8-6.1-2.6-7.2-4.5c0.5-2.5,2.5-4.2,2.5-4.2
				S224.2,438.2,226.2,442.2z"/>
			<path class="st6" d="M220.9,438.7c-0.6,0.6-1.7,2-2,3.8c0.8,1.5,3.8,3.1,5.9,3.7c-0.2,0.1-0.4,0.3-0.6,0.4
				c-2,0.8-5.7-1.7-6.8-3.7c0.5-2.6,2-4.1,2-4.1S219.9,438.5,220.9,438.7z"/>
		</g>
	</g>
	<g>
		<g>
			<path class="st0" d="M279.9,375.9c0,0,13.4,15.7,9.5,66.2c-4.1,2.8-10.3,0.3-10.3,0.3s3.9-32.7-9.5-61.4
				C275.4,377.2,279.9,375.9,279.9,375.9z"/>
			<path class="st1" d="M269.7,381.1c4.4-3,8.2-4.5,9.6-5c0.3,0,0.5,0,0.7-0.1c0.6,0.8,4,5.5,6.7,16.2c-4.6-6.1-11.3-6.6-11,5.6
				C274.2,392.2,272.3,386.6,269.7,381.1z"/>
		</g>
		<g>
			<path class="st2" d="M278.7,439.7c-2.4-0.1-2.2,2.3-1.9,6.7c0.3,4.1-2.4,7.7-0.5,9.4c9.1,5.8,32.5,2.6,34.6-6.9
				c1.4-9.6-7.1-14.5-11.5-7.9c-1.6-0.2-5.7,0.6-7.2,1.5c0.3-1.7-0.1-3-1.9-3.2C289.9,440.8,282.2,442.6,278.7,439.7z"/>
			<path class="st3" d="M308.9,441.5c-1.5-2.3-4.7-4-6.4-2.5c-1.7,1.5,7.7,3.3,5.8,8.7C310.8,445.4,309.4,442.3,308.9,441.5z"/>
			<path class="st4" d="M279,439.9c0.7,0.6,1.2,0.8,2.1,1c-0.1,3.7-2.3,7-0.5,8.6c7,4.5,22.7,3.6,30.4-1.5c0,0.3,0,0.6-0.1,1
				c-2.1,9.5-24.6,11.9-33.7,6.1c-1.9-1.7,1-4.3,0.7-8.4C277.5,442.2,276.6,439.8,279,439.9z"/>
			<path class="st5" d="M311,447.2c-1.6,3.8-24,13.2-35,4.1c-1.9,0.7-2.5,4.7-1.3,5.9c5.5,3,11.7,4.6,21.8,2.6
				c8.9-1.7,14.6-5.9,15.5-8.3C313.6,448.1,311,447.2,311,447.2z"/>
			<path class="st6" d="M276.6,451.8c0.2,0.1,0.3,0.2,0.4,0.3c0,1-0.4,1.4,0.1,1.8c5.5,3,11.7,4.6,21.8,2.7
				c6.2-1.2,9.9-3.7,12.4-5.9c-0.1,0.2-0.1,0.5-0.2,0.7c-0.9,2.4-5.4,5.9-14.3,7.8c-8.3,1.7-15.5,0.7-21-2.3
				C274.5,455.7,274.7,452.5,276.6,451.8z"/>
			<path class="st5" d="M299.5,440.8c1.6,0.7,2.3,3.4,1.5,5.1c-1,1.9-6,2-8,1.2c-1.3-2.1-0.8-4.6-0.8-4.6S295.6,439.2,299.5,440.8z"
				/>
			<path class="st6" d="M293.5,441.5c-0.1,0.8,0,2.5,0.9,4c1.6,0.6,4.7-0.1,6.6-1c0,0.2-0.1,0.4-0.2,0.6c-1,1.9-5.2,2.3-7.2,1.6
				c-1.3-2.1-1.1-4.2-1.1-4.2S292.7,442.1,293.5,441.5z"/>
		</g>
	</g>
	<g>
		<path class="st7" d="M234.9,346.8c0,0,16.5,25.7,18.9,41.3c3.6,3.4,38.1-5.4,37.7-12c-1.6-11-9.6-33.8-15.8-40.9
			C254.6,339.2,234.9,346.8,234.9,346.8z"/>
		<path class="st8" d="M284.5,356.3c-0.1-0.7-2.3-9.8-5.6-13.2c-13.8-3.7-23.7-3.7-23.7-3.7l-6,29.6c0,0,3.7,8.9,6.5,16.8
			c-1.5-22.3,4.2-33.8,11.8-34.7C275.1,350.2,284.5,356.3,284.5,356.3z"/>
		<path class="st8" d="M291.5,375.4c0,0-14.8,12.2-37.9,12c-0.6,2,0.9,3.9,0.9,3.9s20.7,2,37.5-11.2
			C293.5,377.7,291.5,375.4,291.5,375.4z"/>
	</g>
	<g>
		<path class="st9" d="M216,336.4c0,0,0,27.4-7.5,41.3c0.8,4.9,37.8,18,41.4,12.6c5.3-9.8,11-34.2,5.9-51.8
			C236.7,329,216,336.4,216,336.4z"/>
		<path class="st10" d="M256.1,355.4c0,0,0-12.7-3-18.5c-9.3-1.8-36.3-2.6-36.3-2.6s1.3,8.1-0.2,16.3c8.2-8.5,12.9-9.9,22.1-8.6
			C247.9,343.2,256.1,355.4,256.1,355.4z"/>
		<path class="st11" d="M254,363.8c-0.9-9.1-6.9-12.1-7.6-3.3c-0.6,8.8,3.7,17.8,3.1,26.7C254,375.7,254.5,368.5,254,363.8z"/>
		<path class="st8" d="M250.5,389.7c0,0-23.3,1.4-41.7-12.7c-1.7,1.2-1.6,3.7-1.6,3.7s19.5,13.5,40.9,13.1
			C250.6,392.7,250.5,389.7,250.5,389.7z"/>
	</g>
	<g>
		<path class="st0" d="M276.8,263.2c0,0,23,22.3,57.3,23.3c14.3-3,18.4,1.2,16.1,1.6c4,0.4,4.7,4,0.3,2.8c5,1.2,4.4,4.9-0.1,4
			c2.6,1.1,3.3,4.7-3.2,3.2c-4-0.9-7.5-1.5-7.5-1.5s4,5.1,1.3,5.8c-2.6,0.8-7.2-5.8-8.6-7.8c-7.4-1.5-39.4-1.6-53.6-19.1
			C280.5,268.2,276.8,263.2,276.8,263.2z"/>
		<path class="st1" d="M284.4,278.9C284.4,278.9,284.4,278.9,284.4,278.9c-4.4-2.2-8.8-4.8-12.6-8c0,0-0.1-0.1-0.1-0.1l4.3-6.9
			c2.7,2.5,6.3,5.1,10.6,7.7C283.6,272.1,281.3,274.9,284.4,278.9z"/>
		<path class="st12" d="M351.1,295.5c0.1,0,0.3-0.1,0.3-0.2c0.1-0.2,0-0.3-0.2-0.4c-3.8-1.2-8.2-1.8-8.2-1.8c-0.2,0-0.3,0.1-0.3,0.3
			c0,0.2,0.1,0.3,0.3,0.4h0C343,293.7,347.3,294.3,351.1,295.5C351.1,295.5,351.1,295.5,351.1,295.5z"/>
		<path class="st12" d="M351.3,291.5c0.1,0,0.3-0.1,0.3-0.2c0.1-0.2,0-0.3-0.2-0.4c-1.6-0.5-5.8-1.1-8.5-1.3c-0.2,0-0.3,0.1-0.3,0.3
			c0,0.2,0.1,0.3,0.3,0.3C345.6,290.4,349.7,291,351.3,291.5C351.3,291.5,351.3,291.5,351.3,291.5z"/>
		<path class="st12" d="M342.7,287.7C342.8,287.7,342.8,287.7,342.7,287.7c2.7-0.2,7.7,0.8,7.7,0.8c0.2,0,0.3-0.1,0.4-0.2
			c0-0.2-0.1-0.3-0.2-0.4c-0.2,0-5.1-1-7.8-0.8c-0.2,0-0.3,0.2-0.3,0.3C342.5,287.6,342.6,287.7,342.7,287.7z"/>
	</g>
	<g>
		<path class="st13" d="M271,259.5c6.3,2.1,21.9,6.9,27.7,11.9c1.3,6.9-2.5,18.3-6.4,20.8c-8.4-2.9-18.6-10.5-18.6-10.5L271,259.5z"
			/>
		<path class="st4" d="M294.5,275.8c-6.6,15.7-9.3,3.7-12.6-6.8c-0.6,15.6,3.5,18.8,3.5,18.8s2.9,2,4.9,2.1
			C292.8,285.9,294.2,281.7,294.5,275.8z"/>
		<path class="st2" d="M284.8,265c-3.6-1.3-4.8,1-1.3,2.1c3.5,1.1,8.4,2.3,12.1,5C292.1,268.5,286.5,265.6,284.8,265z"/>
		<path class="st14" d="M296.5,269.9c0.4,3.3-0.9,13.7-5.8,21.7c0.4,1,2.8,1.7,3.6,1.5c3.8-6,6.9-16,6.2-20.9
			C299.2,270.6,296.5,269.9,296.5,269.9z"/>
	</g>
	<path class="st0" d="M273.3,261c0,0-5.7-3-9.8-4.5c0.4-3,1.9-7.7,1.9-7.7l-8.9-1.7c0,0-1.2,4.8-1.6,7.8c-2.6,0.2-9,0.8-9,0.8
		s7.9,22.4,18.5,24.2C274.9,281.5,273.3,261,273.3,261z"/>
	<path class="st1" d="M254.8,254.9c0.5-2.6,1.6-7.8,1.6-7.8l8.9,1.7c0,0-1.3,5-1.9,7.7C262.3,257.5,258,257.3,254.8,254.9z"/>
	<g>
		<path class="st15" d="M262.9,266c6.9-0.5,5.9-5.5,4.3-8c10.9,3.4,13.9,8.7,16.2,19.6c2.2,10.2,3.3,24.9-0.7,63.9
			c-9.9,11-67.3-3-72.8-10.3c1.3-9.1,18.6-39.7,25-71.6c2.5-3.3,7.7-4.3,14.5-4.3C250.3,257.9,251,265.1,262.9,266z"/>
		<path class="st2" d="M234.5,275.5c-1.2,8.5-0.5,47.2,15.1,58c15.6,10.9,30.4,6.4,32.9-9.8c-0.4,8.8-0.7,16.4-2.3,17.4
			c-4.6,3.5-35.6,5.1-67.4-10.4c3.5-13.1,17.8-48.4,20.6-55.2C236.2,268.7,234.5,275.5,234.5,275.5z"/>
		<path class="st3" d="M279.8,283.1c-4.3-11.1-13.9-8.8-9.5,1.7c4.4,10.5,10.9,19.2,12,33.6C283.5,302.9,281.8,288.4,279.8,283.1z"
			/>
	</g>
	<g>
		<path class="st0" d="M233.9,260.1c0,0-10.4,3.2-18.2,7.3c-6.9,3.6-42.2,16.9-12.2,56.7c-0.8,3.1-1.8,10,0.9,9.7
			c1.4-0.2,2.2-5.5,2.2-5.5s0.7,9.6,4.4,8.2c2.7-1,0.4-8.9,0.4-8.9s4.8,7.9,7.6,6.1c2.7-1.8-4.2-9-4.2-9s7,5.4,8.8,2.7
			c1.7-2.7-10.3-8.6-10.3-8.6s5.1-0.7,3.9-3.3c-1.2-2.6-8.6,0.8-8.6,0.8s-21.5-22.6,5.1-36.4c9.8-5.1,18.9-8.5,19.1-8.6
			C237.8,265,233.9,260.1,233.9,260.1z"/>
		<path class="st1" d="M226.7,263.9c3.9,0.1,4.8,3.7,4.1,6.8c0.9-0.5,2-0.8,3.1-1.2c2.1-3.6,1.4-6.5,0.7-8.1
			C232.2,261.8,229.4,262.6,226.7,263.9C226.7,263.8,226.7,263.8,226.7,263.9z"/>
	</g>
	<g>
		<path class="st16" d="M196.1,203.7c-6-5.6-21.8-0.2-21.1,5.1C175.6,214.1,192.8,204.4,196.1,203.7z"/>
		<path class="st16" d="M194.6,238.8c-6.9-3-18.7,6.5-16.6,10.8C180.2,254,192,240.5,194.6,238.8z"/>
		<path class="st16" d="M359.2,239.3c6.8-2,16.7,8.2,14.2,12C370.8,255.2,361.4,241.2,359.2,239.3z"/>
		<path class="st16" d="M368.8,224.1c5.8-4,18.4,2.7,17.2,7.1C384.7,235.6,371.4,225.2,368.8,224.1z"/>
	</g>
	<g>
		<path class="st13" d="M239.8,256.5c-9.3,0-22.4,2.7-31.5,8.3c-0.4,4.3,4.3,17.7,7.9,19.5c5-0.2,16.5-5.1,16.5-5.1
			S243.3,267,239.8,256.5z"/>
		<path class="st4" d="M232.3,278.4c0,0-15.5,2.8-20.7-13.5c1.3,7.3,5.6,15.9,7.6,16.7C222.9,281.7,232.3,278.4,232.3,278.4z"/>
		<path class="st2" d="M233.7,258.3c4.8,0.1,5.2,3.2,0.6,3c-4.6-0.2-10.8-1-16.4,0.6C223.5,259.3,231.4,258.3,233.7,258.3z"/>
		<path class="st14" d="M210.1,263.6c-0.3,2.7,2.3,12.4,7.8,20.6c-1.4,0.8-2.7,1.2-3.2,1.1c-2.5-0.9-9.2-15.4-8-19.6
			C207.9,264.3,210.1,263.6,210.1,263.6z"/>
	</g>
	<path class="st14" d="M265.9,257.5c1.2,2.3,0.3,6.4-4.6,6.1c-5-0.3-9.2-4.8-9.8-8.4c-2-0.3-3.7,0.1-3.7,0.1s1.6,10.7,14.3,11.6
		c8.5,0.6,7.6-6.9,6.8-8.4C267.7,257.7,265.9,257.5,265.9,257.5z"/>
	<g>
		<path class="st17" d="M356.8,202.4c5.6,3.3,16.3-3,10.9-13.6c11.5,7.6,23.6-12.4,10.8-25.7c17-7.6,20.9-40.3-1.2-49.3
			c10.7-5.9,2.8-14.3-2.5-13.7c7.8-13.6-6.8-29.8-16.7-26.4c3.2-17.2-21.4-33.5-33.1-19.9c0.5-16.3-11.6-10.2-13.5-5.7
			c-2.1-13.6-13.1-14.7-21.4-8c-1.8-15.7-14.3-8.8-16.2-1.3c-6.5-16-32-7-29.3,8.5c-7.8-5.8-11.5-0.2-7.3,3.8
			c-9.3-3.3-29.8,10.2-30.8,23.2c-14.2-9.7-23.7,7.6-9.2,12.1c-16,0.5-12.7,11.2-3.6,10.7c-10,6.8-24.5,32.1-10.9,42.5
			c-17.1,11.5-4.1,21,1.6,20.1c-15,12.6,0.1,38.6,15.9,33.1C211.1,192.1,356.8,202.4,356.8,202.4z"/>
		<g>
			<path class="st0" d="M370.5,166.6c1.7,24.5-14.2,92.8-81.1,92.3c-66.5-0.5-89.5-52.5-87.7-98.3c2.1-55.3,51.6-77.3,89.6-72.9
				C350.8,94.4,368.3,133.8,370.5,166.6z"/>
			<path class="st1" d="M370.5,166.6c-2.2-32.8-19.8-72.2-79.2-79c-4.6-0.5-9.4-0.7-14.3-0.4c-9.2,0.6-17.5,2.3-25,5
				c-0.1,0-0.2,0.1-0.3,0.1c-0.7,0.3-1.5,0.5-2.2,0.8c-0.5,0.2-1,0.4-1.6,0.6c-0.4,0.2-0.9,0.3-1.3,0.5
				c-23.9,10.3-43.5,31.8-44.9,66.2c-0.1,4-0.1,8,0.1,12c0.2-0.2,0.5-0.4,0.7-0.7c9.9,13.7,25.1,9.7,17.6-6.6
				c10.9,6.2,18.7-6.5,15.2-17.8c3,3.6,15.8,2.6,20.1-10.8c8.7,10.7,15.6,4.9,15.4-5.3c7.2,9.7,20.1,6.4,21.9-2
				c3.2,4.9,13.9,7.1,15.4-1.6c-1.6,7.4,9.8,11,18.3,4.2c-2.4,6,10.5,14.3,16.3,6.2c-1.2,6.6-0.5,17,11.4,11
				c-4.2,5.5,1.9,11.8,6.7,11.5c-0.9,4.3,6.7,14.3,9.5,17C370.7,173.5,370.8,169.7,370.5,166.6z"/>
			<path class="st18" d="M323.7,194.7c-3.8,4.4-0.6,13.4,7.4,17.7c8,4.3,16.2,2.2,20.4-3.3c3.9-5,1.5-14.2-9.3-15.3
				C332.2,192.9,327.7,190.2,323.7,194.7z"/>
			<path class="st19" d="M347.1,203.3c-0.5,0.6-0.2,1.6,0.5,2.2c0.8,0.6,1.8,0.7,2.3,0.1c0.5-0.6,0.3-1.6-0.5-2.2
				C348.6,202.7,347.6,202.7,347.1,203.3z"/>
			<path class="st20" d="M298.7,185.6c-0.1,0.8,0.7,1.5,1.8,1.8c1.1,0.2,2.2-0.2,2.3-1c0.1-0.7-0.7-1.5-1.8-1.8
				C299.8,184.5,298.8,184.9,298.7,185.6z"/>
			<path class="st18" d="M229.6,183.5c0.4,8,8,13.5,18.4,14c10,0.5,20.1-7.1,18.3-14.5c-1.7-7-7.2-4.6-18.8-8.8
				C236.3,170.2,229.2,175.6,229.6,183.5z"/>
			<path class="st19" d="M236.6,179.4c0,0.7,0.8,1.3,1.8,1.2c0.9,0,1.7-0.7,1.6-1.4c0-0.7-0.8-1.3-1.8-1.2
				C237.3,178.1,236.6,178.7,236.6,179.4z"/>
			<path class="st21" d="M343,155.5c-7.9-5.6-13.1,3.4-7.3,5.5c6.2,2.2,10.6,6.3,11.6,6C349.4,166.3,347.4,158.7,343,155.5z"/>
			<path class="st21" d="M256.5,140.5c9.2-2.7,11.3,7.4,5.1,7.5c-6.6,0.1-12.1,2.6-12.9,1.9C246.9,148.6,251.3,142,256.5,140.5z"/>
			<path class="st1" d="M201.5,158.5c1-15.4,8-27,18.3-35.5c-6.4,7.8-11.7,19.9-12.4,32c-2.9,44.9,23.3,98.7,84.2,97.4
				c41.9-0.9,63.5-33.1,73.6-59.9c-8.5,28-25.2,60.2-74.9,63.1C231.8,259,198.6,203.5,201.5,158.5z"/>
			<g>
				<path class="st0" d="M212.7,174.9c0,0-2.9-10.8-14.6-10.9c-12.3,0-14.7,17.5-6.7,27.7c8.1,10.2,21.8,10.2,24.8,1L212.7,174.9z"
					/>
				<path class="st1" d="M199.4,165c3,0,5.3,0.8,7.2,1.9c-1.5-0.8-3.2-1.3-5.2-1.2c-11.5,0.5-11.7,14-7.1,21.7
					c6.2,10.4,17.2,10.8,22.2,4.4c-2.7,8.6-15.6,8.5-23.2-1C185.7,181.3,187.9,165,199.4,165z"/>
				<path class="st22" d="M196.4,169.2c7.7-2.6,16.2,12.8,6.7,22.5c3-12-1.7-15.4-6.6-9.2c-0.4-3.7,1.2-6.3,6-6.5
					C201.4,171.1,196.4,169.2,196.4,169.2z"/>
			</g>
			<path class="st12" d="M298.3,195.1c-0.1-0.1-0.2-0.2-0.2-0.3c0-0.2,0.1-0.5,0.4-0.5c4.3-0.6,5.3-3.6,5.5-4.9
				c0.4-2.5-0.7-5-2.5-5.9c-2-0.9-4.4,0-6.8,2.8c-0.2,0.2-0.5,0.2-0.6,0c-0.2-0.2-0.2-0.5,0-0.6c3.7-4.1,6.5-3.6,7.9-3
				c2.2,1,3.5,4,3,6.8c-0.5,3.1-2.8,5.2-6.2,5.6C298.5,195.2,298.3,195.2,298.3,195.1z"/>
			<g>
				<path class="st23" d="M296.5,207.5c-0.6-0.1-6.2-0.6-15-5.6c-8.8-4.9-20.5-11.8-29.2,0c-8.7,11.8-7.9,32.1,2.3,35
					c10.2,2.9,21.3-1.8,34.9,0.9c11.1,2.3,25.5,12.1,33.8,3.4c8.3-8.7,8.4-25,0.8-31.4C313.2,200.6,305.2,208.4,296.5,207.5z"/>
				<path class="st24" d="M255.1,209.1c4.9-1.7,10.3,1.5,14.6,3.5c1.4,0.7,1.1,4.5,3.6,5c2.6,0.5,3-3.6,4.2-3.8
					c4.7-0.6,8.4-2.8,14.1,1.6c4.8,3.7,5.6,15.1-0.8,19.7c-1,0.7-1.9,1.6-2.6,2.5c-9.2-1.5-17.3,0.2-24.7,0.3
					c-1.1-2.4-2.4-4.2-3.9-5.1C247.2,225.5,247.8,211.6,255.1,209.1z"/>
				<path class="st25" d="M281.5,203.4c8.7,4.9,14.6,5.5,15.2,5.6c7.8,0.8,17.7-3.8,26.4,1.5c1.4,3.3-2.6,6.7-9.7,6.3
					c-11.7-1.7-45.2-6.5-50.3-11c-3.4-3-6-4-6.5-6.4C262,195,275.3,199.9,281.5,203.4z"/>
				<path class="st25" d="M296.5,225.5c15.3,3.1,22.6,9,21.5,18.1c-7.6-0.5-13.7-5.9-21.1-7.4c-13-2.6-38,2.7-46-2.9
					c-4-2.3,2.7-16.4,18.5-10C284,227.4,294.3,230.1,296.5,225.5z"/>
				<path class="st26" d="M288.2,223c15.3,3.1,25.4,10.9,24.4,20c-7.6-0.5-15.6-5.4-23.1-6.9c-13-2.6-23.5,1.8-33.3-0.3
					c-0.1-1.1-0.2-0.7,0-1.7C258.1,224.7,272.4,219.8,288.2,223z"/>
				<path class="st27" d="M288.2,223c8.9,1.8,16.3,5.8,20.8,10.6c3.2,3.5-12.2,1.7-19.7,0.2c-13-2.6-27.7-8.2-21.5-10.2
					C273.5,221.8,280.7,221.4,288.2,223z"/>
				<path class="st28" d="M296.4,227.4c1,0.2,1.8,0.7,2.3,1.4c0.3,0.5-1.4,0.4-2.2,0.2c-1.4-0.3-3.1-1-2.4-1.4
					C294.7,227.3,295.5,227.2,296.4,227.4z"/>
				<path class="st29" d="M324.1,213.5c-11.3-9.2-19.3-1.6-28.2-2.6c-0.6-0.1-6.3-0.6-15.3-5.6c-8.9-4.9-20.9-11.7-29.7-0.2
					c-0.8,1.1-1.6,2.2-2.2,3.4c0.9-2.4,2.1-4.6,3.6-6.6c8.7-11.8,20.5-5,29.2,0c8.7,4.9,14.3,5.5,15,5.6c8.7,0.9,16.7-6.9,27.7,2.4
					c3.9,3.3,5.7,9.1,5.5,15.2C329.2,220.4,327.3,216.1,324.1,213.5z"/>
				<path class="st29" d="M254.7,233.5c10.4,3,21.7-1.9,35.6,0.9c11.4,2.3,26,12.4,34.5,3.5c1.4-1.4,2.5-3.1,3.4-4.9
					c-1.1,3-2.7,5.8-4.9,8.1c-8.3,8.7-22.7-1.2-33.8-3.4c-13.6-2.8-24.7,2-34.9-0.9c-5.8-1.7-8.6-9-8.2-17.1
					C246.9,226.5,249.6,232.1,254.7,233.5z"/>
			</g>
			<path class="st21" d="M246.5,170.1c-0.2,0-0.4-0.2-0.4-0.4c-0.1-0.3,0-0.7,0.3-0.8c6.5-2.7,18.8-3.1,27.1-1
				c-3.4-5.5-14.3-9.7-21.3-7.8c-0.3,0.1-0.7-0.1-0.8-0.5c-0.1-0.3,0.1-0.7,0.5-0.8c8.1-2.2,20.8,3.1,23.4,9.8
				c0.1,0.2,0,0.5-0.1,0.7c-0.2,0.2-0.4,0.2-0.7,0.2c-8-2.5-21-2.2-27.7,0.6C246.8,170.1,246.6,170.1,246.5,170.1z"/>
			<path class="st21" d="M342.5,189.1c-0.1,0-0.3-0.1-0.4-0.2c-4-4.9-13.8-10.2-20.9-11.2c-0.3-0.1-0.4-0.2-0.5-0.4
				c-0.1-0.2,0-0.5,0.2-0.7c4.7-4.7,16.5-4.2,21.9,0.8c0.3,0.2,0.3,0.6,0,0.9c-0.2,0.3-0.7,0.3-0.9,0c-4.5-4.2-14.4-4.9-19.1-1.7
				c0.2,0,0.3,0.1,0.4,0.1c7.1,1.6,16,6.6,19.8,11.4c0.2,0.3,0.2,0.7-0.1,0.9C342.9,189.1,342.7,189.2,342.5,189.1z"/>
		</g>
		<path class="st17" d="M372.4,171.2c-0.8,4.3-10.6-5.6-9-13c-4.8,0.3-10.3-8.4-6.1-13.8c-11.9,6-9.4-6.5-14-12.9
			c-5.8,8.1-21.5-0.9-19.1-6.9c-8.5,6.8-19.9,3.2-18.3-4.2c-1.5,8.6-12.2,6.5-15.4,1.6c-1.8,8.4-14.7,11.7-21.9,2
			c0.2,10.2-6.6,15.9-15.3,5.3c-4.3,13.4-17.1,14.4-20.1,10.8c3.6,11.3-4.3,24-15.2,17.8c7.5,16.3-7.7,20.3-17.6,6.6
			c-5.6,6.2-11.8-2.9-12-10.9c-0.2-8,28.9-88.6,116.3-71.7C368.5,94.2,376,151.4,372.4,171.2z"/>
		<path class="st30" d="M360.4,102.8c18.8-1.6-22.5-49.6-50.8-38.8C329.2,68.4,344.5,104.2,360.4,102.8z"/>
		<path class="st30" d="M307,64c-22.4-25.2-73-9.9-88.5,11.9c-15.5,21.8-1.1,19,13,7.7C245.5,72.2,280.8,44.8,307,64z"/>
		<path class="st30" d="M307.1,67.6c-21.8-9.1-65.1,12.2-50.8,33.1c9.9,14.4,31.5-0.9,33.9-15.6C293.1,68.2,307.1,67.6,307.1,67.6z"
			/>
		<path class="st31" d="M199.7,98.8c-7.3,6.5-21.2,30.8-1,37.5c-6.6,5.7,10.2,21.4,15.9,1.8c3.7,8,13.5,7.3,15.7-6.5
			c4,10.1,4,22.9-11.1,18.2c2.6,8.5-7.2,17.1-13.8,7.8c-6.7,3.5-7.5,1.9-8.5-2.4c-9.4,6.6-14.3,16.3-9.5,28
			c-5.9-6.8-3.2-27.2,5.1-32.4c-13.7,3.1-13.6-2-3.7-9.2C172.5,114.5,199.7,98.8,199.7,98.8z"/>
		<path class="st31" d="M377.7,118.6c0,0,22.9,22.2-2.7,40.6c3.8,8.9,10,25.2-5.2,27c5.9-13.2,2.2-19.4,2.2-19.4s-8.8-8.4-4.9-13.8
			c-4.5-3.7-9.7-10.1-4.7-16.2c3.3,9.6,9.4,10.4,9.7,1.4C380.1,156.9,388.9,136.4,377.7,118.6z"/>
	</g>
</g>
</svg>
