<?xml version="1.0" encoding="utf-8"?>
<!-- Generator: Adobe Illustrator 22.1.0, SVG Export Plug-In . SVG Version: 6.00 Build 0)  -->
<svg version="1.1" id="Layer_1" xmlns="http://www.w3.org/2000/svg" xmlns:xlink="http://www.w3.org/1999/xlink" x="0px" y="0px"
	 viewBox="0 0 362 213" style="enable-background:new 0 0 362 213;" xml:space="preserve">
<style type="text/css">
	.st0{fill:#005689;}
	.st1{fill:#9BDBF1;}
	.st2{fill:#2495CD;}
	.st3{fill:#259AD6;}
	.st4{fill:#FFFFFF;}
	.st5{fill:#4495B6;}
	.st6{fill:#A5DBEA;}
	.st7{fill:#27A7D4;}
	.st8{fill:#FFD100;}
	.st9{font-family:'Rockwell-ExtraBold';}
	.st10{font-size:45.3012px;}
</style>
<path class="st0" d="M298.1,60.7c-2.5-5.6-5.9-10.8-10.2-14.9c-6.8-6.5-15.5-11.3-26.2-14.2c-4.7-1.3-9.8-2.2-15.2-2.8
	c-7.2-0.8-15-0.8-23.1-0.3c-9.2,0.7-18.8,2.1-28.6,4.5c-6,1.4-11.8,2.6-17.4,3.7c-12,2.2-23,3.5-32.8,4.2c-13.5,1-24.8,0.9-33.4,0.4
	c-0.4,0-0.9-0.1-1.3-0.1c-12.8-0.8-18.1-2-26-3.5c-2.3-0.4-5-1.4-7.3-0.7c-3.1,1-5.8,13.4-6.7,16.3c-0.8,2.4,0.1,5.7,2.7,6.5
	c2,0.6,16.5,3.3,23.9,4.4c4.5,0.7,9,0.9,13.5,1.2c9.2,0.5,20,0.6,32.3-0.1c12.4-0.8,26.3-2.4,41.6-5.3c5.3-1,10.8-2.2,16.5-3.5
	c7.3-1.7,14.5-2.9,21.3-3.6c7.9-0.8,15.4-0.8,22.3-0.1c2.4,0.3,4.7,0.6,6.9,1c8.7,1.8,15.7,4.9,20.3,9.3c1.5,1.5,2.8,3.1,3.9,4.8
	c3.6,6,4.5,13.7,2.3,23.3c-0.1,0.3-0.2,0.6-0.2,1c-2.3,8.1-8.9,11.7-16.7,13c-5.1,0.8-10.8,0.7-15.9,0.2c-2.6-0.3-5.3-0.6-7.9-1.1
	c-12.5-2-24.9-5.6-37.1-8.8c-0.8-0.2-1.7-0.4-2.5-0.7c-12.1-3.2-24.5-6.5-36.6-9c-9.3-1.9-18.4-3.4-27.2-4c-6-0.4-12.5-0.1-18.8,0.6
	c-3.1,0.4-6.2,0.8-9.1,1.3c-9.1,1.6-20.3,8.5-26.7,15c-4,4.1-7.3,9.9-9.6,15.6c-0.8,1.9-1.4,3.7-2,5.5c-4.2,13.9-2.6,30.7,4.2,44.3
	c5,9.9,12.8,18,23.3,22c3.1,1.2,6.2,2.1,9.4,2.7c12.7,2.5,25.4,0.7,37-1.5c1.3-0.2,2.6-0.5,3.9-0.7c1.7-0.3,3.3-0.6,4.9-0.9
	c9.9-1.8,19.8-3,29.8-3.7c11.4-0.8,22.7-1,33.8-0.5c5.4,0.3,10.7,0.7,15.9,1.2c7.2,0.8,14.1,2,20.7,3.5c6,1.4,11.6,3,17,4.9
	c1.3,0.5,15,5.5,16.3,5.9c9.5,2.4,15.7-18.6,7.5-22.9c-8.4-4.3-30.8-10.5-39-12.2c-6.4-1.3-13-2.4-19.9-3.1c-5-0.6-10.1-1-15.2-1.3
	c-13.6-0.7-27.6-0.5-41.6,0.6c-9.9,0.8-19.7,2.1-29.5,3.8c-0.5,0.1-1,0.2-1.5,0.3c-1.2,0.2-2.4,0.4-3.6,0.7
	c-12.4,2.3-24.2,4.5-34.5,1.6c-0.9-0.3-1.8-0.6-2.7-0.9c-6-2.3-9.9-7.2-12-13.1c-3-8.3-2.6-18.6,0.3-26.9c1.2-3.4,2.9-6.5,5-8.9
	c5.6-6.5,14.5-8.7,23.2-9.2c4.1-0.2,8.1-0.1,11.8,0.2c6.3,0.4,13.1,1.4,20.1,2.8c12.6,2.4,26.1,6,39.2,9.5c2.3,0.6,4.5,1.2,6.8,1.8
	c10.4,2.8,20.6,5.3,30.3,7.2c13.4,2.6,25.9,3.9,36.9,2.5c6.9-0.9,13.1-2.9,18.6-6.3c5.5-3.5,11.2-9.6,14.2-15.4
	c0.1-0.1,0.1-0.2,0.2-0.4C304.8,93.7,304.6,75.4,298.1,60.7z"/>
<g>
	<g>
		<path class="st1" d="M108.9,36.3c-12.8-0.8-18.1-2-26-3.5c-2.3-0.4-5-1.4-7.3-0.7c-3.1,1-5.8,13.4-6.7,16.3
			c-0.8,2.4,0.1,5.7,2.7,6.5c2,0.6,16.5,3.3,23.9,4.4c4.5,0.7,9,0.9,13.5,1.2C108.4,52.5,108.7,44.4,108.9,36.3z"/>
		<path class="st2" d="M109,61.5C109,61.5,109,61.5,109,61.5l-1.4-0.1c-4-0.2-8.2-0.5-12.3-1.1c-7.3-1.1-21.9-3.8-24-4.4
			c-1.3-0.4-2.3-1.2-3-2.5c-0.8-1.6-1-3.6-0.5-5.3c0.2-0.5,0.4-1.4,0.7-2.5c1.9-7.1,3.9-13.6,6.7-14.5c0.7-0.2,1.4-0.3,2.2-0.3
			c1.4,0,2.8,0.3,4.2,0.6c0.5,0.1,1,0.2,1.4,0.3l1.9,0.4c6.9,1.3,12.3,2.4,24,3.2c0.6,0,1,0.5,1,1.1l-0.1,2.4
			c-0.2,7.1-0.4,14.5,0.2,21.7c0,0.3-0.1,0.6-0.3,0.8C109.6,61.4,109.3,61.5,109,61.5z M77.5,32.9c-0.6,0-1.1,0.1-1.6,0.2
			c-2,0.6-4.4,9.7-5.3,13.1c-0.3,1.1-0.5,2-0.7,2.5c-0.4,1.2-0.3,2.6,0.3,3.7c0.3,0.5,0.8,1.2,1.7,1.5c1.9,0.5,16.1,3.2,23.8,4.4
			c4,0.6,8.1,0.8,12.1,1.1l0.2,0c-0.5-6.9-0.3-13.9-0.1-20.7l0-1.4c-11.2-0.8-16.5-1.8-23.3-3.1l-1.9-0.4c-0.5-0.1-1-0.2-1.5-0.3
			C79.9,33.2,78.7,32.9,77.5,32.9z"/>
	</g>
	<g>
		<path class="st3" d="M110.2,36.4c-0.4,0-0.9-0.1-1.3-0.1c-0.2,8-0.5,16.1,0.1,24.1c9.2,0.5,20,0.6,32.3-0.1
			c0.6-8.2,1.7-16.2,2.3-24.3C130.1,37,118.8,36.9,110.2,36.4z"/>
		<path class="st2" d="M123.8,61.9c-5,0-10-0.1-14.8-0.4c-0.5,0-0.9-0.4-1-0.9c-0.6-7.3-0.4-14.7-0.2-21.9l0.1-2.4
			c0-0.3,0.1-0.5,0.3-0.7c0.2-0.2,0.5-0.3,0.8-0.3c0.4,0,0.9,0.1,1.3,0.1c4.3,0.2,8.8,0.4,13.3,0.4c6.5,0,13.2-0.3,19.9-0.8
			c0.3,0,0.6,0.1,0.8,0.3c0.2,0.2,0.3,0.5,0.3,0.8c-0.3,4.1-0.7,8.3-1.2,12.4c-0.4,3.9-0.9,7.9-1.1,11.9c0,0.5-0.4,0.9-1,1
			C135.5,61.7,129.5,61.9,123.8,61.9z M110,59.5c9.7,0.5,20,0.5,30.4-0.1c0.3-3.7,0.7-7.5,1.1-11.1c0.4-3.6,0.8-7.4,1.1-11.1
			c-6.4,0.4-12.8,0.7-18.9,0.7c-4.6,0-9.1-0.1-13.5-0.4c-0.1,0-0.2,0-0.3,0l0,1.3C109.7,45.6,109.5,52.6,110,59.5z"/>
	</g>
	<g>
		<path class="st1" d="M143.6,36c-0.5,8.1-1.7,16.2-2.3,24.3c12.4-0.8,26.3-2.4,41.6-5.3c-2.5-7.7-4.6-15.5-6.5-23.3
			C164.4,34,153.4,35.3,143.6,36z"/>
		<path class="st2" d="M141.3,61.4c-0.3,0-0.5-0.1-0.7-0.3c-0.2-0.2-0.3-0.5-0.3-0.8c0.3-4,0.7-8.1,1.1-12c0.4-4,0.9-8.2,1.1-12.3
			c0-0.5,0.4-0.9,1-1c10.7-0.8,21.7-2.2,32.7-4.2c0.5-0.1,1.1,0.2,1.2,0.8c2.1,8.8,4.2,16.3,6.5,23.2c0.1,0.3,0.1,0.6-0.1,0.8
			c-0.1,0.3-0.4,0.4-0.7,0.5C169,58.8,155,60.6,141.3,61.4C141.4,61.4,141.4,61.4,141.3,61.4z M144.6,37c-0.3,3.9-0.7,7.7-1.1,11.5
			c-0.4,3.5-0.8,7.2-1,10.8c12.7-0.8,25.9-2.5,39.2-5c-2.1-6.4-4-13.4-5.9-21.3C165.2,34.9,154.7,36.2,144.6,37z"/>
	</g>
	<g>
		<path class="st3" d="M193.9,28.1c-6,1.4-11.8,2.6-17.4,3.7c1.9,7.8,4,15.6,6.5,23.3c5.3-1,10.8-2.2,16.5-3.5
			c7.3-1.7,14.5-2.9,21.3-3.6c1.5-8,1.1-16.2,1.7-24.3C213.3,24.3,203.7,25.8,193.9,28.1z"/>
		<path class="st2" d="M183,56.1c-0.4,0-0.8-0.3-1-0.7c-2.3-6.9-4.4-14.6-6.5-23.4c-0.1-0.3,0-0.6,0.1-0.8c0.2-0.2,0.4-0.4,0.7-0.5
			c5.8-1.1,11.6-2.3,17.4-3.7c9.8-2.3,19.5-3.8,28.8-4.5c0.3,0,0.6,0.1,0.8,0.3c0.2,0.2,0.3,0.5,0.3,0.8c-0.2,2.7-0.3,5.6-0.4,8.3
			c-0.2,5.3-0.4,10.8-1.4,16.1c-0.1,0.5-0.5,0.8-0.9,0.8c-6.8,0.7-13.9,1.9-21.1,3.6c-5.5,1.3-11,2.5-16.5,3.5
			C183.1,56.1,183,56.1,183,56.1z M177.7,32.6c1.9,7.9,3.9,14.9,6,21.3c5.2-1,10.4-2.1,15.6-3.3c7-1.7,14-2.9,20.6-3.5
			c0.9-5,1-10.1,1.2-15c0.1-2.4,0.2-4.8,0.3-7.2c-8.8,0.7-18,2.2-27.3,4.4C188.7,30.4,183.1,31.6,177.7,32.6z"/>
	</g>
	<g>
		<path class="st1" d="M245.5,23.9c-7.2-0.8-15-0.8-23.1-0.3c-0.6,8.1-0.2,16.3-1.7,24.3c7.9-0.8,15.5-0.8,22.3-0.1
			c2.4,0.3,4.7,0.6,6.9,1c3.2-7.5,7.9-14.6,10.8-22.2C256,25.4,250.9,24.5,245.5,23.9z"/>
		<path class="st2" d="M249.9,49.9c-0.1,0-0.1,0-0.2,0c-2.2-0.4-4.5-0.8-6.8-1c-6.7-0.7-14.2-0.7-22.1,0.1c-0.3,0-0.6-0.1-0.9-0.3
			c-0.2-0.2-0.3-0.6-0.3-0.9c1-5.2,1.2-10.6,1.3-15.8c0.1-2.7,0.2-5.6,0.4-8.4c0-0.5,0.4-0.9,1-0.9c8.2-0.6,16.1-0.5,23.2,0.3
			c5.4,0.6,10.6,1.5,15.3,2.8c0.3,0.1,0.5,0.3,0.6,0.5c0.1,0.3,0.1,0.6,0,0.8c-1.6,4.1-3.7,8.1-5.7,11.9c-1.8,3.3-3.6,6.8-5.1,10.3
			C250.7,49.7,250.3,49.9,249.9,49.9z M232.8,46.3c3.6,0,7.1,0.2,10.3,0.5c2.1,0.2,4.2,0.5,6.2,0.9c1.4-3.3,3.2-6.5,4.8-9.7
			c1.8-3.5,3.7-7,5.2-10.6c-4.3-1.1-9-2-13.9-2.5c-6.8-0.7-14.2-0.8-22-0.3c-0.2,2.5-0.2,5-0.3,7.4c-0.2,4.9-0.3,9.9-1.1,14.8
			C225.7,46.5,229.3,46.3,232.8,46.3z"/>
	</g>
	<g>
		<path class="st1" d="M263.7,124.7c-1.6-8.1-3-16.3-4.3-24.4c-5.1,0.8-10.8,0.7-15.9,0.2c-2.6-0.3-5.3-0.6-7.9-1.1
			c-2.2,7.8-5.8,15.2-8.7,22.8C240.2,124.8,252.7,126.1,263.7,124.7z"/>
		<path class="st2" d="M254,126.3L254,126.3c-7.8,0-16.8-1-27.4-3.1c-0.3-0.1-0.6-0.2-0.7-0.5c-0.1-0.3-0.2-0.6-0.1-0.9
			c0.9-2.4,1.9-4.8,2.9-7.1c2.1-5,4.3-10.2,5.8-15.5c0.1-0.5,0.6-0.8,1.2-0.7c2.8,0.5,5.4,0.8,7.8,1c6,0.6,11.3,0.6,15.7-0.1
			c0.3,0,0.5,0,0.8,0.2c0.2,0.2,0.4,0.4,0.4,0.7c1.3,8.1,2.7,16.2,4.3,24.3c0.1,0.3,0,0.6-0.2,0.8c-0.2,0.2-0.4,0.4-0.7,0.4
			C260.8,126.1,257.5,126.3,254,126.3z M228.2,121.4c10,1.9,18.5,2.8,25.8,2.8h0c2.9,0,5.8-0.2,8.4-0.4c-1.4-7.4-2.8-14.9-4-22.3
			c-4.3,0.6-9.4,0.6-15.2,0c-2.2-0.2-4.5-0.5-7-0.9c-1.5,5.1-3.6,10.1-5.6,14.9C229.9,117.4,229,119.4,228.2,121.4z"/>
	</g>
	<g>
		<path class="st3" d="M226.8,122.2c2.9-7.6,6.5-14.9,8.7-22.8c-12.5-2-24.9-5.6-37.1-8.8c-0.6,8.2-0.9,16.4-1.9,24.4
			C206.9,117.7,217.1,120.3,226.8,122.2z"/>
		<path class="st2" d="M226.8,123.2c-0.1,0-0.1,0-0.2,0c-9.3-1.8-18.9-4.2-30.4-7.3c-0.5-0.1-0.8-0.6-0.8-1.1
			c0.7-5.7,1.1-11.6,1.4-17.4c0.1-2.3,0.3-4.6,0.5-7c0-0.3,0.2-0.6,0.4-0.8c0.3-0.2,0.6-0.2,0.9-0.2c1.4,0.4,2.9,0.8,4.3,1.2
			c10.7,2.9,21.7,5.9,32.7,7.7c0.3,0,0.5,0.2,0.7,0.5c0.2,0.2,0.2,0.6,0.1,0.8c-1.5,5.4-3.7,10.7-5.9,15.8c-1,2.3-2,4.7-2.9,7.1
			C227.6,123,227.2,123.2,226.8,123.2z M197.6,114.2c10.7,2.8,19.8,5.1,28.6,6.8c0.8-2.1,1.7-4.3,2.6-6.3c1.9-4.7,4-9.5,5.5-14.4
			c-10.7-1.8-21.4-4.7-31.8-7.5c-1-0.3-2.1-0.6-3.1-0.8c-0.1,1.9-0.3,3.8-0.4,5.7C198.6,103,198.3,108.7,197.6,114.2z"/>
	</g>
	<g>
		<path class="st1" d="M189.7,113.2c2.3,0.6,4.5,1.2,6.8,1.8c1-8,1.3-16.2,1.9-24.4c-0.8-0.2-1.7-0.4-2.5-0.7
			c-12.1-3.2-24.5-6.5-36.6-9c-2.5,7.7-5.7,15.2-8.8,22.8C163.2,106.1,176.6,109.7,189.7,113.2z"/>
		<path class="st2" d="M196.5,116c-0.1,0-0.2,0-0.3,0c-2.3-0.6-4.5-1.2-6.8-1.8c-13-3.5-26.5-7-39.1-9.5c-0.3-0.1-0.6-0.2-0.7-0.5
			c-0.1-0.3-0.2-0.6-0.1-0.9c0.6-1.6,1.3-3.2,1.9-4.8c2.4-5.8,4.8-11.9,6.8-17.9c0.2-0.5,0.7-0.8,1.2-0.7c12.1,2.5,24.6,5.8,36.7,9
			c0.8,0.2,1.7,0.4,2.5,0.7c0.5,0.1,0.8,0.6,0.8,1.1c-0.2,2.3-0.3,4.6-0.5,7c-0.4,5.8-0.7,11.7-1.4,17.5c0,0.3-0.2,0.6-0.4,0.7
			C196.9,115.9,196.7,116,196.5,116z M151.9,102.9c12.3,2.4,25.4,5.9,38,9.3c1.9,0.5,3.8,1,5.6,1.5c0.6-5.4,1-10.9,1.3-16.2
			c0.1-2,0.3-4.1,0.4-6.1c-0.6-0.1-1.1-0.3-1.7-0.4c-11.7-3.1-23.9-6.4-35.7-8.8c-2,5.8-4.3,11.6-6.6,17.2
			C152.9,100.5,152.4,101.7,151.9,102.9z"/>
	</g>
	<g>
		<path class="st3" d="M130.5,100.9c6.3,0.4,13.1,1.4,20.1,2.8c3-7.6,6.2-15.1,8.8-22.8c-9.3-1.9-18.4-3.4-27.2-4
			c-6-0.4-12.5-0.1-18.8,0.6c1.6,7.8,3.6,15.4,5.3,23.2C122.7,100.5,126.8,100.6,130.5,100.9z"/>
		<path class="st2" d="M150.5,104.7c-0.1,0-0.1,0-0.2,0c-7.5-1.4-14.1-2.3-20-2.8c-2.8-0.2-5.4-0.3-7.7-0.3c-1.4,0-2.7,0-4,0.1
			c-0.5,0-0.9-0.3-1.1-0.8c-0.6-2.9-1.3-5.8-2-8.6c-1.1-4.8-2.3-9.8-3.3-14.7c-0.1-0.3,0-0.6,0.2-0.8c0.2-0.2,0.4-0.4,0.7-0.4
			c7-0.8,13.4-1,18.9-0.6c8,0.6,17,1.9,27.3,4c0.3,0.1,0.5,0.2,0.7,0.5c0.1,0.3,0.2,0.6,0.1,0.8c-2,6.1-4.5,12.2-6.9,18.1
			c-0.6,1.6-1.3,3.2-1.9,4.8C151.3,104.4,150.9,104.7,150.5,104.7z M122.7,99.6c2.4,0,4.9,0.1,7.8,0.3c5.7,0.4,12.1,1.3,19.4,2.6
			c0.5-1.3,1.1-2.7,1.6-4c2.2-5.5,4.5-11.1,6.4-16.9c-9.8-2-18.3-3.2-25.9-3.7c-5.1-0.4-11.1-0.2-17.5,0.5c0.9,4.5,2,9.1,3.1,13.5
			c0.6,2.5,1.2,5.1,1.8,7.7C120.5,99.6,121.6,99.6,122.7,99.6z"/>
	</g>
	<g>
		<path class="st1" d="M95.4,109.9c5.6-6.5,14.5-8.7,23.2-9.2c-1.8-7.8-3.8-15.4-5.3-23.2c-3.1,0.4-6.2,0.8-9.1,1.3
			c-9.1,1.6-20.3,8.5-26.7,15c-4,4.1-7.3,9.9-9.6,15.6c7.5,3.3,15.1,6.2,22.5,9.4C91.7,115.4,93.4,112.3,95.4,109.9z"/>
		<path class="st2" d="M90.5,119.8c-0.1,0-0.3,0-0.4-0.1c-3.7-1.6-7.5-3.1-11.1-4.7c-3.7-1.5-7.6-3.1-11.4-4.7
			c-0.5-0.2-0.8-0.8-0.5-1.3c2.6-6.4,6.1-12,9.8-15.9c6.1-6.3,17.4-13.6,27.2-15.3c3.1-0.5,6.1-1,9.1-1.3c0.5-0.1,1,0.3,1.1,0.8
			c1,4.9,2.2,9.8,3.3,14.6c0.7,2.8,1.4,5.7,2,8.6c0.1,0.3,0,0.6-0.2,0.8c-0.2,0.2-0.5,0.4-0.8,0.4c-10.5,0.6-17.9,3.4-22.5,8.8
			c-1.9,2.2-3.6,5.2-4.8,8.6c-0.1,0.3-0.3,0.5-0.6,0.6C90.8,119.8,90.6,119.8,90.5,119.8z M69.3,108.9c3.5,1.5,7,2.9,10.4,4.3
			c3.4,1.4,6.8,2.8,10.2,4.2c1.3-3.2,2.9-6,4.8-8.2c4.8-5.6,12.3-8.7,22.7-9.5c-0.6-2.5-1.2-5-1.7-7.4c-1.1-4.5-2.2-9.1-3.1-13.7
			c-2.7,0.3-5.4,0.7-8.1,1.2c-9.4,1.6-20.2,8.7-26.1,14.7C75,98,71.8,103.1,69.3,108.9z"/>
	</g>
	<g>
		<path class="st3" d="M90.5,118.8c-7.4-3.2-15-6.1-22.5-9.4c-0.8,1.9-1.4,3.7-1.9,5.5c-4.2,13.9-2.6,30.7,4.2,44.3
			c6.7-4.4,13.2-9.2,19.9-13.5C87.1,137.4,87.5,127,90.5,118.8z"/>
		<path class="st2" d="M70.3,160.2c-0.1,0-0.2,0-0.3,0c-0.3-0.1-0.5-0.3-0.7-0.5c-6.9-13.6-8.5-30.9-4.3-45.1c0.6-1.8,1.2-3.7,2-5.6
			c0.1-0.3,0.3-0.5,0.6-0.6c0.3-0.1,0.5-0.1,0.8,0c3.8,1.6,7.6,3.2,11.3,4.7c3.7,1.5,7.5,3.1,11.2,4.7c0.5,0.2,0.7,0.8,0.6,1.3
			c-3,8.4-3.1,18.4-0.3,26.2c0.2,0.5,0,1-0.4,1.2c-3.7,2.4-7.4,5-11,7.5c-2.9,2-5.9,4.1-8.9,6C70.6,160.2,70.5,160.2,70.3,160.2z
			 M68.5,110.8c-0.6,1.5-1.1,3-1.5,4.4c-4,13.3-2.6,29.5,3.6,42.5c2.6-1.8,5.3-3.6,7.8-5.4c3.4-2.4,6.9-4.8,10.4-7.1
			c-2.6-7.7-2.5-17.5,0.3-25.9c-3.4-1.5-6.9-2.9-10.3-4.3C75.5,113.7,72,112.3,68.5,110.8z"/>
	</g>
	<g>
		<path class="st1" d="M102.2,158.8c-6-2.3-9.9-7.2-12-13.1c-6.7,4.3-13.2,9.1-19.9,13.5c5,9.9,12.8,18,23.3,22
			c3.1,1.2,6.2,2.1,9.4,2.7c0.5-8.1,1.4-16.1,2-24.3C104,159.4,103.1,159.1,102.2,158.8z"/>
		<path class="st2" d="M102.9,184.9c-0.1,0-0.1,0-0.2,0c-3.3-0.6-6.5-1.6-9.5-2.7c-10.1-3.9-18.4-11.7-23.9-22.5
			c-0.2-0.5-0.1-1,0.3-1.3c3-2,5.9-4,8.8-6c3.6-2.5,7.4-5.1,11.1-7.5c0.3-0.2,0.6-0.2,0.9-0.1c0.3,0.1,0.5,0.3,0.6,0.6
			c2.2,6.2,6.2,10.5,11.4,12.5c0.8,0.3,1.7,0.6,2.7,0.9c0.5,0.1,0.8,0.6,0.7,1.1c-0.2,3.1-0.5,6.2-0.8,9.2c-0.4,4.9-0.9,10-1.2,15.1
			c0,0.3-0.2,0.6-0.4,0.8C103.4,184.9,103.2,184.9,102.9,184.9z M71.6,159.5c5.3,10,13,17.1,22.3,20.7c2.6,1,5.3,1.8,8,2.4
			c0.3-4.7,0.7-9.4,1.1-13.9c0.2-2.7,0.5-5.5,0.7-8.3c-0.7-0.2-1.4-0.4-2-0.7c-5.5-2.1-9.6-6.4-12.2-12.5c-3.4,2.2-6.7,4.5-10,6.8
			C77,155.8,74.3,157.7,71.6,159.5z"/>
	</g>
	<g>
		<path class="st3" d="M139.4,158.1c-12.4,2.3-24.2,4.5-34.5,1.6c-0.6,8.1-1.5,16.2-2,24.3c12.7,2.5,25.4,0.7,37-1.5
			c0.8-8.3,2.2-16.7,3.1-25C141.8,157.6,140.6,157.8,139.4,158.1z"/>
		<path class="st2" d="M116,186.1c-4.7,0-9-0.4-13.2-1.2c-0.5-0.1-0.9-0.6-0.8-1.1c0.3-5.1,0.8-10.2,1.2-15.1c0.3-3,0.5-6.1,0.8-9.1
			c0-0.3,0.2-0.6,0.4-0.8c0.3-0.2,0.6-0.2,0.9-0.1c3.2,0.9,6.8,1.4,10.8,1.4c7.3,0,15-1.4,23.2-3c1.2-0.2,2.4-0.4,3.6-0.7
			c0.3-0.1,0.6,0,0.9,0.3c0.2,0.2,0.4,0.5,0.3,0.9c-0.4,4-1,8.1-1.5,12.1c-0.6,4.2-1.1,8.6-1.6,12.9c0,0.5-0.4,0.8-0.8,0.9
			C133,184.8,124.6,186.1,116,186.1z M104,183.1c3.8,0.7,7.7,1,11.9,1c8.2,0,16.1-1.3,23-2.5c0.4-4.1,1-8.2,1.5-12.2
			c0.5-3.5,0.9-7.1,1.3-10.7c-0.7,0.1-1.5,0.3-2.2,0.4c-8.3,1.5-16.1,3-23.6,3c-3.7,0-7.1-0.4-10.2-1.1c-0.2,2.7-0.5,5.3-0.7,7.9
			C104.7,173.5,104.3,178.3,104,183.1z"/>
	</g>
	<g>
		<path class="st1" d="M144.5,157.1c-0.5,0.1-1,0.2-1.5,0.3c-0.9,8.3-2.2,16.7-3.1,25c1.3-0.2,2.6-0.5,3.9-0.7
			c1.7-0.3,3.3-0.6,4.9-0.9c9.9-1.8,19.8-3,29.8-3.7c-1.5-7.9-2.7-15.9-4.5-23.8C164.2,154.1,154.3,155.4,144.5,157.1z"/>
		<path class="st2" d="M139.9,183.5c-0.3,0-0.5-0.1-0.7-0.3c-0.2-0.2-0.4-0.5-0.3-0.9c0.4-4.3,1-8.7,1.6-13c0.5-4,1.1-8,1.5-12.1
			c0-0.5,0.4-0.8,0.8-0.9l0.6-0.1c0.3-0.1,0.6-0.1,0.9-0.2c9.7-1.7,19.7-3,29.6-3.8c0.5,0,1,0.3,1.1,0.8c1.2,5.1,2.1,10.4,3,15.5
			c0.5,2.7,1,5.6,1.5,8.4c0.1,0.3,0,0.6-0.2,0.8c-0.2,0.2-0.4,0.4-0.7,0.4c-9.9,0.7-19.9,2-29.7,3.7c-1.6,0.3-3.3,0.6-4.9,0.9
			c-1.3,0.2-2.6,0.5-3.9,0.7C140,183.5,140,183.5,139.9,183.5z M143.9,158.3c-0.4,3.8-0.9,7.6-1.4,11.3c-0.5,3.8-1,7.7-1.4,11.6
			c0.9-0.2,1.7-0.3,2.5-0.5c1.7-0.3,3.3-0.6,4.9-0.9c9.4-1.7,19.1-2.9,28.7-3.6c-0.5-2.4-0.9-4.9-1.3-7.3c-0.8-4.8-1.7-9.7-2.8-14.5
			c-9.6,0.8-19.2,2.1-28.5,3.7C144.4,158.2,144.2,158.2,143.9,158.3z"/>
	</g>
	<g>
		<path class="st1" d="M230.9,154c-5-0.6-10.1-1-15.2-1.3c-1.1,8-2.2,16-3.3,23.9c5.4,0.3,10.7,0.7,15.9,1.2
			c7.2,0.8,14.1,2,20.7,3.5c1-8,1-16.2,1.8-24.3C244.3,155.8,237.7,154.7,230.9,154z"/>
		<path class="st2" d="M248.9,182.4c-0.1,0-0.2,0-0.2,0c-6.6-1.5-13.5-2.7-20.6-3.5c-5.1-0.6-10.4-1-15.8-1.2
			c-0.3,0-0.6-0.1-0.7-0.4c-0.2-0.2-0.3-0.5-0.2-0.8l3.3-23.9c0.1-0.5,0.5-0.9,1.1-0.9c5.2,0.3,10.4,0.7,15.3,1.3
			c6.8,0.8,13.5,1.8,20,3.2c0.5,0.1,0.9,0.6,0.8,1.1c-0.3,3.4-0.5,6.9-0.7,10.3c-0.3,4.6-0.5,9.4-1.1,14c0,0.3-0.2,0.5-0.4,0.7
			C249.4,182.3,249.2,182.4,248.9,182.4z M213.5,175.7c5,0.3,10,0.7,14.8,1.2c6.8,0.8,13.4,1.8,19.7,3.2c0.5-4.2,0.7-8.6,0.9-12.8
			c0.2-3.1,0.4-6.3,0.6-9.4c-6.1-1.2-12.4-2.2-18.9-2.9c-4.6-0.5-9.4-0.9-14.2-1.2L213.5,175.7z"/>
	</g>
	<g>
		<path class="st3" d="M289.7,169.3c-8.4-4.3-30.8-10.5-39-12.2c-0.7,8-0.8,16.2-1.8,24.3c6,1.4,11.6,3,17,4.9
			c1.3,0.5,15,5.5,16.3,5.9C291.7,194.6,297.9,173.5,289.7,169.3z"/>
		<path class="st2" d="M283.7,193.4L283.7,193.4c-0.6,0-1.2-0.1-1.8-0.2c-1-0.2-7.5-2.6-13.5-4.9c-1.4-0.5-2.5-0.9-2.8-1
			c-5.3-1.9-11-3.5-16.9-4.9c-0.5-0.1-0.9-0.6-0.8-1.1c0.6-4.6,0.8-9.3,1.1-13.9c0.2-3.4,0.4-6.9,0.7-10.3c0-0.3,0.2-0.6,0.4-0.7
			c0.2-0.2,0.5-0.2,0.8-0.2c7.5,1.6,30.5,7.8,39.3,12.3c3.8,2,5.3,7.4,3.8,13.7C292.1,189.9,287.5,193.4,283.7,193.4z M250.1,180.6
			c5.7,1.3,11.1,2.9,16.2,4.7c0.3,0.1,1.4,0.5,2.8,1c4,1.5,12.4,4.6,13.3,4.8c0.4,0.1,0.8,0.2,1.2,0.2h0c2.8,0,6.6-3,8.2-9.7
			c1.1-4.4,0.6-9.7-2.7-11.4c-7.7-4-28.2-9.8-37.6-11.8c-0.3,3-0.4,6.1-0.6,9.1C250.8,171.8,250.6,176.2,250.1,180.6z"/>
	</g>
	<g>
		<path class="st3" d="M174,153.3c1.8,7.9,3,15.9,4.5,23.8c11.4-0.8,22.7-1,33.8-0.5c1.1-8,2.2-16,3.3-23.9
			C202,152,188,152.2,174,153.3z"/>
		<path class="st2" d="M178.5,178.1c-0.5,0-0.9-0.3-1-0.8c-0.5-2.8-1-5.6-1.5-8.4c-0.9-5.1-1.8-10.3-3-15.4c-0.1-0.3,0-0.6,0.2-0.8
			c0.2-0.2,0.4-0.4,0.7-0.4c8.5-0.7,17-1,25.5-1c5.5,0,10.9,0.1,16.3,0.4c0.3,0,0.6,0.2,0.7,0.4c0.2,0.2,0.3,0.5,0.2,0.8l-3.3,23.9
			c-0.1,0.5-0.5,0.9-1.1,0.9c-4.2-0.2-8.6-0.3-12.9-0.3C192.5,177.4,185.5,177.6,178.5,178.1C178.6,178.1,178.5,178.1,178.5,178.1z
			 M175.3,154.3c1.1,4.8,1.9,9.6,2.7,14.3c0.4,2.4,0.9,5,1.3,7.5c6.7-0.5,13.4-0.7,20.1-0.7c4,0,8.1,0.1,12,0.3l3-21.9
			c-5-0.3-10-0.4-15-0.4C191.4,153.3,183.3,153.6,175.3,154.3z"/>
	</g>
	<g>
		<path class="st3" d="M276.1,87.3c-2.3,8.1-8.9,11.7-16.7,13c1.3,8.1,2.7,16.3,4.3,24.4c6.9-0.9,13.1-2.9,18.6-6.3
			c5.5-3.5,11.2-9.6,14.2-15.4c0.1-0.1,0.1-0.2,0.2-0.4C289.6,97.8,282.8,92.7,276.1,87.3z"/>
		<path class="st2" d="M263.7,125.7c-0.5,0-0.9-0.3-1-0.8c-1.6-8.1-3-16.3-4.3-24.4c-0.1-0.6,0.3-1.1,0.8-1.2
			c8.7-1.4,14-5.5,15.9-12.2c0.1-0.3,0.3-0.6,0.7-0.7c0.3-0.1,0.7,0,1,0.2c7.6,6.1,14.2,10.9,20.5,15.3c0.4,0.3,0.6,0.9,0.3,1.3
			l-0.1,0.1c0,0.1-0.1,0.2-0.1,0.2c-3.2,6-8.9,12.2-14.6,15.8c-5.4,3.4-11.6,5.5-19,6.4C263.8,125.7,263.7,125.7,263.7,125.7z
			 M260.5,101.1c1.2,7.4,2.5,14.9,4,22.4c6.7-1,12.3-2.9,17.2-6c5.2-3.2,10.6-9,13.6-14.5c-5.8-4-11.8-8.5-18.7-14
			C274.3,95.5,268.9,99.5,260.5,101.1z"/>
	</g>
	<g>
		<path class="st1" d="M297.1,55.8c-7.6,2.5-15.3,4.9-23.1,7.3c3.6,6,4.5,13.7,2.3,23.3c-0.1,0.3-0.2,0.6-0.2,1
			c6.7,5.3,13.5,10.5,20.6,15.4C303.8,88.8,303.6,70.5,297.1,55.8z"/>
		<path class="st2" d="M296.6,103.7c-0.2,0-0.4-0.1-0.6-0.2c-6.4-4.4-12.9-9.3-20.6-15.4c-0.3-0.3-0.5-0.7-0.4-1.1
			c0.1-0.3,0.2-0.6,0.2-0.9c2.1-9.1,1.3-16.7-2.2-22.6c-0.2-0.3-0.2-0.6-0.1-0.9c0.1-0.3,0.4-0.5,0.7-0.6c7.1-2.2,14.7-4.5,23-7.3
			c0.5-0.2,1,0.1,1.3,0.6c6.8,15.3,6.6,34.1-0.5,47.8c-0.1,0.3-0.4,0.5-0.7,0.5C296.8,103.7,296.7,103.7,296.6,103.7z M277.2,86.9
			c7,5.6,13.1,10.1,19,14.2c6.1-12.8,6.2-29.9,0.3-44.1c-7.6,2.4-14.4,4.6-21,6.6c3.2,6.1,3.8,13.8,1.8,22.9
			C277.3,86.7,277.3,86.8,277.2,86.9z"/>
	</g>
	<g>
		<path class="st3" d="M286.9,40.9c-6.8-6.5-15.5-11.3-26.2-14.2c-2.9,7.6-7.6,14.7-10.8,22.2c8.7,1.8,15.7,4.9,20.3,9.3
			c1.5,1.5,2.8,3.1,3.9,4.8c7.7-2.3,15.4-4.8,23.1-7.3C294.6,50.2,291.2,45,286.9,40.9z"/>
		<path class="st2" d="M274,64.1c-0.4,0-0.7-0.2-0.9-0.5c-1-1.7-2.2-3.2-3.7-4.6c-4.4-4.2-11.2-7.4-19.7-9.1
			c-0.3-0.1-0.6-0.3-0.7-0.5c-0.1-0.3-0.2-0.6,0-0.9c1.5-3.6,3.4-7.1,5.2-10.5c2-3.8,4.1-7.7,5.6-11.7c0.2-0.5,0.7-0.8,1.2-0.6
			c10.8,3,19.7,7.8,26.6,14.4c4.3,4.1,7.8,9.2,10.4,15.2c0.1,0.3,0.1,0.6,0,0.8c-0.1,0.3-0.3,0.5-0.6,0.6
			c-8.4,2.7-15.9,5.1-23.1,7.3C274.2,64.1,274.1,64.1,274,64.1z M251.3,48.1c8.4,1.9,15,5,19.5,9.4c1.4,1.3,2.6,2.8,3.6,4.3
			c6.6-2,13.5-4.2,21.2-6.7c-2.5-5.3-5.7-9.8-9.5-13.5c-6.4-6.2-14.8-10.8-24.8-13.7c-1.5,3.8-3.5,7.5-5.4,11
			C254.3,42,252.7,45.1,251.3,48.1z"/>
	</g>
</g>
<g>
	<g>
		<path class="st4" d="M87.2,40.8c-1.5-5.5-6.2-9.3-11.7-9.7c-2-8.8-10.6-14.5-19.6-12.8c-5.4,1-9.7,4.5-12,9.1
			c-2-1.8-4.8-2.6-7.6-2.1c-4.9,0.9-8.2,5.6-7.2,10.6c0.1,0.6,0.3,1.2,0.5,1.8c-6.3,2.2-10.2,8.7-8.9,15.4c0,0.1,0,0.2,0.1,0.2
			L87.2,40.8z"/>
		<path class="st5" d="M20.7,53.4c1.6,7.2,8.6,11.9,15.9,10.5c0.8-0.1,1.6-0.4,2.3-0.6c3.8,5.3,10.4,8.2,17.2,6.9
			c7.2-1.3,12.5-6.9,13.8-13.7c2.2,0.9,4.7,1.1,7.2,0.7C84,55.8,88.8,49,87.4,41.8c-0.1-0.3-0.1-0.5-0.2-0.8L20.7,53.4z"/>
		<g>
			<path class="st6" d="M75.6,31.5c-2-8.5-10.5-13.9-19.5-12.3c-5.4,1-9.8,4.4-12.1,8.8c-2-1.7-4.8-2.5-7.6-2
				c-4.9,0.9-8,5.3-7.1,10.1c0.1,0.6,0.3,1.1,0.5,1.6C23.5,40,19.4,46.5,20.6,53c1.3,7.2,8.4,11.8,15.9,10.5
				c0.8-0.1,1.6-0.4,2.3-0.6c3.7,5.1,10.3,7.8,17.1,6.6C63,68,68.3,62.6,69.7,56.1c2.2,0.8,4.7,1.1,7.1,0.6
				c7.2-1.3,11.9-8,10.6-14.9C86.4,36,81.4,31.9,75.6,31.5z"/>
			<path class="st7" d="M52.5,71c-5.6,0-10.8-2.5-14.3-6.6c-0.5,0.2-1.1,0.3-1.6,0.4c-0.9,0.2-1.9,0.3-2.8,0.3
				c-7.1,0-13.3-4.9-14.5-11.7c-1.2-6.7,2.5-13.4,8.8-16.1c-0.1-0.2-0.1-0.4-0.2-0.7c-1-5.5,2.6-10.5,8.2-11.6
				c2.6-0.5,5.3,0,7.4,1.4c2.7-4.3,7.1-7.2,12.2-8.2c1.1-0.2,2.3-0.3,3.5-0.3c8.1,0,15.1,5.2,17.3,12.7c6.1,0.8,11,5.3,12.1,11.2
				c0.7,3.7-0.2,7.4-2.4,10.5c-2.2,3.1-5.5,5.2-9.3,5.9c-0.9,0.2-1.8,0.3-2.7,0.3l0,0c-1.3,0-2.5-0.2-3.7-0.5
				c-1.9,6.6-7.5,11.6-14.5,12.9C54.9,70.9,53.7,71,52.5,71z M38.7,61.5c0.4,0,0.8,0.2,1,0.5c2.9,4,7.7,6.3,12.8,6.3
				c1,0,2-0.1,3-0.3c6.5-1.2,11.5-6,12.8-12.3c0.1-0.4,0.3-0.7,0.6-0.9c0.3-0.2,0.7-0.2,1.1-0.1c1.3,0.5,2.8,0.7,4.2,0.7l0,0
				c0.8,0,1.5-0.1,2.3-0.2c3.1-0.6,5.9-2.3,7.7-4.8c1.8-2.5,2.5-5.6,1.9-8.5c-0.9-5.1-5.3-8.9-10.7-9.2c-0.6,0-1-0.4-1.2-1
				c-1.6-6.8-7.7-11.6-15-11.6c-1,0-2,0.1-3,0.3c-4.9,0.9-8.9,3.9-11.2,8.1c-0.2,0.3-0.5,0.6-0.9,0.7c-0.4,0.1-0.8,0-1.1-0.3
				c-1.8-1.5-4.2-2.1-6.5-1.7c-4.2,0.8-6.9,4.5-6.1,8.6c0.1,0.5,0.2,0.9,0.4,1.4c0.1,0.3,0.1,0.7,0,1c-0.1,0.3-0.4,0.6-0.8,0.7
				c-5.7,2-9.4,8-8.3,13.7c1,5.6,6.1,9.6,12,9.6c0.8,0,1.6-0.1,2.4-0.2c0.7-0.1,1.4-0.3,2.1-0.6C38.4,61.6,38.6,61.5,38.7,61.5z"/>
		</g>
	</g>
</g>
<g>
	<g>
		<g>
			<path class="st4" d="M336.4,194.2c0.9-5.4-1.8-10.7-6.4-13.2c1.7-8.6-3.6-17-12.1-19.2c-5.2-1.3-10.4,0.1-14.2,3.2
				c-1.1-2.4-3.2-4.2-5.9-4.9c-4.7-1.2-9.4,1.7-10.6,6.4c-0.1,0.6-0.2,1.2-0.3,1.8c-6.4-0.6-12.5,3.6-14,10c0,0.1,0,0.2-0.1,0.2
				L336.4,194.2z"/>
			<path class="st5" d="M272.7,178.7c-1.5,7,2.8,13.9,9.8,15.6c0.8,0.2,1.5,0.3,2.3,0.4c1.2,6.1,5.9,11.4,12.3,13
				c6.8,1.7,13.7-1.1,17.6-6.5c1.6,1.6,3.7,2.9,6,3.4c6.8,1.7,13.7-2.5,15.4-9.3c0.1-0.3,0.1-0.5,0.2-0.8L272.7,178.7z"/>
			<g>
				<path class="st6" d="M329.8,181.4c1.7-8.2-3.7-16.5-12.3-18.6c-5.2-1.3-10.4,0-14.2,2.9c-1.1-2.3-3.2-4.1-5.9-4.8
					c-4.7-1.2-9.2,1.5-10.3,6c-0.1,0.6-0.2,1.1-0.2,1.7c-6.4-0.6-12.6,3.5-14.2,9.7c-1.7,6.8,2.7,13.8,9.8,15.6
					c0.8,0.2,1.5,0.3,2.3,0.4c1.3,5.9,5.9,11,12.4,12.6c6.8,1.7,13.7-1,17.5-6.2c1.6,1.6,3.7,2.8,6.1,3.4c6.8,1.7,13.7-2.3,15.3-8.9
					C337.5,189.6,334.8,184,329.8,181.4z"/>
				<path class="st7" d="M301.5,208.6c-1.5,0-3-0.2-4.4-0.5c-6.4-1.6-11.5-6.5-13.2-12.7c-0.5-0.1-1.1-0.2-1.6-0.3
					c-7.8-1.9-12.6-9.6-10.7-17.1c1.5-6.2,7.5-10.7,14.1-10.7c0,0,0.1,0,0.1,0c0-0.2,0.1-0.4,0.1-0.6c1.1-4.3,4.8-7.3,9.4-7.3
					c0.8,0,1.7,0.1,2.5,0.3c2.5,0.6,4.6,2.1,6,4.2c2.8-1.8,6.2-2.8,9.7-2.8c1.5,0,2.9,0.2,4.4,0.5c8.9,2.2,14.6,10.5,13.4,19.2
					c5,3.1,7.6,9.1,6.2,14.8c-1.5,6-7,10.2-13.4,10.2h0c-1.2,0-2.3-0.1-3.5-0.4c-2.1-0.5-4-1.5-5.6-2.8
					C311.6,206.3,306.7,208.6,301.5,208.6z M285.7,169.8c-5.5,0-10.4,3.7-11.6,8.8c-1.5,6.1,2.5,12.4,8.9,14
					c0.7,0.2,1.4,0.3,2.1,0.3c0.6,0,1,0.5,1.2,1c1.2,5.6,5.7,10.2,11.5,11.6c1.3,0.3,2.6,0.5,3.8,0.5c4.9,0,9.5-2.3,12.3-6.1
					c0.2-0.3,0.6-0.5,0.9-0.5c0.4,0,0.7,0.1,1,0.4c1.5,1.5,3.4,2.5,5.5,3c0.9,0.2,1.9,0.3,2.9,0.3h0c5.2,0,9.7-3.4,10.9-8.3
					c1.2-4.8-1.2-9.9-5.7-12.3c-0.5-0.3-0.8-0.8-0.7-1.4c1.5-7.6-3.4-15.1-11.3-17.1c-1.2-0.3-2.5-0.5-3.8-0.5
					c-3.4,0-6.7,1.1-9.3,3.2c-0.3,0.2-0.7,0.3-1.1,0.2c-0.4-0.1-0.7-0.3-0.9-0.7c-1-2-2.8-3.5-5.1-4.1c-0.6-0.2-1.3-0.2-1.9-0.2
					c-3.3,0-6.1,2.1-6.9,5.3c-0.1,0.5-0.1,0.9-0.2,1.4c0,0.4-0.2,0.7-0.4,0.9c-0.3,0.2-0.6,0.3-1,0.3
					C286.5,169.8,286.1,169.8,285.7,169.8z"/>
			</g>
		</g>
	</g>
</g>
<path class="st4" d="M201.7,8.4c-0.2,0-0.3,0-0.5,0c-0.5-1.3-1.9-2.3-3.5-2.3c-0.5,0-1,0.1-1.4,0.3c-1-1-2.4-1.6-4-1.6
	c-2,0-3.6,1-4.5,2.5c-0.2,0-0.4,0-0.6,0c-1.9,0-3.5,1-4.3,2.5c-0.2,0-0.3,0-0.5,0c-1.6,0-2.9,1.2-2.9,2.7c0,1.5,1.3,2.6,2.9,2.6
	c0.5,0,0.9-0.1,1.3-0.3c0.9,0.8,2.2,1.4,3.6,1.4c0.2,0,0.5,0,0.7-0.1c0.7,0.4,1.7,0.7,2.7,0.7c1.1,0,2.1-0.3,2.9-0.8
	c0.8,0.4,1.8,0.6,2.8,0.6c1.9,0,3.6-0.8,4.5-1.9c0.3,0.1,0.6,0.1,0.9,0.1c1.9,0,3.4-1.4,3.4-3.2C205.2,9.8,203.6,8.4,201.7,8.4z"/>
<path class="st4" d="M356.2,108.4c-0.2,0-0.3,0-0.5,0c-0.5-1.3-1.9-2.3-3.5-2.3c-0.5,0-1,0.1-1.4,0.3c-1-1-2.4-1.6-4-1.6
	c-2,0-3.6,1-4.5,2.5c-0.2,0-0.4,0-0.6,0c-1.9,0-3.5,1-4.3,2.5c-0.2,0-0.3,0-0.5,0c-1.6,0-2.9,1.2-2.9,2.7c0,1.5,1.3,2.6,2.9,2.6
	c0.5,0,0.9-0.1,1.3-0.3c0.9,0.8,2.2,1.4,3.6,1.4c0.2,0,0.5,0,0.7-0.1c0.7,0.4,1.7,0.7,2.7,0.7c1.1,0,2.1-0.3,2.9-0.8
	c0.8,0.4,1.8,0.6,2.8,0.6c1.9,0,3.6-0.8,4.5-1.9c0.3,0.1,0.6,0.1,0.9,0.1c1.9,0,3.4-1.4,3.4-3.2
	C359.7,109.8,358.1,108.4,356.2,108.4z"/>
<path class="st4" d="M27.8,108.7c-0.2,0-0.3,0-0.5,0c-0.5-1.3-1.9-2.3-3.5-2.3c-0.5,0-1,0.1-1.4,0.3c-1-1-2.4-1.6-4-1.6
	c-2,0-3.6,1-4.5,2.5c-0.2,0-0.4,0-0.6,0c-1.9,0-3.5,1-4.3,2.5c-0.2,0-0.3,0-0.5,0c-1.6,0-2.9,1.2-2.9,2.7c0,1.5,1.3,2.6,2.9,2.6
	c0.4,0,0.9-0.1,1.3-0.3c0.9,0.8,2.2,1.4,3.6,1.4c0.2,0,0.5,0,0.7-0.1c0.7,0.4,1.7,0.7,2.8,0.7c1.1,0,2.1-0.3,2.9-0.8
	c0.8,0.4,1.8,0.6,2.8,0.6c1.9,0,3.6-0.8,4.5-1.9c0.3,0.1,0.6,0.1,0.9,0.1c1.9,0,3.4-1.4,3.4-3.2C31.3,110,29.7,108.7,27.8,108.7z"/>
<path class="st4" d="M180.1,190.4c-0.2,0-0.3,0-0.5,0c-0.5-1.3-1.9-2.3-3.5-2.3c-0.5,0-1,0.1-1.4,0.3c-1-1-2.4-1.6-4-1.6
	c-2,0-3.6,1-4.5,2.5c-0.2,0-0.4,0-0.6,0c-1.9,0-3.5,1-4.3,2.5c-0.2,0-0.3,0-0.5,0c-1.6,0-2.9,1.2-2.9,2.7c0,1.5,1.3,2.6,2.9,2.6
	c0.4,0,0.9-0.1,1.3-0.3c0.9,0.8,2.2,1.4,3.6,1.4c0.2,0,0.5,0,0.7-0.1c0.7,0.4,1.7,0.7,2.8,0.7c1.1,0,2.1-0.3,2.9-0.8
	c0.8,0.4,1.8,0.6,2.8,0.6c1.9,0,3.6-0.8,4.5-1.9c0.3,0.1,0.6,0.1,0.9,0.1c1.9,0,3.4-1.4,3.4-3.2C183.5,191.8,182,190.4,180.1,190.4z
	"/>
<path class="st4" d="M39.3,133.1c-0.1,0-0.3,0-0.4,0c-0.4-1-1.5-1.8-2.7-1.8c-0.4,0-0.8,0.1-1.1,0.2c-0.8-0.8-1.9-1.3-3.1-1.3
	c-1.5,0-2.8,0.8-3.5,1.9c-0.2,0-0.3,0-0.5,0c-1.5,0-2.7,0.8-3.3,1.9c-0.1,0-0.2,0-0.4,0c-1.2,0-2.2,1-2.2,2.1c0,1.1,1,2.1,2.3,2
	c0.4,0,0.7-0.1,1-0.2c0.7,0.7,1.7,1.1,2.8,1.1c0.2,0,0.4,0,0.5,0c0.6,0.3,1.3,0.5,2.1,0.5c0.9,0,1.7-0.3,2.3-0.7
	c0.6,0.3,1.4,0.4,2.2,0.4c1.5,0,2.8-0.6,3.5-1.5c0.2,0.1,0.4,0.1,0.7,0.1c1.5,0,2.7-1.1,2.6-2.5C41.9,134.2,40.7,133.1,39.3,133.1z"
	/>
<path class="st4" d="M338.5,130.4c-0.1,0-0.3,0-0.4,0c-0.4-1-1.5-1.8-2.7-1.8c-0.4,0-0.8,0.1-1.1,0.2c-0.8-0.8-1.9-1.3-3.1-1.3
	c-1.5,0-2.8,0.8-3.5,1.9c-0.2,0-0.3,0-0.5,0c-1.5,0-2.7,0.8-3.3,1.9c-0.1,0-0.2,0-0.4,0c-1.2,0-2.2,1-2.2,2.1c0,1.1,1,2.1,2.3,2
	c0.4,0,0.7-0.1,1-0.2c0.7,0.7,1.7,1.1,2.8,1.1c0.2,0,0.4,0,0.5,0c0.6,0.3,1.3,0.5,2.1,0.5c0.9,0,1.7-0.3,2.3-0.7
	c0.6,0.3,1.4,0.4,2.2,0.4c1.5,0,2.8-0.6,3.5-1.5c0.2,0.1,0.5,0.1,0.7,0.1c1.5,0,2.7-1.1,2.6-2.5C341.2,131.4,340,130.4,338.5,130.4z
	"/>
<path class="st4" d="M219.8,200.3c-0.1,0-0.3,0-0.4,0c-0.4-1-1.5-1.8-2.7-1.8c-0.4,0-0.8,0.1-1.1,0.2c-0.8-0.8-1.9-1.3-3.1-1.3
	c-1.5,0-2.8,0.8-3.5,1.9c-0.2,0-0.3,0-0.5,0c-1.5,0-2.7,0.8-3.3,1.9c-0.1,0-0.2,0-0.4,0c-1.2,0-2.2,1-2.2,2.1c0,1.1,1,2.1,2.3,2
	c0.4,0,0.7-0.1,1-0.2c0.7,0.7,1.7,1.1,2.8,1.1c0.2,0,0.4,0,0.5,0c0.6,0.3,1.3,0.5,2.1,0.5c0.9,0,1.7-0.3,2.3-0.7
	c0.6,0.3,1.4,0.4,2.2,0.4c1.5,0,2.8-0.6,3.5-1.5c0.2,0.1,0.5,0.1,0.7,0.1c1.5,0,2.7-1.1,2.6-2.5
	C222.5,201.4,221.3,200.3,219.8,200.3z"/>
<path class="st4" d="M265.3,11.9c-0.1,0-0.3,0-0.4,0c-0.4-1-1.5-1.8-2.7-1.8c-0.4,0-0.8,0.1-1.1,0.2c-0.8-0.8-1.9-1.3-3.1-1.3
	c-1.5,0-2.8,0.8-3.5,1.9c-0.2,0-0.3,0-0.5,0c-1.5,0-2.7,0.8-3.3,1.9c-0.1,0-0.2,0-0.4,0c-1.2,0-2.2,1-2.2,2.1c0,1.1,1,2.1,2.3,2
	c0.4,0,0.7-0.1,1-0.2c0.7,0.7,1.7,1.1,2.8,1.1c0.2,0,0.4,0,0.5,0c0.6,0.3,1.3,0.5,2.1,0.5c0.9,0,1.7-0.3,2.3-0.7
	c0.6,0.3,1.4,0.4,2.2,0.4c1.5,0,2.8-0.6,3.5-1.5c0.2,0.1,0.5,0.1,0.7,0.1c1.5,0,2.7-1.1,2.6-2.5C268,13,266.8,11.9,265.3,11.9z"/>
<path class="st4" d="M351.8,33.9c-0.1,0-0.3,0-0.4,0c-0.4-1-1.5-1.8-2.7-1.8c-0.4,0-0.8,0.1-1.1,0.2c-0.8-0.8-1.9-1.3-3.1-1.3
	c-1.5,0-2.8,0.8-3.5,1.9c-0.2,0-0.3,0-0.5,0c-1.5,0-2.7,0.8-3.3,1.9c-0.1,0-0.2,0-0.4,0c-1.2,0-2.2,1-2.2,2.1c0,1.1,1,2.1,2.3,2
	c0.4,0,0.7-0.1,1-0.2c0.7,0.7,1.7,1.1,2.8,1.1c0.2,0,0.4,0,0.5,0c0.6,0.3,1.3,0.5,2.1,0.5c0.9,0,1.7-0.3,2.3-0.7
	c0.6,0.3,1.4,0.4,2.2,0.4c1.5,0,2.8-0.6,3.5-1.5c0.2,0.1,0.5,0.1,0.7,0.1c1.5,0,2.7-1.1,2.6-2.5C354.5,35,353.3,33.9,351.8,33.9z"/>
<path class="st4" d="M78.8,8.4c-0.1,0-0.3,0-0.4,0c-0.4-1-1.5-1.8-2.7-1.8c-0.4,0-0.8,0.1-1.1,0.2c-0.8-0.8-1.9-1.3-3.1-1.3
	c-1.5,0-2.8,0.8-3.5,1.9c-0.2,0-0.3,0-0.5,0c-1.5,0-2.7,0.8-3.3,1.9c-0.1,0-0.2,0-0.4,0c-1.2,0-2.2,1-2.2,2.1c0,1.1,1,2.1,2.3,2
	c0.4,0,0.7-0.1,1-0.2c0.7,0.7,1.7,1.1,2.8,1.1c0.2,0,0.4,0,0.5,0c0.6,0.3,1.3,0.5,2.1,0.5c0.9,0,1.7-0.3,2.3-0.7
	c0.6,0.3,1.4,0.4,2.2,0.4c1.5,0,2.8-0.6,3.5-1.5c0.2,0.1,0.5,0.1,0.7,0.1c1.5,0,2.7-1.1,2.6-2.5C81.5,9.5,80.3,8.4,78.8,8.4z"/>
<g>
	<g>
		<g>
			<path class="st4" d="M211.5,110c0.9-5.4-1.8-10.7-6.4-13.2c1.7-8.6-3.6-17-12.1-19.2c-5.2-1.3-10.4,0.1-14.2,3.2
				c-1.1-2.4-3.2-4.2-5.9-4.9c-4.7-1.2-9.4,1.7-10.6,6.4c-0.1,0.6-0.2,1.2-0.3,1.8c-6.4-0.6-12.5,3.6-14,10c0,0.1,0,0.2-0.1,0.2
				L211.5,110z"/>
			<path class="st5" d="M147.8,94.5c-1.5,7,2.8,13.9,9.8,15.6c0.8,0.2,1.5,0.3,2.3,0.4c1.2,6.1,5.9,11.4,12.3,13
				c6.8,1.7,13.7-1.1,17.6-6.5c1.6,1.6,3.7,2.9,6,3.4c6.8,1.7,13.7-2.5,15.4-9.3c0.1-0.3,0.1-0.5,0.2-0.8L147.8,94.5z"/>
			<g>
				<path class="st6" d="M204.9,97.2c1.7-8.2-3.7-16.5-12.3-18.6c-5.2-1.3-10.4,0-14.2,2.9c-1.1-2.3-3.2-4.1-5.9-4.8
					c-4.7-1.2-9.2,1.5-10.3,6c-0.1,0.6-0.2,1.1-0.2,1.7c-6.4-0.6-12.6,3.5-14.2,9.7c-1.7,6.8,2.7,13.8,9.8,15.6
					c0.8,0.2,1.5,0.3,2.3,0.4c1.3,5.9,5.9,11,12.4,12.6c6.8,1.7,13.7-1,17.5-6.2c1.6,1.6,3.7,2.8,6.1,3.4c6.8,1.7,13.7-2.3,15.3-8.9
					C212.6,105.4,209.9,99.8,204.9,97.2z"/>
				<path class="st7" d="M176.6,124.4c-1.5,0-3-0.2-4.4-0.5c-6.4-1.6-11.5-6.5-13.2-12.7c-0.5-0.1-1.1-0.2-1.6-0.3
					c-7.8-1.9-12.6-9.6-10.7-17.1c1.5-6.2,7.5-10.7,14.1-10.7c0,0,0.1,0,0.1,0c0-0.2,0.1-0.4,0.1-0.6c1.1-4.3,4.8-7.3,9.4-7.3
					c0.8,0,1.7,0.1,2.5,0.3c2.5,0.6,4.6,2.1,6,4.2c2.8-1.8,6.2-2.8,9.7-2.8c1.5,0,2.9,0.2,4.4,0.5c8.9,2.2,14.6,10.5,13.4,19.2
					c5,3.1,7.6,9.1,6.2,14.8c-1.5,6-7,10.2-13.4,10.2h0c-1.2,0-2.3-0.1-3.5-0.4c-2.1-0.5-4-1.5-5.6-2.8
					C186.8,122.2,181.8,124.4,176.6,124.4z M160.8,85.6c-5.5,0-10.4,3.7-11.6,8.8c-1.5,6.1,2.5,12.4,8.9,14c0.7,0.2,1.4,0.3,2.1,0.3
					c0.6,0,1,0.5,1.2,1c1.2,5.6,5.7,10.2,11.5,11.6c1.3,0.3,2.6,0.5,3.8,0.5c4.9,0,9.5-2.3,12.3-6.1c0.2-0.3,0.6-0.5,0.9-0.5
					c0.4,0,0.7,0.1,1,0.4c1.5,1.5,3.4,2.5,5.5,3c0.9,0.2,1.9,0.3,2.9,0.3h0c5.2,0,9.7-3.4,10.9-8.3c1.2-4.8-1.2-9.9-5.7-12.3
					c-0.5-0.3-0.8-0.8-0.7-1.4c1.5-7.6-3.4-15.1-11.3-17.1c-1.2-0.3-2.5-0.5-3.8-0.5c-3.4,0-6.7,1.1-9.3,3.2
					c-0.3,0.2-0.7,0.3-1.1,0.2c-0.4-0.1-0.7-0.3-0.9-0.7c-1-2-2.8-3.5-5.1-4.1c-0.6-0.2-1.3-0.2-1.9-0.2c-3.3,0-6.1,2.1-6.9,5.3
					c-0.1,0.5-0.1,0.9-0.2,1.4c0,0.4-0.2,0.7-0.4,0.9c-0.3,0.2-0.6,0.3-1,0.3C161.6,85.6,161.2,85.6,160.8,85.6z"/>
			</g>
		</g>
	</g>
</g>
<text transform="matrix(0.9387 0 0 1 39.0697 60.8967)" class="st8 st9 st10">1</text>
<text transform="matrix(0.9387 0 0 1 167.403 115.9807)" class="st8 st9 st10">2</text>
<text transform="matrix(0.9387 0 0 1 293.5401 198.7421)" class="st8 st9 st10">3</text>
</svg>
