<?xml version="1.0" encoding="utf-8"?>
<!-- Generator: Adobe Illustrator 22.1.0, SVG Export Plug-In . SVG Version: 6.00 Build 0)  -->
<svg version="1.1" id="Layer_1" xmlns="http://www.w3.org/2000/svg" xmlns:xlink="http://www.w3.org/1999/xlink" x="0px" y="0px"
	 viewBox="0 0 446 588" style="enable-background:new 0 0 446 588;" xml:space="preserve">
<style type="text/css">
	.st0{fill:#005689;}
	.st1{fill:#9BDBF1;}
	.st2{fill:#2495CD;}
	.st3{fill:#259AD6;}
	.st4{fill:#FFFFFF;}
	.st5{fill:#4495B6;}
	.st6{fill:#FFDB00;}
	.st7{fill:#27A7D4;}
</style>
<path class="st0" d="M343.7,245.2c-2.5-9.5-5.9-18.2-10.2-25.1c-6.8-11-15.5-19-26.2-23.9c-4.7-2.2-9.8-3.8-15.2-4.7
	c-7.2-1.3-15-1.4-23.1-0.4c-9.2,1.1-18.8,3.6-28.6,7.6c-6,2.4-11.8,4.5-17.4,6.2c-12,3.7-23,5.9-32.8,7.2
	c-13.5,1.7-24.8,1.5-33.4,0.6c-0.4,0-0.9-0.1-1.3-0.1c-12.8-1.4-18.1-3.4-26-6c-2.3-0.7-5-2.3-7.3-1.1c-3.1,1.7-5.8,22.5-6.7,27.5
	c-0.8,4,0.1,9.7,2.7,11c2,1,16.5,5.5,23.9,7.4c4.5,1.2,9,1.5,13.5,2c9.2,0.9,20,1,32.3-0.2c12.4-1.3,26.3-4,41.6-8.9
	c5.3-1.7,10.8-3.7,16.5-6c7.3-2.9,14.5-5,21.3-6.1c7.9-1.3,15.4-1.4,22.3-0.2c2.4,0.4,4.7,1,6.9,1.8c8.7,3,15.7,8.3,20.3,15.8
	c1.5,2.5,2.8,5.2,3.9,8.1c3.6,10,4.5,23.1,2.3,39.4c-0.1,0.6-0.2,1.1-0.2,1.6c-2.3,13.7-8.9,19.7-16.7,21.9
	c-5.1,1.4-10.8,1.2-15.9,0.3c-2.6-0.5-5.3-1.1-7.9-1.8c-12.5-3.4-24.9-9.4-37.1-14.9c-0.8-0.4-1.7-0.8-2.5-1.1
	c-12.1-5.5-24.5-11-36.6-15.2c-9.3-3.2-18.4-5.7-27.2-6.7c-6-0.7-12.5-0.2-18.8,1.1c-3.1,0.6-6.2,1.4-9.1,2.2
	c-9.1,2.7-20.3,14.3-26.7,25.4c-4,6.9-7.3,16.7-9.6,26.3c-0.8,3.1-1.4,6.3-2,9.3c-4.2,23.4-2.6,51.9,4.2,74.8
	c5,16.7,12.8,30.4,23.3,37.2c3.1,2,6.2,3.5,9.4,4.5c12.7,4.2,25.4,1.1,37-2.4c1.3-0.4,2.6-0.8,3.9-1.2c1.7-0.5,3.3-1,4.9-1.5
	c9.9-3,19.8-5,29.8-6.3c11.4-1.4,22.7-1.7,33.8-0.8c5.4,0.4,10.7,1.1,15.9,2.1c7.2,1.3,14.1,3.3,20.7,5.9c6,2.3,11.6,5.1,17,8.3
	c1.3,0.8,15,9.3,16.3,9.9c9.5,4.1,15.7-31.5,7.5-38.6c-8.4-7.3-30.8-17.7-39-20.6c-6.4-2.3-13-4-19.9-5.3c-5-0.9-10.1-1.6-15.2-2.1
	c-13.6-1.3-27.6-0.9-41.6,1c-9.9,1.4-19.7,3.5-29.5,6.4c-0.5,0.2-1,0.3-1.5,0.5c-1.2,0.4-2.4,0.7-3.6,1.1
	c-12.4,3.9-24.2,7.6-34.5,2.7c-0.9-0.4-1.8-0.9-2.7-1.5c-6-3.9-9.9-12.1-12-22.1c-3-14-2.6-31.5,0.3-45.3c1.2-5.8,2.9-11,5-15.1
	c5.6-11,14.5-14.7,23.2-15.5c4.1-0.4,8.1-0.1,11.8,0.3c6.3,0.7,13.1,2.4,20.1,4.7c12.6,4.1,26.1,10.1,39.2,16c2.3,1,4.5,2,6.8,3
	c10.4,4.6,20.6,9,30.3,12.2c13.4,4.4,25.9,6.6,36.9,4.2c6.9-1.5,13.1-4.8,18.6-10.6c5.5-5.8,11.2-16.2,14.2-25.9
	c0.1-0.2,0.1-0.4,0.2-0.6C350.4,300.9,350.2,270,343.7,245.2z"/>
<g>
	<g>
		<path class="st1" d="M154.4,210.1c-12.8-1.4-18.1-3.3-26-5.8c-2.3-0.7-5-2.3-7.3-1.1c-3.1,1.6-5.8,22-6.7,26.9
			c-0.8,3.9,0.1,9.5,2.7,10.7c2,1,16.5,5.4,23.9,7.3c4.5,1.1,9,1.5,13.5,1.9C153.9,236.7,154.2,223.4,154.4,210.1z"/>
		<path class="st2" d="M154.6,251.7C154.5,251.7,154.5,251.7,154.6,251.7l-1.4-0.1c-4-0.4-8.2-0.8-12.3-1.8
			c-7.3-1.9-21.9-6.3-24-7.3c-1.3-0.6-2.3-2-3-4.1c-0.8-2.6-1-5.9-0.5-8.8c0.2-0.9,0.4-2.3,0.7-4c1.9-11.8,3.9-22.4,6.7-23.9
			c0.7-0.4,1.4-0.5,2.2-0.5c1.4,0,2.8,0.5,4.2,1c0.5,0.2,1,0.4,1.4,0.5l1.9,0.6c6.9,2.2,12.3,4,24,5.2c0.6,0.1,1,0.8,1,1.7l-0.1,3.9
			c-0.2,11.8-0.4,23.9,0.2,35.7c0,0.5-0.1,1-0.3,1.3C155.1,251.5,154.8,251.7,154.6,251.7z M123,204.5c-0.6,0-1.1,0.1-1.6,0.4
			c-2,1-4.4,15.9-5.3,21.6c-0.3,1.8-0.5,3.3-0.7,4.2c-0.4,1.9-0.3,4.3,0.3,6.1c0.3,0.9,0.8,2,1.7,2.4c1.9,0.9,16.1,5.3,23.8,7.2
			c4,1,8.1,1.4,12.1,1.8l0.2,0c-0.5-11.4-0.3-22.9-0.1-34.1l0-2.3c-11.2-1.2-16.5-3-23.3-5.2l-1.9-0.6c-0.5-0.2-1-0.3-1.5-0.5
			C125.5,204.9,124.2,204.5,123,204.5z"/>
	</g>
	<g>
		<path class="st3" d="M155.7,210.3c-0.4,0-0.9-0.1-1.3-0.1c-0.2,13.2-0.5,26.6,0.1,39.8c9.2,0.9,20,1,32.3-0.2
			c0.6-13.5,1.7-26.7,2.3-40.1C175.7,211.3,164.4,211.1,155.7,210.3z"/>
		<path class="st2" d="M169.3,252.3c-5,0-10-0.2-14.8-0.7c-0.5,0-0.9-0.7-1-1.6c-0.6-12-0.4-24.2-0.2-36.1l0.1-3.9
			c0-0.5,0.1-0.9,0.3-1.2c0.2-0.3,0.5-0.5,0.8-0.4c0.4,0,0.9,0.1,1.3,0.1c4.3,0.4,8.8,0.6,13.3,0.6c6.5,0,13.2-0.4,19.9-1.2
			c0.3,0,0.6,0.1,0.8,0.5c0.2,0.3,0.3,0.8,0.3,1.3c-0.3,6.8-0.7,13.7-1.2,20.4c-0.4,6.4-0.9,13.1-1.1,19.7c0,0.8-0.4,1.5-1,1.6
			C181,252,175.1,252.3,169.3,252.3z M155.5,248.3c9.7,0.9,20,0.8,30.4-0.2c0.3-6.2,0.7-12.3,1.1-18.3c0.4-6,0.8-12.2,1.1-18.3
			c-6.4,0.7-12.8,1.1-18.9,1.1c-4.6,0-9.1-0.2-13.5-0.6c-0.1,0-0.2,0-0.3,0l0,2.1C155.2,225.4,155,237,155.5,248.3z"/>
	</g>
	<g>
		<path class="st1" d="M189.2,209.6c-0.5,13.4-1.7,26.6-2.3,40.1c12.4-1.2,26.3-3.9,41.6-8.7c-2.5-12.6-4.6-25.5-6.5-38.4
			C210,206.3,199,208.4,189.2,209.6z"/>
		<path class="st2" d="M186.9,251.4c-0.3,0-0.5-0.2-0.7-0.5c-0.2-0.3-0.3-0.8-0.3-1.3c0.3-6.7,0.7-13.4,1.1-19.8
			c0.4-6.6,0.9-13.5,1.1-20.3c0-0.8,0.4-1.5,1-1.6c10.7-1.3,21.7-3.7,32.7-7c0.5-0.2,1.1,0.4,1.2,1.3c2.1,14.4,4.2,27,6.5,38.3
			c0.1,0.5,0.1,1-0.1,1.4c-0.1,0.4-0.4,0.7-0.7,0.8C214.6,247.1,200.5,250.1,186.9,251.4C186.9,251.4,186.9,251.4,186.9,251.4z
			 M190.1,211.2c-0.3,6.4-0.7,12.7-1.1,18.9c-0.4,5.8-0.8,11.8-1,17.8c12.7-1.4,25.9-4.1,39.2-8.2c-2.1-10.5-4-22-5.9-35.1
			C210.7,207.7,200.3,209.9,190.1,211.2z"/>
	</g>
	<g>
		<path class="st3" d="M239.4,196.6c-6,2.4-11.8,4.4-17.4,6.1c1.9,12.9,4,25.8,6.5,38.4c5.3-1.7,10.8-3.6,16.5-5.8
			c7.3-2.9,14.5-4.9,21.3-5.9c1.5-13.2,1.1-26.8,1.7-40.1C258.8,190.3,249.2,192.7,239.4,196.6z"/>
		<path class="st2" d="M228.5,242.7c-0.4,0-0.8-0.5-1-1.2c-2.3-11.4-4.4-24-6.5-38.5c-0.1-0.5,0-0.9,0.1-1.3
			c0.2-0.4,0.4-0.7,0.7-0.7c5.8-1.7,11.6-3.8,17.4-6c9.8-3.8,19.5-6.3,28.8-7.4c0.3,0,0.6,0.1,0.8,0.5c0.2,0.3,0.3,0.8,0.3,1.3
			c-0.2,4.5-0.3,9.2-0.4,13.7c-0.2,8.7-0.4,17.8-1.4,26.6c-0.1,0.7-0.5,1.3-0.9,1.4c-6.8,1.1-13.9,3.1-21.1,5.9
			c-5.5,2.1-11,4.1-16.5,5.8C228.6,242.7,228.6,242.7,228.5,242.7z M223.2,204c1.9,13.1,3.9,24.6,6,35.1c5.2-1.6,10.4-3.5,15.6-5.5
			c7-2.8,14-4.7,20.6-5.9c0.9-8.2,1-16.6,1.2-24.8c0.1-3.9,0.2-7.9,0.3-11.9c-8.8,1.2-18,3.6-27.3,7.2
			C234.2,200.4,228.7,202.3,223.2,204z"/>
	</g>
	<g>
		<path class="st1" d="M291.1,189.6c-7.2-1.3-15-1.4-23.1-0.4c-0.6,13.3-0.2,26.8-1.7,40.1c7.9-1.3,15.5-1.3,22.3-0.2
			c2.4,0.4,4.7,1,6.9,1.7c3.2-12.4,7.9-24.1,10.8-36.6C301.6,192.1,296.5,190.6,291.1,189.6z"/>
		<path class="st2" d="M295.5,232.5c-0.1,0-0.1,0-0.2,0c-2.2-0.7-4.5-1.3-6.8-1.7c-6.7-1.2-14.2-1.1-22.1,0.2
			c-0.3,0.1-0.6-0.1-0.9-0.5c-0.2-0.4-0.3-0.9-0.3-1.5c1-8.6,1.2-17.5,1.3-26.1c0.1-4.5,0.2-9.2,0.4-13.8c0-0.8,0.4-1.5,1-1.6
			c8.2-1,16.1-0.8,23.2,0.4c5.4,0.9,10.6,2.5,15.3,4.7c0.3,0.1,0.5,0.4,0.6,0.9c0.1,0.4,0.1,0.9,0,1.4c-1.6,6.7-3.7,13.3-5.7,19.7
			c-1.8,5.5-3.6,11.2-5.1,17C296.2,232.1,295.9,232.5,295.5,232.5z M278.3,226.6c3.6,0,7.1,0.3,10.3,0.9c2.1,0.4,4.2,0.9,6.2,1.5
			c1.4-5.5,3.2-10.8,4.8-16c1.8-5.7,3.7-11.6,5.2-17.5c-4.3-1.9-9-3.2-13.9-4.1c-6.8-1.2-14.2-1.4-22-0.5c-0.2,4.1-0.2,8.2-0.3,12.2
			c-0.2,8-0.3,16.3-1.1,24.4C271.2,226.8,274.9,226.6,278.3,226.6z"/>
	</g>
	<g>
		<path class="st1" d="M309.2,355.9c-1.6-13.4-3-26.8-4.3-40.2c-5.1,1.4-10.8,1.1-15.9,0.3c-2.6-0.4-5.3-1-7.9-1.7
			c-2.2,12.9-5.8,25.1-8.7,37.6C285.8,356.1,298.3,358.2,309.2,355.9z"/>
		<path class="st2" d="M299.6,358.6L299.6,358.6c-7.8,0-16.8-1.7-27.4-5.1c-0.3-0.1-0.6-0.4-0.7-0.8c-0.1-0.4-0.2-1-0.1-1.4
			c0.9-4,1.9-7.9,2.9-11.8c2.1-8.3,4.3-16.9,5.8-25.7c0.1-0.8,0.6-1.3,1.2-1.2c2.8,0.7,5.4,1.3,7.8,1.7c6,1,11.3,0.9,15.7-0.2
			c0.3-0.1,0.5,0,0.8,0.3c0.2,0.3,0.4,0.7,0.4,1.1c1.3,13.3,2.7,26.8,4.3,40.2c0.1,0.5,0,0.9-0.2,1.3c-0.2,0.4-0.4,0.6-0.7,0.7
			C306.3,358.2,303,358.6,299.6,358.6z M273.8,350.5c10,3.1,18.5,4.7,25.8,4.7h0c2.9,0,5.8-0.3,8.4-0.7c-1.4-12.3-2.8-24.6-4-36.8
			c-4.3,1-9.4,1-15.2,0c-2.2-0.4-4.5-0.9-7-1.5c-1.5,8.4-3.6,16.6-5.6,24.6C275.4,343.9,274.6,347.2,273.8,350.5z"/>
	</g>
	<g>
		<path class="st3" d="M272.4,351.8c2.9-12.5,6.5-24.7,8.7-37.6c-12.5-3.3-24.9-9.2-37.1-14.6c-0.6,13.5-0.9,27-1.9,40.2
			C252.4,344.4,262.6,348.6,272.4,351.8z"/>
		<path class="st2" d="M272.4,353.5c-0.1,0-0.1,0-0.2,0c-9.3-3-18.9-7-30.4-12c-0.5-0.2-0.8-1-0.8-1.8c0.7-9.4,1.1-19.2,1.4-28.7
			c0.1-3.8,0.3-7.7,0.5-11.5c0-0.5,0.2-1,0.4-1.3c0.3-0.3,0.6-0.4,0.9-0.3c1.4,0.6,2.9,1.3,4.3,1.9c10.7,4.8,21.7,9.7,32.7,12.6
			c0.3,0.1,0.5,0.4,0.7,0.8c0.2,0.4,0.2,0.9,0.1,1.4c-1.5,9-3.7,17.6-5.9,26c-1,3.8-2,7.8-2.9,11.7
			C273.2,353,272.8,353.5,272.4,353.5z M243.2,338.6c10.7,4.7,19.8,8.4,28.6,11.3c0.8-3.5,1.7-7.1,2.6-10.5c1.9-7.7,4-15.7,5.5-23.8
			c-10.7-3-21.4-7.8-31.8-12.4c-1-0.5-2.1-0.9-3.1-1.4c-0.1,3.1-0.3,6.3-0.4,9.4C244.2,320.2,243.8,329.5,243.2,338.6z"/>
	</g>
	<g>
		<path class="st1" d="M235.3,336.9c2.3,1,4.5,2,6.8,3c1-13.3,1.3-26.7,1.9-40.2c-0.8-0.4-1.7-0.7-2.5-1.1
			c-12.1-5.3-24.5-10.8-36.6-14.9c-2.5,12.8-5.7,25.1-8.8,37.6C208.7,325.2,222.1,331.1,235.3,336.9z"/>
		<path class="st2" d="M242,341.5c-0.1,0-0.2,0-0.3-0.1c-2.3-1-4.5-2-6.8-3c-13-5.7-26.5-11.6-39.1-15.6c-0.3-0.1-0.6-0.4-0.7-0.9
			c-0.1-0.4-0.2-1-0.1-1.4c0.6-2.6,1.3-5.3,1.9-7.9c2.4-9.6,4.8-19.6,6.8-29.6c0.2-0.8,0.7-1.3,1.2-1.1c12.1,4.1,24.6,9.6,36.7,14.9
			c0.8,0.4,1.7,0.7,2.5,1.1c0.5,0.2,0.8,0.9,0.8,1.8c-0.2,3.8-0.3,7.7-0.5,11.5c-0.4,9.5-0.7,19.3-1.4,28.9c0,0.5-0.2,0.9-0.4,1.2
			C242.4,341.4,242.2,341.5,242,341.5z M197.5,319.9c12.3,4,25.4,9.7,38,15.3c1.9,0.8,3.8,1.6,5.6,2.5c0.6-8.8,1-17.9,1.3-26.7
			c0.1-3.4,0.3-6.7,0.4-10.1c-0.6-0.2-1.1-0.5-1.7-0.7c-11.7-5.2-23.9-10.5-35.7-14.6c-2,9.6-4.3,19.2-6.6,28.4
			C198.5,315.9,198,317.9,197.5,319.9z"/>
	</g>
	<g>
		<path class="st3" d="M176,316.6c6.3,0.7,13.1,2.4,20.1,4.6c3-12.5,6.2-24.8,8.8-37.6c-9.3-3.2-18.4-5.6-27.2-6.6
			c-6-0.7-12.5-0.2-18.8,1c1.6,12.8,3.6,25.5,5.3,38.3C168.3,316,172.3,316.2,176,316.6z"/>
		<path class="st2" d="M196.1,322.9c-0.1,0-0.1,0-0.2,0c-7.5-2.4-14.1-3.9-20-4.5c-2.8-0.3-5.4-0.5-7.7-0.5c-1.4,0-2.7,0.1-4,0.2
			c-0.5,0.1-0.9-0.5-1.1-1.3c-0.6-4.7-1.3-9.5-2-14.1c-1.1-7.9-2.3-16.1-3.3-24.2c-0.1-0.5,0-0.9,0.2-1.3c0.2-0.4,0.4-0.6,0.7-0.7
			c7-1.3,13.4-1.7,18.9-1c8,0.9,17,3.1,27.3,6.6c0.3,0.1,0.5,0.4,0.7,0.8c0.1,0.4,0.2,0.9,0.1,1.4c-2,10.1-4.5,20.1-6.9,29.8
			c-0.6,2.6-1.3,5.3-1.9,7.9C196.9,322.5,196.5,322.9,196.1,322.9z M168.2,314.5c2.4,0,4.9,0.2,7.8,0.5c5.7,0.7,12.1,2.1,19.4,4.3
			c0.5-2.2,1.1-4.4,1.6-6.6c2.2-9,4.5-18.4,6.4-27.8c-9.8-3.3-18.3-5.3-25.9-6.2c-5.1-0.6-11.1-0.3-17.5,0.8c0.9,7.5,2,15,3.1,22.3
			c0.6,4.2,1.2,8.5,1.8,12.8C166.1,314.5,167.1,314.5,168.2,314.5z"/>
	</g>
	<g>
		<path class="st1" d="M141,331.5c5.6-10.8,14.5-14.4,23.2-15.1c-1.8-12.8-3.8-25.5-5.3-38.3c-3.1,0.6-6.2,1.3-9.1,2.2
			c-9.1,2.6-20.3,13.9-26.7,24.8c-4,6.8-7.3,16.3-9.6,25.7c7.5,5.4,15.1,10.2,22.5,15.5C137.3,340.5,138.9,335.4,141,331.5z"/>
		<path class="st2" d="M136,347.9c-0.1,0-0.3,0-0.4-0.1c-3.7-2.6-7.5-5.2-11.1-7.7c-3.7-2.5-7.6-5.1-11.4-7.8
			c-0.5-0.4-0.8-1.3-0.5-2.2c2.6-10.5,6.1-19.9,9.8-26.2c6.1-10.4,17.4-22.4,27.2-25.3c3.1-0.9,6.1-1.6,9.1-2.2
			c0.5-0.1,1,0.5,1.1,1.4c1,8.1,2.2,16.2,3.3,24.1c0.7,4.6,1.4,9.4,2,14.1c0.1,0.5,0,1-0.2,1.4c-0.2,0.4-0.5,0.6-0.8,0.7
			c-10.5,0.9-17.9,5.7-22.5,14.6c-1.9,3.7-3.6,8.6-4.8,14.2c-0.1,0.4-0.3,0.8-0.6,1C136.3,347.8,136.2,347.9,136,347.9z
			 M114.9,329.8c3.5,2.5,7,4.8,10.4,7.1c3.4,2.3,6.8,4.6,10.2,7c1.3-5.4,2.9-9.9,4.8-13.6c4.8-9.3,12.3-14.4,22.7-15.6
			c-0.6-4.1-1.2-8.2-1.7-12.2c-1.1-7.4-2.2-15.1-3.1-22.7c-2.7,0.5-5.4,1.2-8.1,2c-9.4,2.7-20.2,14.3-26.1,24.3
			C120.5,311.9,117.3,320.3,114.9,329.8z"/>
	</g>
	<g>
		<path class="st3" d="M136,346.2c-7.4-5.3-15-10.1-22.5-15.5c-0.8,3.1-1.4,6.1-1.9,9c-4.2,22.9-2.6,50.7,4.2,73.1
			c6.7-7.3,13.2-15.2,19.9-22.3C132.7,376.8,133.1,359.7,136,346.2z"/>
		<path class="st2" d="M115.8,414.5c-0.1,0-0.2,0-0.3-0.1c-0.3-0.1-0.5-0.4-0.7-0.9c-6.9-22.5-8.5-51-4.3-74.3c0.6-3,1.2-6.1,2-9.2
			c0.1-0.4,0.3-0.8,0.6-0.9c0.3-0.2,0.5-0.2,0.8,0c3.8,2.7,7.6,5.3,11.3,7.8c3.7,2.5,7.5,5.1,11.2,7.7c0.5,0.4,0.7,1.3,0.6,2.1
			c-3,13.9-3.1,30.4-0.3,43.2c0.2,0.7,0,1.6-0.4,2c-3.7,4-7.4,8.2-11,12.3c-2.9,3.3-5.9,6.7-8.9,10
			C116.2,414.4,116,414.5,115.8,414.5z M114.1,332.9c-0.6,2.4-1.1,4.9-1.5,7.3c-4,22-2.6,48.7,3.6,70.1c2.6-2.9,5.3-5.9,7.8-8.9
			c3.4-3.9,6.9-7.9,10.4-11.7c-2.6-12.8-2.5-28.9,0.3-42.7c-3.4-2.4-6.9-4.8-10.3-7.1C121.1,337.8,117.5,335.4,114.1,332.9z"/>
	</g>
	<g>
		<path class="st1" d="M147.7,412.1c-6-3.8-9.9-11.8-12-21.6c-6.7,7.1-13.2,15-19.9,22.3c5,16.3,12.8,29.7,23.3,36.4
			c3.1,2,6.2,3.4,9.4,4.4c0.5-13.4,1.4-26.6,2-40C149.5,413.1,148.6,412.7,147.7,412.1z"/>
		<path class="st2" d="M148.5,455.3c-0.1,0-0.1,0-0.2,0c-3.3-1.1-6.5-2.6-9.5-4.5c-10.1-6.4-18.4-19.2-23.9-37.2
			c-0.2-0.8-0.1-1.7,0.3-2.2c3-3.2,5.9-6.6,8.8-9.9c3.6-4.1,7.4-8.4,11.1-12.4c0.3-0.3,0.6-0.3,0.9-0.2c0.3,0.2,0.5,0.5,0.6,1
			c2.2,10.2,6.2,17.3,11.4,20.6c0.8,0.5,1.7,1,2.7,1.4c0.5,0.2,0.8,1,0.7,1.8c-0.2,5.1-0.5,10.2-0.8,15.1
			c-0.4,8.1-0.9,16.6-1.2,24.9c0,0.5-0.2,0.9-0.4,1.2C148.9,455.2,148.7,455.3,148.5,455.3z M117.1,413.4
			c5.3,16.5,13,28.3,22.3,34.2c2.6,1.6,5.3,2.9,8,3.9c0.3-7.7,0.7-15.5,1.1-23c0.2-4.5,0.5-9.1,0.7-13.7c-0.7-0.4-1.4-0.7-2-1.1
			c-5.5-3.5-9.6-10.6-12.2-20.6c-3.4,3.6-6.7,7.5-10,11.2C122.6,407.3,119.9,410.4,117.1,413.4z"/>
	</g>
	<g>
		<path class="st3" d="M185,411c-12.4,3.8-24.2,7.4-34.5,2.6c-0.6,13.4-1.5,26.6-2,40c12.7,4.1,25.4,1.1,37-2.4
			c0.8-13.8,2.2-27.5,3.1-41.3C187.3,410.2,186.1,410.6,185,411z"/>
		<path class="st2" d="M161.5,457.3c-4.7,0-9-0.7-13.2-2c-0.5-0.2-0.9-0.9-0.8-1.8c0.3-8.3,0.8-16.8,1.2-25c0.3-4.9,0.5-10,0.8-15.1
			c0-0.5,0.2-1,0.4-1.3c0.3-0.3,0.6-0.4,0.9-0.2c3.2,1.5,6.8,2.2,10.8,2.2c7.3,0,15-2.4,23.2-4.9c1.2-0.4,2.4-0.7,3.6-1.1
			c0.3-0.1,0.6,0.1,0.9,0.4c0.2,0.4,0.4,0.9,0.3,1.4c-0.4,6.7-1,13.4-1.5,20c-0.6,7-1.1,14.2-1.6,21.3c0,0.8-0.4,1.4-0.8,1.5
			C178.5,455,170.2,457.3,161.5,457.3z M149.6,452.2c3.8,1.1,7.7,1.7,11.9,1.7c8.2,0,16.1-2.1,23-4.1c0.4-6.7,1-13.5,1.5-20.1
			c0.5-5.8,0.9-11.7,1.3-17.6c-0.7,0.2-1.5,0.4-2.2,0.7c-8.3,2.5-16.1,4.9-23.6,4.9c-3.7,0-7.1-0.6-10.2-1.8
			c-0.2,4.4-0.5,8.8-0.7,13.1C150.3,436.5,149.9,444.4,149.6,452.2z"/>
	</g>
	<g>
		<path class="st1" d="M190.1,409.4c-0.5,0.2-1,0.3-1.5,0.5c-0.9,13.8-2.2,27.5-3.1,41.3c1.3-0.4,2.6-0.8,3.9-1.2
			c1.7-0.5,3.3-1,4.9-1.5c9.9-2.9,19.8-4.9,29.8-6.1c-1.5-13.1-2.7-26.3-4.5-39.3C209.7,404.5,199.8,406.6,190.1,409.4z"/>
		<path class="st2" d="M185.5,452.9c-0.3,0-0.5-0.2-0.7-0.5c-0.2-0.4-0.4-0.9-0.3-1.4c0.4-7.2,1-14.4,1.6-21.4
			c0.5-6.5,1.1-13.3,1.5-19.9c0-0.8,0.4-1.4,0.8-1.5l0.6-0.2c0.3-0.1,0.6-0.2,0.9-0.3c9.7-2.9,19.7-5,29.6-6.3
			c0.5-0.1,1,0.5,1.1,1.3c1.2,8.5,2.1,17.1,3,25.5c0.5,4.5,1,9.2,1.5,13.8c0.1,0.5,0,1-0.2,1.4c-0.2,0.4-0.4,0.6-0.7,0.7
			c-9.9,1.2-19.9,3.3-29.7,6.1c-1.6,0.5-3.3,1-4.9,1.5c-1.3,0.4-2.6,0.8-3.9,1.2C185.6,452.9,185.5,452.9,185.5,452.9z M189.5,411.3
			c-0.4,6.3-0.9,12.6-1.4,18.7c-0.5,6.3-1,12.7-1.4,19.1c0.9-0.3,1.7-0.5,2.5-0.8c1.7-0.5,3.3-1,4.9-1.5c9.4-2.8,19.1-4.8,28.7-6
			c-0.5-4-0.9-8-1.3-12c-0.8-7.9-1.7-16-2.8-23.9c-9.6,1.3-19.2,3.4-28.5,6.1C190,411.2,189.7,411.3,189.5,411.3z"/>
	</g>
	<g>
		<path class="st1" d="M276.4,404.2c-5-0.9-10.1-1.6-15.2-2.1c-1.1,13.2-2.2,26.3-3.3,39.5c5.4,0.4,10.7,1.1,15.9,2.1
			c7.2,1.3,14.1,3.2,20.7,5.7c1-13.3,1-26.8,1.8-40C289.9,407.2,283.2,405.5,276.4,404.2z"/>
		<path class="st2" d="M294.5,451.1c-0.1,0-0.2,0-0.2,0c-6.6-2.5-13.5-4.4-20.6-5.7c-5.1-0.9-10.4-1.6-15.8-2
			c-0.3,0-0.6-0.2-0.7-0.6c-0.2-0.4-0.3-0.8-0.2-1.3l3.3-39.5c0.1-0.9,0.5-1.5,1.1-1.5c5.2,0.5,10.4,1.2,15.3,2.1
			c6.8,1.3,13.5,3,20,5.2c0.5,0.2,0.9,1,0.8,1.8c-0.3,5.6-0.5,11.4-0.7,16.9c-0.3,7.6-0.5,15.5-1.1,23.1c0,0.5-0.2,0.9-0.4,1.2
			C294.9,451,294.7,451.1,294.5,451.1z M259,440c5,0.4,10,1.1,14.8,2c6.8,1.2,13.4,3,19.7,5.3c0.5-7,0.7-14.1,0.9-21
			c0.2-5.1,0.4-10.4,0.6-15.5c-6.1-2-12.4-3.7-18.9-4.9c-4.6-0.8-9.4-1.5-14.2-2L259,440z"/>
	</g>
	<g>
		<path class="st3" d="M335.3,429.5c-8.4-7.1-30.8-17.3-39-20.1c-0.7,13.2-0.8,26.8-1.8,40c6,2.2,11.6,4.9,17,8.1
			c1.3,0.8,15,9.1,16.3,9.7C337.2,471.2,343.5,436.4,335.3,429.5z"/>
		<path class="st2" d="M329.3,469.2L329.3,469.2c-0.6,0-1.2-0.1-1.8-0.4c-1-0.4-7.5-4.4-13.5-8c-1.4-0.9-2.5-1.5-2.8-1.7
			c-5.3-3.1-11-5.8-16.9-8.1c-0.5-0.2-0.9-1-0.8-1.9c0.6-7.6,0.8-15.4,1.1-22.9c0.2-5.6,0.4-11.4,0.7-17.1c0-0.5,0.2-0.9,0.4-1.2
			c0.2-0.3,0.5-0.4,0.8-0.3c7.5,2.6,30.5,12.9,39.3,20.3c3.8,3.2,5.3,12.1,3.8,22.6C337.6,463.5,333,469.2,329.3,469.2z
			 M295.6,448.1c5.7,2.2,11.1,4.8,16.2,7.8c0.3,0.2,1.4,0.8,2.8,1.7c4,2.4,12.4,7.5,13.3,7.9c0.4,0.2,0.8,0.3,1.2,0.3h0
			c2.8,0,6.6-5,8.2-16c1.1-7.3,0.6-16-2.7-18.8c-7.7-6.5-28.2-16.1-37.6-19.5c-0.3,5-0.4,10.1-0.6,15
			C296.4,433.6,296.1,440.9,295.6,448.1z"/>
	</g>
	<g>
		<path class="st3" d="M219.6,403.1c1.8,13,3,26.2,4.5,39.3c11.4-1.4,22.7-1.6,33.8-0.8c1.1-13.2,2.2-26.3,3.3-39.5
			C247.6,400.9,233.6,401.2,219.6,403.1z"/>
		<path class="st2" d="M224.1,444.1c-0.5,0-0.9-0.6-1-1.4c-0.5-4.6-1-9.3-1.5-13.8c-0.9-8.3-1.8-17-3-25.4c-0.1-0.5,0-1,0.2-1.4
			c0.2-0.4,0.4-0.6,0.7-0.7c8.5-1.1,17-1.7,25.5-1.7c5.5,0,10.9,0.2,16.3,0.7c0.3,0,0.6,0.2,0.7,0.6c0.2,0.4,0.3,0.8,0.2,1.3
			l-3.3,39.5c-0.1,0.9-0.5,1.5-1.1,1.5c-4.2-0.3-8.6-0.5-12.9-0.5C238.1,442.8,231.1,443.2,224.1,444.1
			C224.1,444.1,224.1,444.1,224.1,444.1z M220.8,404.7c1.1,7.9,1.9,15.9,2.7,23.6c0.4,4,0.9,8.2,1.3,12.3c6.7-0.8,13.4-1.2,20.1-1.2
			c4,0,8.1,0.1,12,0.4l3-36.1c-5-0.4-10-0.6-15-0.6C237,403.1,228.9,403.6,220.8,404.7z"/>
	</g>
	<g>
		<path class="st3" d="M321.6,294.3c-2.3,13.4-8.9,19.3-16.7,21.4c1.3,13.4,2.7,26.8,4.3,40.2c6.9-1.5,13.1-4.7,18.6-10.3
			c5.5-5.7,11.2-15.8,14.2-25.4c0.1-0.2,0.1-0.4,0.2-0.6C335.1,311.6,328.3,303.1,321.6,294.3z"/>
		<path class="st2" d="M309.2,357.6c-0.5,0-0.9-0.6-1-1.4c-1.6-13.4-3-27-4.3-40.3c-0.1-0.9,0.3-1.8,0.8-1.9
			c8.7-2.4,14-9.1,15.9-20.2c0.1-0.6,0.3-1,0.7-1.2c0.3-0.2,0.7-0.1,1,0.3c7.6,10,14.2,18.1,20.5,25.3c0.4,0.5,0.6,1.4,0.3,2.2
			l-0.1,0.2c0,0.1-0.1,0.3-0.1,0.4c-3.2,9.9-8.9,20.1-14.6,26c-5.4,5.5-11.6,9-19,10.6C309.3,357.6,309.3,357.6,309.2,357.6z
			 M306.1,317c1.2,12.2,2.5,24.7,4,37c6.7-1.6,12.3-4.9,17.2-9.9c5.2-5.3,10.6-14.9,13.6-24c-5.8-6.7-11.8-14.1-18.7-23
			C319.8,307.7,314.4,314.4,306.1,317z"/>
	</g>
	<g>
		<path class="st1" d="M342.6,242.2c-7.6,4.1-15.3,8.1-23.1,12c3.6,9.8,4.5,22.6,2.3,38.5c-0.1,0.5-0.2,1.1-0.2,1.6
			c6.7,8.8,13.5,17.3,20.6,25.3C349.3,296.7,349.1,266.5,342.6,242.2z"/>
		<path class="st2" d="M342.2,321.3c-0.2,0-0.4-0.1-0.6-0.3c-6.4-7.3-12.9-15.3-20.6-25.4c-0.3-0.4-0.5-1.1-0.4-1.8
			c0.1-0.5,0.2-1,0.2-1.5c2.1-15.1,1.3-27.6-2.2-37.2c-0.2-0.4-0.2-1-0.1-1.5c0.1-0.5,0.4-0.9,0.7-1c7.1-3.6,14.7-7.5,23-12
			c0.5-0.3,1,0.1,1.3,0.9c6.8,25.3,6.6,56.2-0.5,78.8c-0.1,0.4-0.4,0.8-0.7,0.9C342.4,321.3,342.3,321.3,342.2,321.3z M322.8,293.6
			c7,9.2,13.1,16.7,19,23.5c6.1-21.2,6.2-49.3,0.3-72.8c-7.6,4-14.4,7.6-21,10.9c3.2,10.1,3.8,22.8,1.8,37.8
			C322.8,293.2,322.8,293.4,322.8,293.6z"/>
	</g>
	<g>
		<path class="st3" d="M332.4,217.6c-6.8-10.8-15.5-18.6-26.2-23.4c-2.9,12.5-7.6,24.2-10.8,36.6c8.7,2.9,15.7,8.1,20.3,15.4
			c1.5,2.4,2.8,5,3.9,8c7.7-3.9,15.4-7.9,23.1-12C340.1,232.9,336.7,224.5,332.4,217.6z"/>
		<path class="st2" d="M319.6,255.9c-0.4,0-0.7-0.3-0.9-0.8c-1-2.8-2.2-5.3-3.7-7.6c-4.4-7-11.2-12.2-19.7-15
			c-0.3-0.1-0.6-0.4-0.7-0.9c-0.1-0.5-0.2-1,0-1.5c1.5-5.9,3.4-11.7,5.2-17.3c2-6.3,4.1-12.7,5.6-19.3c0.2-0.8,0.7-1.3,1.2-1
			c10.8,4.9,19.7,12.9,26.6,23.8c4.3,6.8,7.8,15.3,10.4,25.1c0.1,0.4,0.1,0.9,0,1.4c-0.1,0.4-0.3,0.8-0.6,0.9
			c-8.4,4.5-15.9,8.4-23.1,12C319.8,255.9,319.7,255.9,319.6,255.9z M296.9,229.6c8.4,3.1,15,8.2,19.5,15.4c1.4,2.2,2.6,4.6,3.6,7.2
			c6.6-3.3,13.5-6.9,21.2-11c-2.5-8.7-5.7-16.2-9.5-22.3c-6.4-10.2-14.8-17.8-24.8-22.6c-1.5,6.2-3.5,12.3-5.4,18.2
			C299.9,219.4,298.3,224.5,296.9,229.6z"/>
	</g>
</g>
<path class="st4" d="M247.3,164c-0.2,0-0.3,0-0.5,0.1c-0.5-2.2-1.9-3.8-3.5-3.7c-0.5,0-1,0.2-1.4,0.5c-1-1.7-2.4-2.7-4-2.7
	c-2,0-3.6,1.7-4.5,4.1c-0.2,0-0.4,0-0.6,0c-1.9,0-3.5,1.7-4.3,4c-0.2,0-0.3-0.1-0.5,0c-1.6,0-2.9,2-2.9,4.4c0,2.4,1.3,4.3,2.9,4.3
	c0.5,0,0.9-0.2,1.3-0.5c0.9,1.4,2.2,2.3,3.6,2.2c0.2,0,0.5,0,0.7-0.1c0.7,0.7,1.7,1.1,2.7,1.1c1.1,0,2.1-0.6,2.9-1.4
	c0.8,0.6,1.8,0.9,2.8,0.9c1.9,0,3.6-1.3,4.5-3.1c0.3,0.1,0.6,0.2,0.9,0.2c1.9,0,3.4-2.4,3.4-5.2C250.7,166.3,249.2,164,247.3,164z"
	/>
<path class="st4" d="M401.8,329c-0.2,0-0.3,0-0.5,0.1c-0.5-2.2-1.9-3.8-3.5-3.7c-0.5,0-1,0.2-1.4,0.5c-1-1.7-2.4-2.7-4-2.7
	c-2,0-3.6,1.7-4.5,4.1c-0.2,0-0.4,0-0.6,0c-1.9,0-3.5,1.7-4.3,4c-0.2,0-0.3-0.1-0.5,0c-1.6,0-2.9,2-2.9,4.4c0,2.4,1.3,4.3,2.9,4.3
	c0.5,0,0.9-0.2,1.3-0.5c0.9,1.4,2.2,2.3,3.6,2.2c0.2,0,0.5,0,0.7-0.1c0.7,0.7,1.7,1.1,2.7,1.1c1.1,0,2.1-0.6,2.9-1.4
	c0.8,0.6,1.8,0.9,2.8,0.9c1.9,0,3.6-1.3,4.5-3.1c0.3,0.1,0.6,0.2,0.9,0.2c1.9,0,3.4-2.4,3.4-5.2C405.2,331.3,403.7,329,401.8,329z"
	/>
<path class="st4" d="M73.4,329.5c-0.2,0-0.3,0-0.5,0.1c-0.5-2.2-1.9-3.8-3.5-3.7c-0.5,0-1,0.2-1.4,0.5c-1-1.7-2.4-2.7-4-2.7
	c-2,0-3.6,1.7-4.5,4.1c-0.2,0-0.4,0-0.6,0c-1.9,0-3.5,1.7-4.3,4c-0.2,0-0.3-0.1-0.5,0c-1.6,0-2.9,2-2.9,4.4c0,2.4,1.3,4.3,2.9,4.3
	c0.4,0,0.9-0.2,1.3-0.5c0.9,1.4,2.2,2.3,3.6,2.2c0.2,0,0.5,0,0.7-0.1c0.7,0.7,1.7,1.1,2.8,1.1c1.1,0,2.1-0.6,2.9-1.4
	c0.8,0.6,1.8,0.9,2.8,0.9c1.9,0,3.6-1.3,4.5-3.1c0.3,0.1,0.6,0.2,0.9,0.2c1.9,0,3.4-2.4,3.4-5.2C76.8,331.7,75.2,329.4,73.4,329.5z"
	/>
<path class="st4" d="M225.6,464.4c-0.2,0-0.3,0-0.5,0.1c-0.5-2.2-1.9-3.8-3.5-3.7c-0.5,0-1,0.2-1.4,0.5c-1-1.7-2.4-2.7-4-2.7
	c-2,0-3.6,1.7-4.5,4.1c-0.2,0-0.4,0-0.6,0c-1.9,0-3.5,1.7-4.3,4c-0.2,0-0.3-0.1-0.5,0c-1.6,0-2.9,2-2.9,4.4c0,2.4,1.3,4.3,2.9,4.3
	c0.4,0,0.9-0.2,1.3-0.5c0.9,1.4,2.2,2.3,3.6,2.2c0.2,0,0.5,0,0.7-0.1c0.7,0.7,1.7,1.1,2.8,1.1c1.1,0,2.1-0.6,2.9-1.4
	c0.8,0.6,1.8,0.9,2.8,0.9c1.9,0,3.6-1.3,4.5-3.1c0.3,0.1,0.6,0.2,0.9,0.2c1.9,0,3.4-2.4,3.4-5.2C229,466.6,227.5,464.3,225.6,464.4z
	"/>
<path class="st4" d="M84.8,369.8c-0.1,0-0.3,0-0.4,0c-0.4-1.7-1.5-2.9-2.7-2.9c-0.4,0-0.8,0.1-1.1,0.4c-0.8-1.3-1.9-2.1-3.1-2.1
	c-1.5,0-2.8,1.3-3.5,3.2c-0.2,0-0.3,0-0.5,0c-1.5,0-2.7,1.3-3.3,3.2c-0.1,0-0.2,0-0.4,0c-1.2,0-2.2,1.6-2.2,3.5c0,1.9,1,3.4,2.3,3.4
	c0.4,0,0.7-0.1,1-0.4c0.7,1.1,1.7,1.8,2.8,1.7c0.2,0,0.4,0,0.5-0.1c0.6,0.6,1.3,0.9,2.1,0.9c0.9,0,1.7-0.4,2.3-1.1
	c0.6,0.5,1.4,0.7,2.2,0.7c1.5,0,2.8-1,3.5-2.4c0.2,0.1,0.4,0.1,0.7,0.1c1.5,0,2.7-1.9,2.6-4.1C87.5,371.5,86.3,369.7,84.8,369.8z"/>
<path class="st4" d="M384,365.3c-0.1,0-0.3,0-0.4,0c-0.4-1.7-1.5-2.9-2.7-2.9c-0.4,0-0.8,0.1-1.1,0.4c-0.8-1.3-1.9-2.1-3.1-2.1
	c-1.5,0-2.8,1.3-3.5,3.2c-0.2,0-0.3,0-0.5,0c-1.5,0-2.7,1.3-3.3,3.2c-0.1,0-0.2,0-0.4,0c-1.2,0-2.2,1.6-2.2,3.5c0,1.9,1,3.4,2.3,3.4
	c0.4,0,0.7-0.1,1-0.4c0.7,1.1,1.7,1.8,2.8,1.7c0.2,0,0.4,0,0.5-0.1c0.6,0.6,1.3,0.9,2.1,0.9c0.9,0,1.7-0.4,2.3-1.1
	c0.6,0.5,1.4,0.7,2.2,0.7c1.5,0,2.8-1,3.5-2.4c0.2,0.1,0.5,0.1,0.7,0.1c1.5,0,2.7-1.9,2.6-4.1C386.7,367,385.5,365.3,384,365.3z"/>
<path class="st4" d="M265.4,480.7c-0.1,0-0.3,0-0.4,0c-0.4-1.7-1.5-2.9-2.7-2.9c-0.4,0-0.8,0.1-1.1,0.4c-0.8-1.3-1.9-2.1-3.1-2.1
	c-1.5,0-2.8,1.3-3.5,3.2c-0.2,0-0.3,0-0.5,0c-1.5,0-2.7,1.3-3.3,3.2c-0.1,0-0.2,0-0.4,0c-1.2,0-2.2,1.6-2.2,3.5c0,1.9,1,3.4,2.3,3.4
	c0.4,0,0.7-0.1,1-0.4c0.7,1.1,1.7,1.8,2.8,1.7c0.2,0,0.4,0,0.5-0.1c0.6,0.6,1.3,0.9,2.1,0.9c0.9,0,1.7-0.4,2.3-1.1
	c0.6,0.5,1.4,0.7,2.2,0.7c1.5,0,2.8-1,3.5-2.4c0.2,0.1,0.5,0.1,0.7,0.1c1.5,0,2.7-1.9,2.6-4.1C268,482.4,266.8,480.7,265.4,480.7z"
	/>
<path class="st4" d="M310.9,169.9c-0.1,0-0.3,0-0.4,0c-0.4-1.7-1.5-2.9-2.7-2.9c-0.4,0-0.8,0.1-1.1,0.4c-0.8-1.3-1.9-2.1-3.1-2.1
	c-1.5,0-2.8,1.3-3.5,3.2c-0.2,0-0.3,0-0.5,0c-1.5,0-2.7,1.3-3.3,3.2c-0.1,0-0.2,0-0.4,0c-1.2,0-2.2,1.6-2.2,3.5c0,1.9,1,3.4,2.3,3.4
	c0.4,0,0.7-0.1,1-0.4c0.7,1.1,1.7,1.8,2.8,1.7c0.2,0,0.4,0,0.5-0.1c0.6,0.6,1.3,0.9,2.1,0.9c0.9,0,1.7-0.4,2.3-1.1
	c0.6,0.5,1.4,0.7,2.2,0.7c1.5,0,2.8-1,3.5-2.4c0.2,0.1,0.5,0.1,0.7,0.1c1.5,0,2.7-1.9,2.6-4.1C313.6,171.6,312.4,169.8,310.9,169.9z
	"/>
<path class="st4" d="M397.4,206.2c-0.1,0-0.3,0-0.4,0c-0.4-1.7-1.5-2.9-2.7-2.9c-0.4,0-0.8,0.1-1.1,0.4c-0.8-1.3-1.9-2.1-3.1-2.1
	c-1.5,0-2.8,1.3-3.5,3.2c-0.2,0-0.3,0-0.5,0c-1.5,0-2.7,1.3-3.3,3.2c-0.1,0-0.2,0-0.4,0c-1.2,0-2.2,1.6-2.2,3.5c0,1.9,1,3.4,2.3,3.4
	c0.4,0,0.7-0.1,1-0.4c0.7,1.1,1.7,1.8,2.8,1.7c0.2,0,0.4,0,0.5-0.1c0.6,0.6,1.3,0.9,2.1,0.9c0.9,0,1.7-0.4,2.3-1.1
	c0.6,0.5,1.4,0.7,2.2,0.7c1.5,0,2.8-1,3.5-2.4c0.2,0.1,0.5,0.1,0.7,0.1c1.5,0,2.7-1.9,2.6-4.1C400.1,207.9,398.9,206.1,397.4,206.2z
	"/>
<path class="st4" d="M124.4,164.1c-0.1,0-0.3,0-0.4,0c-0.4-1.7-1.5-2.9-2.7-2.9c-0.4,0-0.8,0.1-1.1,0.4c-0.8-1.3-1.9-2.1-3.1-2.1
	c-1.5,0-2.8,1.3-3.5,3.2c-0.2,0-0.3,0-0.5,0c-1.5,0-2.7,1.3-3.3,3.2c-0.1,0-0.2,0-0.4,0c-1.2,0-2.2,1.6-2.2,3.5c0,1.9,1,3.4,2.3,3.4
	c0.4,0,0.7-0.1,1-0.4c0.7,1.1,1.7,1.8,2.8,1.7c0.2,0,0.4,0,0.5-0.1c0.6,0.6,1.3,0.9,2.1,0.9c0.9,0,1.7-0.4,2.3-1.1
	c0.6,0.5,1.4,0.7,2.2,0.7c1.5,0,2.8-1,3.5-2.4c0.2,0.1,0.5,0.1,0.7,0.1c1.5,0,2.7-1.9,2.6-4.1C127.1,165.8,125.9,164.1,124.4,164.1z
	"/>
<g>
	<g>
		<g>
			<path class="st4" d="M168.3,210c-2.8-10.1-11.6-17.1-21.7-17.8c-3.8-16.2-19.8-26.7-36.3-23.5c-10,1.9-17.9,8.4-22.1,16.8
				c-3.7-3.3-8.9-4.8-14.1-3.8c-9.1,1.7-15,10.5-13.2,19.5c0.2,1.1,0.6,2.3,1,3.3c-11.6,4.1-18.7,16.1-16.3,28.5
				c0,0.2,0.1,0.3,0.1,0.4L168.3,210z"/>
			<path class="st5" d="M45.7,233.9c3,13.2,16,21.8,29.4,19.2c1.5-0.3,2.9-0.7,4.3-1.2c7,9.7,19.2,15,31.7,12.6
				c13.2-2.5,22.9-12.9,25.2-25.4c4.1,1.6,8.6,2,13.2,1.2c13.2-2.5,21.8-15.3,19.3-28.4c-0.1-0.5-0.2-1-0.3-1.5L45.7,233.9z"/>
			<g>
				<path class="st6" d="M146.7,193.1c-3.7-15.6-19.6-25.6-36.1-22.4c-10,1.9-18,8.2-22.2,16.4c-3.7-3.1-8.8-4.6-14.1-3.6
					c-9.1,1.7-14.8,9.9-13.1,18.7c0.2,1.1,0.5,2,1,3c-11.6,4-19.1,16.1-16.8,28.1c2.5,13.2,15.7,21.7,29.4,19.1
					c1.5-0.3,2.9-0.7,4.3-1.2c6.9,9.3,19.1,14.3,31.6,11.9c13.2-2.5,23-12.6,25.4-24.6c4.1,1.5,8.6,1.9,13.2,1
					c13.2-2.5,21.9-14.9,19.4-27.6C166.7,201.2,157.4,193.7,146.7,193.1z"/>
				<path class="st7" d="M119.3,262.9c-2.6,1.2-5.3,2.1-8.1,2.6c-12.4,2.4-25.1-2.1-32.9-11.5c-1,0.3-2,0.5-2.9,0.7
					c-15,2.9-29.5-6.6-32.2-21.1c-2.3-12,4.4-24.5,15.9-29.9c0.1,0,0.1-0.1,0.2-0.1c-0.1-0.4-0.2-0.7-0.3-1.2
					c-1.6-8.4,2.6-16.5,10.4-20.1c1.4-0.7,3-1.2,4.6-1.5c4.8-0.9,9.7,0,13.7,2.4c3.5-5.5,8.5-9.9,14.5-12.6c2.5-1.2,5.2-2,8-2.6
					c17.2-3.3,33.7,6.5,38.5,22.5c11.3,1.4,20.4,9.7,22.5,20.6c2.2,11.6-4,23.3-15,28.4l0,0c-2,0.9-4.2,1.6-6.4,2
					c-4,0.8-8,0.6-11.9-0.3C135.2,250.8,128.4,258.7,119.3,262.9z M61.1,208.3c-9.5,4.4-15,14.7-13.1,24.5
					c2.3,11.8,14.2,19.5,26.5,17.2c1.3-0.2,2.6-0.6,3.9-1.1c1-0.4,2.2,0,2.8,0.8c6.6,8.8,18,13.1,29.2,11c2.4-0.5,4.8-1.2,7-2.2
					c8.5-3.9,14.6-11.6,16.4-20.5c0.1-0.7,0.6-1.3,1.2-1.7c0.6-0.3,1.4-0.4,2-0.2c3.8,1.4,7.9,1.7,11.9,0.9c1.8-0.3,3.6-0.9,5.2-1.7
					l0,0c9-4.2,14.1-13.6,12.3-23c-1.8-9.3-9.9-16.2-19.7-16.8c-1.1-0.1-2-0.8-2.2-1.9c-3.4-14.4-18-23.5-33.2-20.6
					c-2.4,0.5-4.7,1.2-6.9,2.2c-5.8,2.7-10.7,7.3-13.6,12.9c-0.3,0.7-1,1.1-1.7,1.3c-0.7,0.1-1.5,0-2.1-0.5c-3.3-2.8-7.7-3.9-12-3
					c-1.2,0.2-2.4,0.6-3.5,1.1c-5.8,2.7-8.8,8.6-7.7,14.7c0.2,0.9,0.4,1.6,0.8,2.5c0.3,0.6,0.3,1.3,0,2c-0.3,0.6-0.8,1.1-1.4,1.3
					C62.4,207.7,61.7,208,61.1,208.3z"/>
			</g>
		</g>
	</g>
</g>
<g>
	<g>
		<g>
			<path class="st4" d="M295.7,333.1c0.3-10.4-6.1-19.7-15.6-23.3c1.1-16.6-11.2-31.3-27.9-33c-10.1-1.1-19.6,2.8-26,9.6
				c-2.6-4.2-7.1-7.2-12.4-7.8c-9.2-1-17.4,5.7-18.4,14.8c-0.1,1.2-0.1,2.3,0,3.4c-12.3,0.5-22.6,10-23.9,22.5c0,0.2,0,0.3,0,0.4
				L295.7,333.1z"/>
			<path class="st5" d="M171.5,320.3c-1,13.5,8.9,25.5,22.5,26.9c1.5,0.2,3,0.2,4.4,0.1c3.9,11.3,14,19.9,26.7,21.3
				c13.4,1.4,25.7-5.7,31.5-16.9c3.4,2.7,7.7,4.5,12.3,5c13.3,1.4,25.3-8.2,26.7-21.6c0.1-0.5,0.1-1,0.1-1.5L171.5,320.3z"/>
			<g>
				<path class="st6" d="M280.1,310.7c1-16-11.3-30.2-28-32c-10.1-1.1-19.6,2.6-26,9.2c-2.6-4.1-7.1-7-12.4-7.5c-9.2-1-17,5.2-18,14
					c-0.1,1.1-0.1,2.1,0.1,3.2c-12.3,0.5-23,9.9-24.2,22c-1.4,13.4,8.7,25.4,22.5,26.9c1.5,0.2,3,0.2,4.4,0.1
					c3.9,10.9,14.1,19.3,26.7,20.6c13.4,1.4,25.6-5.4,31.4-16.2c3.5,2.6,7.7,4.3,12.3,4.8c13.3,1.4,25.3-7.8,26.6-20.7
					C296.8,324.3,290.1,314.4,280.1,310.7z"/>
				<path class="st7" d="M233.5,369.4c-2.8,0.4-5.7,0.4-8.5,0.1c-12.5-1.3-23.4-9.3-28.1-20.5c-1,0-2-0.1-3-0.2
					c-15.2-1.6-26.3-14.9-24.7-29.5c1.3-12.1,11.4-22.2,23.9-23.9c0.1,0,0.1,0,0.2,0c0-0.4,0-0.8,0.1-1.2c0.9-8.5,7.3-15,15.8-16.2
					c1.6-0.2,3.2-0.2,4.8-0.1c4.9,0.5,9.3,2.8,12.4,6.3c4.9-4.2,11-7,17.5-7.9c2.8-0.4,5.6-0.4,8.4-0.1
					c17.4,1.9,30.4,16.1,30.2,32.8c10.3,4.6,16.7,15.2,15.5,26.3c-1.3,11.8-10.6,21.1-22.7,22.8l0,0c-2.2,0.3-4.5,0.3-6.7,0.1
					c-4-0.4-7.9-1.7-11.3-3.8C252.2,362.5,243.4,368.1,233.5,369.4z M193.7,300.2c-10.4,1.4-18.6,9.7-19.7,19.6
					c-1.3,12,7.8,22.8,20.3,24.2c1.3,0.1,2.7,0.2,4,0.1c1.1-0.1,2.1,0.6,2.5,1.6c3.7,10.3,13.4,17.8,24.7,19
					c2.5,0.3,4.9,0.2,7.4-0.1c9.3-1.3,17.4-6.8,21.7-14.8c0.3-0.6,0.9-1.1,1.6-1.2c0.7-0.1,1.4,0,2,0.4c3.2,2.4,7.1,3.9,11.1,4.3
					c1.8,0.2,3.7,0.2,5.5-0.1l0,0c9.8-1.3,17.4-8.9,18.4-18.4c1-9.4-4.7-18.4-14-21.8c-1-0.4-1.7-1.4-1.6-2.5
					c0.9-14.8-10.4-27.7-25.8-29.4c-2.4-0.3-4.9-0.2-7.2,0.1c-6.4,0.9-12.3,3.8-16.8,8.4c-0.5,0.5-1.3,0.8-2,0.7
					c-0.7-0.1-1.4-0.5-1.8-1.1c-2.4-3.6-6.2-5.9-10.6-6.4c-1.2-0.1-2.4-0.1-3.6,0c-6.3,0.9-11,5.6-11.6,11.8c-0.1,0.9,0,1.7,0.1,2.6
					c0.1,0.7-0.1,1.3-0.6,1.9c-0.4,0.5-1.1,0.8-1.8,0.8C195.1,300.1,194.4,300.1,193.7,300.2z"/>
			</g>
		</g>
	</g>
</g>
<g>
	<g>
		<g>
			<path class="st4" d="M384.7,459c-2.8-10.1-11.6-17.1-21.7-17.8c-3.8-16.2-19.8-26.7-36.3-23.5c-10,1.9-17.9,8.4-22.1,16.8
				c-3.7-3.3-8.9-4.8-14.1-3.8c-9.1,1.7-15,10.5-13.2,19.5c0.2,1.1,0.6,2.3,1,3.3c-11.6,4.1-18.7,16.1-16.3,28.5
				c0,0.2,0.1,0.3,0.1,0.4L384.7,459z"/>
			<path class="st5" d="M262.1,482.9c3,13.2,16,21.8,29.4,19.2c1.5-0.3,2.9-0.7,4.3-1.2c7,9.7,19.2,15,31.7,12.6
				c13.2-2.5,22.9-12.9,25.2-25.4c4.1,1.6,8.6,2,13.2,1.2c13.2-2.5,21.8-15.3,19.3-28.4c-0.1-0.5-0.2-1-0.3-1.5L262.1,482.9z"/>
			<g>
				<path class="st6" d="M363.2,442c-3.7-15.6-19.6-25.6-36.1-22.4c-10,1.9-18,8.2-22.2,16.4c-3.7-3.1-8.8-4.6-14.1-3.6
					c-9.1,1.7-14.8,9.9-13.1,18.7c0.2,1.1,0.5,2,1,3c-11.6,4-19.1,16.1-16.8,28.1c2.5,13.2,15.7,21.7,29.4,19.1
					c1.5-0.3,2.9-0.7,4.3-1.2c6.9,9.3,19.1,14.3,31.6,11.9c13.2-2.5,23-12.6,25.4-24.6c4.1,1.5,8.6,1.9,13.2,1
					c13.2-2.5,21.9-14.9,19.4-27.6C383.1,450.2,373.9,442.7,363.2,442z"/>
				<path class="st7" d="M335.7,511.8c-2.6,1.2-5.3,2.1-8.1,2.6c-12.4,2.4-25.1-2.1-32.9-11.5c-1,0.3-2,0.5-2.9,0.7
					c-15,2.9-29.5-6.6-32.2-21.1c-2.3-12,4.4-24.5,15.9-29.9c0.1,0,0.1-0.1,0.2-0.1c-0.1-0.4-0.2-0.7-0.3-1.2
					c-1.6-8.4,2.6-16.5,10.4-20.1c1.4-0.7,3-1.2,4.6-1.5c4.8-0.9,9.7,0,13.7,2.4c3.5-5.5,8.5-9.9,14.5-12.6c2.5-1.2,5.2-2,8-2.6
					c17.2-3.3,33.7,6.5,38.5,22.5c11.3,1.4,20.4,9.7,22.5,20.6c2.2,11.6-4,23.3-15,28.4l0,0c-2,0.9-4.2,1.6-6.4,2
					c-4,0.8-8,0.6-11.9-0.3C351.6,499.8,344.8,507.6,335.7,511.8z M277.5,457.2c-9.5,4.4-15,14.7-13.1,24.5
					c2.3,11.8,14.2,19.5,26.5,17.2c1.3-0.2,2.6-0.6,3.9-1.1c1-0.4,2.2,0,2.8,0.8c6.6,8.8,18,13.1,29.2,11c2.4-0.5,4.8-1.2,7-2.2
					c8.5-3.9,14.6-11.6,16.4-20.5c0.1-0.7,0.6-1.3,1.2-1.7c0.6-0.3,1.4-0.4,2-0.2c3.8,1.4,7.9,1.7,11.9,0.9c1.8-0.3,3.6-0.9,5.2-1.7
					l0,0c9-4.2,14.1-13.6,12.3-23c-1.8-9.3-9.9-16.2-19.7-16.8c-1.1-0.1-2-0.8-2.2-1.9c-3.4-14.4-18-23.5-33.2-20.6
					c-2.4,0.5-4.7,1.2-6.9,2.2c-5.8,2.7-10.7,7.3-13.6,12.9c-0.3,0.7-1,1.1-1.7,1.3c-0.7,0.1-1.5,0-2.1-0.5c-3.3-2.8-7.7-3.9-12-3
					c-1.2,0.2-2.4,0.6-3.5,1.1c-5.8,2.7-8.8,8.6-7.7,14.7c0.2,0.9,0.4,1.6,0.8,2.5c0.3,0.6,0.3,1.3,0,2c-0.3,0.6-0.8,1.1-1.4,1.3
					C278.8,456.7,278.1,456.9,277.5,457.2z"/>
			</g>
		</g>
	</g>
</g>
</svg>
